<svg width="40" height="40" viewBox="0 0 40 40" fill="none" xmlns="http://www.w3.org/2000/svg">
<path fill-rule="evenodd" clip-rule="evenodd" d="M13.147 10.1693C14.8623 8.08185 17.4611 6.75 20.3698 6.75C25.0491 6.75 28.9174 10.1942 29.6131 14.6902C32.7821 15.0099 35.25 17.6939 35.25 20.9541C35.25 24.4298 32.4416 27.25 28.9773 27.25H26.75V25.75H28.9773C31.608 25.75 33.75 23.6066 33.75 20.9541C33.75 18.3014 31.6114 16.1583 28.9773 16.1583H28.2541L28.1965 15.471C27.8569 11.4233 24.4818 8.25 20.3698 8.25C17.8132 8.25 15.5407 9.47468 14.104 11.3779L13.8789 11.676H13.5054C13.4476 11.676 13.3923 11.6735 13.3543 11.6718L13.3485 11.6716C13.305 11.6696 13.2796 11.6686 13.2564 11.6686C9.38839 11.6686 6.25 14.8156 6.25 18.7074C6.25 22.5993 9.38839 25.7463 13.2564 25.7463V27.2463C8.55406 27.2463 4.75 23.4218 4.75 18.7074C4.75 14.0297 8.49522 10.228 13.147 10.1693Z" fill="#1F1F1F"/>
<path d="M20 20C21.1045 20 22 19.1046 22 18C22 16.8954 21.1045 16 20 16C18.8954 16 18 16.8954 18 18C18 19.1046 18.8954 20 20 20Z" fill="#06C755"/>
<path fill-rule="evenodd" clip-rule="evenodd" d="M20 16.75C19.3096 16.75 18.75 17.3096 18.75 18C18.75 18.6904 19.3096 19.25 20 19.25C20.6903 19.25 21.25 18.6903 21.25 18C21.25 17.3097 20.6903 16.75 20 16.75ZM17.25 18C17.25 16.4812 18.4812 15.25 20 15.25C21.5187 15.25 22.75 16.4812 22.75 18C22.75 19.5188 21.5187 20.75 20 20.75C18.4812 20.75 17.25 19.5188 17.25 18Z" fill="#1F1F1F"/>
<path fill-rule="evenodd" clip-rule="evenodd" d="M27 30.75C26.5858 30.75 26.25 31.0858 26.25 31.5C26.25 31.9142 26.5858 32.25 27 32.25C27.4142 32.25 27.75 31.9142 27.75 31.5C27.75 31.0858 27.4142 30.75 27 30.75ZM24.75 31.5C24.75 30.2574 25.7573 29.25 27 29.25C28.2427 29.25 29.25 30.2574 29.25 31.5C29.25 32.7426 28.2427 33.75 27 33.75C25.7573 33.75 24.75 32.7426 24.75 31.5Z" fill="#1F1F1F"/>
<path fill-rule="evenodd" clip-rule="evenodd" d="M20 30.75C19.5858 30.75 19.25 31.0858 19.25 31.5C19.25 31.9142 19.5858 32.25 20 32.25C20.4142 32.25 20.75 31.9142 20.75 31.5C20.75 31.0858 20.4142 30.75 20 30.75ZM17.75 31.5C17.75 30.2574 18.7573 29.25 20 29.25C21.2427 29.25 22.25 30.2574 22.25 31.5C22.25 32.7426 21.2427 33.75 20 33.75C18.7573 33.75 17.75 32.7426 17.75 31.5Z" fill="#1F1F1F"/>
<path fill-rule="evenodd" clip-rule="evenodd" d="M13 30.75C12.5858 30.75 12.25 31.0858 12.25 31.5C12.25 31.9142 12.5858 32.25 13 32.25C13.4142 32.25 13.75 31.9142 13.75 31.5C13.75 31.0858 13.4142 30.75 13 30.75ZM10.75 31.5C10.75 30.2574 11.7573 29.25 13 29.25C14.2426 29.25 15.25 30.2573 15.25 31.5C15.25 32.7427 14.2426 33.75 13 33.75C11.7573 33.75 10.75 32.7426 10.75 31.5Z" fill="#1F1F1F"/>
<path fill-rule="evenodd" clip-rule="evenodd" d="M19.25 25.5432V28.25H20.75V25.5432C21.4043 25.877 22.1034 25.9297 22.671 25.936L22.672 25.936C23.0157 25.9393 23.2753 25.9301 23.4913 25.9223C24.0198 25.9034 24.2873 25.8938 24.8867 26.1017C25.6485 26.3659 26.2929 27.1414 26.2475 27.9584L27.7452 28.0416C27.8363 26.4011 26.6131 25.1127 25.3781 24.6845C24.4971 24.379 23.9154 24.4005 23.2889 24.4237L23.2888 24.4237C23.0959 24.4308 22.8986 24.4381 22.6871 24.4361C22.1038 24.4296 21.6543 24.3608 21.3026 24.1326C20.9887 23.9289 20.7579 23.5422 20.7502 23.1724L20.7502 23.137C20.7506 23.1148 20.7518 23.0928 20.7539 23.0708L20.75 23.0704V20.5H19.25V23.0704L19.2461 23.0708C19.2482 23.0928 19.2494 23.1148 19.2498 23.137L19.2498 23.1724C19.2421 23.5422 19.0113 23.9288 18.6973 24.1326C18.3457 24.3608 17.8962 24.4296 17.3129 24.4361C17.1013 24.4381 16.9041 24.4308 16.7111 24.4237C16.0846 24.4005 15.5029 24.379 14.6219 24.6845C13.3869 25.1127 12.1637 26.4011 12.2548 28.0416L13.7525 27.9584C13.7071 27.1414 14.3515 26.3659 15.1134 26.1017C15.7127 25.8938 15.9802 25.9034 16.5087 25.9223H16.5087C16.7247 25.9301 16.9843 25.9393 17.328 25.936L17.329 25.936C17.8965 25.9297 18.5957 25.877 19.25 25.5432Z" fill="#1F1F1F"/>
</svg>
