<svg width="40" height="40" viewBox="0 0 40 40" fill="none" xmlns="http://www.w3.org/2000/svg">
<g opacity="0.5">
<path fill-rule="evenodd" clip-rule="evenodd" d="M8.5 6.75H20C20.4142 6.75 20.75 7.08579 20.75 7.5V12.5H19.25V8.25H8.5V6.75Z" fill="white"/>
<path fill-rule="evenodd" clip-rule="evenodd" d="M19.25 32.5V27.5H20.75V31.75H31.5V33.25H20C19.5858 33.25 19.25 32.9142 19.25 32.5Z" fill="white"/>
<path d="M8.5 9C9.32842 9 10 8.32842 10 7.5C10 6.67157 9.32842 6 8.5 6C7.67158 6 7 6.67157 7 7.5C7 8.32842 7.67158 9 8.5 9Z" fill="white"/>
<path d="M31.5 34C32.3284 34 33 33.3284 33 32.5C33 31.6716 32.3284 31 31.5 31C30.6716 31 30 31.6716 30 32.5C30 33.3284 30.6716 34 31.5 34Z" fill="white"/>
<path fill-rule="evenodd" clip-rule="evenodd" d="M15.037 13.25C14.0501 13.25 13.25 14.0501 13.25 15.037V24.963C13.25 25.9499 14.0501 26.75 15.037 26.75H24.963C25.9499 26.75 26.75 25.9499 26.75 24.963V15.037C26.75 14.0501 25.9499 13.25 24.963 13.25H15.037ZM11.75 15.037C11.75 13.2216 13.2216 11.75 15.037 11.75H24.963C26.7784 11.75 28.25 13.2216 28.25 15.037V24.963C28.25 26.7784 26.7784 28.25 24.963 28.25H15.037C13.2216 28.25 11.75 26.7784 11.75 24.963V15.037Z" fill="white"/>
<path d="M17 20.7001H19.992L18.8118 24L23 19.2999H20.0112L21.1914 16L17 20.7001Z" fill="white"/>
</g>
</svg>
