<svg width="40" height="40" viewBox="0 0 40 40" fill="none" xmlns="http://www.w3.org/2000/svg">
<mask id="mask0_1933_63800" style="mask-type:alpha" maskUnits="userSpaceOnUse" x="0" y="0" width="40" height="40">
<rect width="40" height="40" fill="white"/>
</mask>
<g mask="url(#mask0_1933_63800)">
<path fill-rule="evenodd" clip-rule="evenodd" d="M10.5 31.75L19.5 31.75L19.5 33.25L10.5 33.25C9.25736 33.25 8.25 32.2426 8.25 31L8.25 13.6893L15.1893 6.75L28.5 6.75C29.7426 6.75 30.75 7.75735 30.75 9L30.75 20.9615L29.25 20.9615L29.25 9C29.25 8.58578 28.9142 8.25 28.5 8.25L15.8107 8.25L9.75 14.3107L9.75 31C9.75 31.4142 10.0858 31.75 10.5 31.75Z" fill="#1F1F1F"/>
<path fill-rule="evenodd" clip-rule="evenodd" d="M16.25 14.75L9.5 14.75L9.5 13.25L14.75 13.25L14.75 8L16.25 8L16.25 14.75Z" fill="#1F1F1F"/>
<path d="M22.9919 33.32C22.8799 33.32 22.8359 33.26 22.8599 33.14L25.6439 23.132C25.6679 23.044 25.7239 23 25.8119 23L27.0479 23C27.1599 23 27.2039 23.06 27.1799 23.18L24.3959 33.188C24.3719 33.276 24.3159 33.32 24.2279 33.32L22.9919 33.32Z" fill="#06C755"/>
<path d="M28.9069 31.088C28.7869 31.144 28.7269 31.108 28.7269 30.98L28.7269 29.696C28.7269 29.608 28.7669 29.544 28.8469 29.504L31.6309 28.172L28.8469 26.84C28.7669 26.8 28.7269 26.736 28.7269 26.648L28.7269 25.34C28.7269 25.212 28.7869 25.176 28.9069 25.232L33.7909 27.656C33.8629 27.688 33.8989 27.752 33.8989 27.848L33.8989 28.472C33.8989 28.56 33.8629 28.624 33.7909 28.664L28.9069 31.088Z" fill="#06C755"/>
</g>
</svg>
