<svg width="40" height="40" viewBox="0 0 40 40" fill="none" xmlns="http://www.w3.org/2000/svg">
<g opacity="0.5">
<g clip-path="url(#clip0_576_21829)">
<path d="M12.6407 19.3411C12.8588 18.5605 13.2067 17.918 13.6956 17.3911C13.6601 17.3014 13.6402 17.2048 13.6402 17.1047V14.9624C11.3608 16.357 10.6503 18.4984 10.4712 20.4579L12.2504 19.4437C12.3716 19.3747 12.5057 19.3411 12.6407 19.3411Z" fill="white"/>
<path d="M16.1386 27.7994C16.9919 28.3988 17.9585 28.7851 18.9788 28.9395L19.0013 23.3646C19.0022 23.0869 18.855 22.8299 18.6145 22.6902L13.031 19.4474C12.9107 19.3775 12.7757 19.3422 12.6407 19.3413C12.5066 19.3413 12.3716 19.3749 12.2504 19.4439L10.4712 20.4582L6.64102 22.641C6.39871 22.779 6.249 23.0352 6.24813 23.3129L6.22217 29.7537C6.22131 30.0314 6.36842 30.2884 6.609 30.4281L12.1925 33.6709C12.433 33.8106 12.7307 33.8124 12.9722 33.6744L18.1169 30.742C17.0109 30.498 15.9621 30.0383 15.0214 29.3776C14.5844 29.0706 14.4797 28.4678 14.7877 28.0322C15.0958 27.5967 15.7007 27.4923 16.1377 27.7994H16.1386ZM12.6113 26.5591L12.5905 31.664L8.16496 29.0939L8.18573 23.9891L12.6321 21.4543L17.0576 24.0244L12.6113 26.5591Z" fill="white"/>
<path d="M23.8637 14.5637C24.7256 14.8199 25.604 15.2873 26.3932 15.8928V10.6637C26.3932 10.386 26.2443 10.129 26.0029 9.99017L20.4065 6.77064C20.165 6.63179 19.8682 6.63179 19.6268 6.77064L14.0294 9.99103C13.788 10.1299 13.6392 10.3869 13.6392 10.6646V17.1045C13.6392 17.2046 13.6591 17.3012 13.6945 17.3909C13.7586 17.5513 13.8745 17.6884 14.0286 17.7772L19.625 20.9976C19.8665 21.1365 20.1633 21.1365 20.4047 20.9976L25.7779 17.9057C24.9809 17.1425 24.061 16.6379 23.3081 16.4146C22.7949 16.2619 22.5033 15.7246 22.6565 15.2132C22.8096 14.7017 23.3488 14.4111 23.8619 14.5637H23.8637ZM20.0162 13.8841V18.989L15.5802 16.4361V11.3313L20.0162 8.77843L24.4521 11.3313L20.0162 13.8841Z" fill="white"/>
<path d="M27.7625 17.1971C27.3618 16.7185 26.8954 16.2786 26.3935 15.8931C25.6051 15.2877 24.7259 14.8202 23.8639 14.5641C23.3508 14.4114 22.8116 14.7021 22.6585 15.2135C22.5053 15.7249 22.7969 16.2622 23.3101 16.4149C24.063 16.6383 24.9829 17.1428 25.7799 17.9061C26.236 18.3433 26.6531 18.8643 26.975 19.4671L27.0113 19.4464C27.2528 19.3076 27.5496 19.3076 27.791 19.4464L29.3643 20.352C29.0935 19.2118 28.556 18.145 27.7616 17.198L27.7625 17.1971Z" fill="white"/>
<path d="M33.3883 22.6668L27.7918 19.4464C27.5504 19.3076 27.2536 19.3076 27.0121 19.4464L26.9758 19.4671L21.4157 22.6668C21.1742 22.8057 21.0254 23.0627 21.0254 23.3404V28.9394C21.7013 28.8359 22.3546 28.6315 22.9656 28.3297V24.0079L23.9452 23.4439H23.9582L27.4015 21.4628L27.6075 21.581L29.5477 22.697C29.5477 22.697 29.5477 22.6918 29.5477 22.6901L30.857 23.4439L31.8366 24.0079L31.8297 24.0114L31.8366 24.0148L27.4007 26.5599V31.6648L24.2334 29.8424C23.5021 30.2529 22.7198 30.5539 21.9055 30.7359L27.0104 33.6734C27.2518 33.8123 27.5487 33.8123 27.7901 33.6734L33.3865 30.453C33.628 30.3142 33.7768 30.0571 33.7768 29.7794V23.3387C33.7768 23.061 33.628 22.8039 33.3865 22.6651L33.3883 22.6668Z" fill="white"/>
<path d="M25.1985 28.0406C24.8913 27.6042 24.2864 27.4989 23.8485 27.8051C23.5655 28.0035 23.2704 28.1777 22.965 28.3286C22.3531 28.6305 21.7006 28.8349 21.0248 28.9384C20.6881 28.9901 20.3446 29.016 19.9984 29.016C19.6523 29.016 19.3139 28.9901 18.9781 28.9392C17.9587 28.7849 16.9912 28.3985 16.138 27.7991C15.7009 27.492 15.096 27.5955 14.788 28.0319C14.4799 28.4675 14.5837 29.0703 15.0216 29.3774C15.9623 30.0389 17.0111 30.4977 18.1171 30.7417C18.7298 30.8772 19.3589 30.947 19.9984 30.947C20.6379 30.947 21.2853 30.8754 21.9057 30.7357C22.7201 30.5529 23.5024 30.2527 24.2336 29.8422C24.4829 29.7025 24.726 29.5507 24.9623 29.386C25.4002 29.0789 25.5057 28.477 25.1985 28.0406Z" fill="white"/>
</g>
</g>
<defs>
<clipPath id="clip0_576_21829">
<rect width="27.5556" height="27.1111" fill="white" transform="translate(6.22217 6.6665)"/>
</clipPath>
</defs>
</svg>
