<svg width="40" height="40" viewBox="0 0 40 40" fill="none" xmlns="http://www.w3.org/2000/svg">
<g clip-path="url(#clip0_818_20805)">
<path d="M12.6407 19.3412C12.8588 18.5607 13.2067 17.9181 13.6956 17.3912C13.6601 17.3015 13.6402 17.2049 13.6402 17.1048V14.9625C11.3608 16.3571 10.6503 18.4986 10.4712 20.4581L12.2504 19.4438C12.3716 19.3748 12.5057 19.3412 12.6407 19.3412Z" fill="black"/>
<path d="M16.1386 27.7992C16.9919 28.3986 17.9585 28.785 18.9788 28.9394L19.0013 23.3645C19.0022 23.0868 18.855 22.8298 18.6145 22.6901L13.031 19.4473C12.9107 19.3774 12.7757 19.342 12.6407 19.3412C12.5066 19.3412 12.3716 19.3748 12.2504 19.4438L10.4712 20.4581L6.64102 22.6409C6.39871 22.7789 6.249 23.0351 6.24813 23.3128L6.22217 29.7535C6.22131 30.0313 6.36842 30.2883 6.609 30.428L12.1925 33.6708C12.433 33.8105 12.7307 33.8122 12.9722 33.6742L18.1169 30.7419C17.0109 30.4978 15.9621 30.0381 15.0214 29.3775C14.5844 29.0705 14.4797 28.4676 14.7877 28.0321C15.0958 27.5966 15.7007 27.4922 16.1377 27.7992H16.1386ZM12.6113 26.559L12.5905 31.6639L8.16496 29.0938L8.18573 23.9889L12.6321 21.4542L17.0576 24.0243L12.6113 26.559Z" fill="black"/>
<path d="M23.8637 14.5641C24.7256 14.8203 25.604 15.2877 26.3932 15.8931V10.6641C26.3932 10.3864 26.2443 10.1294 26.0029 9.99054L20.4065 6.77101C20.165 6.63216 19.8682 6.63216 19.6268 6.77101L14.0294 9.9914C13.788 10.1303 13.6392 10.3873 13.6392 10.665V17.1049C13.6392 17.2049 13.6591 17.3015 13.6945 17.3912C13.7586 17.5516 13.8745 17.6888 14.0286 17.7776L19.625 20.998C19.8665 21.1368 20.1633 21.1368 20.4047 20.998L25.7779 17.9061C24.9809 17.1428 24.061 16.6383 23.3081 16.4149C22.7949 16.2623 22.5033 15.725 22.6565 15.2135C22.8096 14.7021 23.3488 14.4115 23.8619 14.5641H23.8637ZM20.0162 13.8845V18.9893L15.5802 16.4365V11.3316L20.0162 8.77879L24.4521 11.3316L20.0162 13.8845Z" fill="black"/>
<path d="M27.7625 17.1971C27.3618 16.7185 26.8954 16.2786 26.3935 15.8931C25.6051 15.2877 24.7259 14.8202 23.8639 14.5641C23.3508 14.4114 22.8116 14.7021 22.6585 15.2135C22.5053 15.7249 22.7969 16.2622 23.3101 16.4149C24.063 16.6383 24.9829 17.1428 25.7799 17.9061C26.236 18.3433 26.6531 18.8643 26.975 19.4671L27.0113 19.4464C27.2528 19.3076 27.5496 19.3076 27.791 19.4464L29.3643 20.352C29.0935 19.2118 28.556 18.145 27.7616 17.198L27.7625 17.1971Z" fill="black"/>
<path d="M33.3883 22.6668L27.7918 19.4464C27.5504 19.3076 27.2536 19.3076 27.0121 19.4464L26.9758 19.4671L21.4157 22.6668C21.1742 22.8057 21.0254 23.0627 21.0254 23.3404V28.9394C21.7013 28.8359 22.3546 28.6315 22.9656 28.3297V24.0079L23.9452 23.4439H23.9582L27.4015 21.4628L27.6075 21.581L29.5477 22.697C29.5477 22.697 29.5477 22.6918 29.5477 22.6901L30.857 23.4439L31.8366 24.0079L31.8297 24.0114L31.8366 24.0148L27.4007 26.5599V31.6648L24.2334 29.8424C23.5021 30.2529 22.7198 30.5539 21.9055 30.7359L27.0104 33.6734C27.2518 33.8123 27.5487 33.8123 27.7901 33.6734L33.3865 30.453C33.628 30.3142 33.7768 30.0571 33.7768 29.7794V23.3387C33.7768 23.061 33.628 22.8039 33.3865 22.6651L33.3883 22.6668Z" fill="black"/>
<path d="M25.1985 28.0407C24.8913 27.6043 24.2864 27.4991 23.8485 27.8052C23.5655 28.0036 23.2704 28.1778 22.965 28.3287C22.3531 28.6306 21.7006 28.835 21.0248 28.9385C20.6881 28.9902 20.3446 29.0161 19.9984 29.0161C19.6523 29.0161 19.3139 28.9902 18.9781 28.9394C17.9587 28.785 16.9912 28.3986 16.138 27.7992C15.7009 27.4922 15.096 27.5957 14.788 28.0321C14.4799 28.4676 14.5837 29.0704 15.0216 29.3775C15.9623 30.039 17.0111 30.4978 18.1171 30.7419C18.7298 30.8773 19.3589 30.9471 19.9984 30.9471C20.6379 30.9471 21.2853 30.8755 21.9057 30.7358C22.7201 30.553 23.5024 30.2529 24.2336 29.8423C24.4829 29.7026 24.726 29.5508 24.9623 29.3861C25.4002 29.0791 25.5057 28.4771 25.1985 28.0407Z" fill="black"/>
</g>
<defs>
<clipPath id="clip0_818_20805">
<rect width="27.5556" height="27.1111" fill="white" transform="translate(6.22217 6.66663)"/>
</clipPath>
</defs>
</svg>
