<svg width="40" height="40" viewBox="0 0 40 40" fill="none" xmlns="http://www.w3.org/2000/svg">
<path fill-rule="evenodd" clip-rule="evenodd" d="M4.25 8.5C4.25 7.5335 5.0335 6.75 6 6.75H34C34.9665 6.75 35.75 7.5335 35.75 8.5V31.5C35.75 32.4665 34.9665 33.25 34 33.25H6C5.0335 33.25 4.25 32.4665 4.25 31.5V8.5ZM6 8.25C5.86193 8.25 5.75 8.36193 5.75 8.5V31.5C5.75 31.6381 5.86193 31.75 6 31.75H34C34.1381 31.75 34.25 31.6381 34.25 31.5V8.5C34.25 8.36193 34.1381 8.25 34 8.25H6Z" fill="#1F1F1F"/>
<path fill-rule="evenodd" clip-rule="evenodd" d="M4.25 8.5C4.25 7.5335 5.0335 6.75 6 6.75H34C34.9665 6.75 35.75 7.5335 35.75 8.5V13.5C35.75 13.9142 35.4142 14.25 35 14.25H5C4.58579 14.25 4.25 13.9142 4.25 13.5V8.5ZM6 8.25C5.86193 8.25 5.75 8.36193 5.75 8.5V12.75H34.25V8.5C34.25 8.36193 34.1381 8.25 34 8.25H6Z" fill="#1F1F1F"/>
<path d="M31.5 11.5C32.0523 11.5 32.5 11.0523 32.5 10.5C32.5 9.94772 32.0523 9.5 31.5 9.5C30.9477 9.5 30.5 9.94772 30.5 10.5C30.5 11.0523 30.9477 11.5 31.5 11.5Z" fill="#1DCC64"/>
<path fill-rule="evenodd" clip-rule="evenodd" d="M27 10.5C27 9.94546 27.45 9.5 28 9.5C28.5545 9.5 29 9.94546 29 10.5C29 11.0546 28.5545 11.5 28 11.5C27.4455 11.5 27 11.0546 27 10.5ZM27.6499 10.5C27.6499 10.695 27.8099 10.85 27.9999 10.85C28.1949 10.85 28.3499 10.695 28.3499 10.5C28.3499 10.305 28.1949 10.15 27.9999 10.15C27.8049 10.15 27.6499 10.305 27.6499 10.5Z" fill="black"/>
<path fill-rule="evenodd" clip-rule="evenodd" d="M17.1701 20.49C17.4018 20.7805 17.354 21.2039 17.0635 21.4356L15.0787 23.0181L17.0639 24.604C17.3543 24.8359 17.4017 25.2593 17.1697 25.5497C16.9378 25.84 16.5144 25.8874 16.224 25.6554L13.5801 23.5434C13.4201 23.4156 13.3271 23.222 13.3271 23.0173C13.3272 22.8127 13.4205 22.6191 13.5805 22.4915L16.2245 20.3834C16.515 20.1517 16.9384 20.1994 17.1701 20.49Z" fill="#1F1F1F"/>
<path fill-rule="evenodd" clip-rule="evenodd" d="M22.8341 20.4896C23.066 20.1992 23.4894 20.1518 23.7798 20.3837L26.4199 22.4918C26.5797 22.6195 26.6728 22.8128 26.6729 23.0173C26.673 23.2219 26.58 23.4153 26.4203 23.5431L23.7803 25.6551C23.4901 25.8873 23.0666 25.8402 22.8345 25.55C22.6023 25.2599 22.6494 24.8364 22.9396 24.6043L24.9222 23.0181L22.94 21.4353C22.6496 21.2034 22.6022 20.78 22.8341 20.4896Z" fill="#1F1F1F"/>
<path fill-rule="evenodd" clip-rule="evenodd" d="M19.2045 18.8391C19.5695 18.7694 19.922 19.0088 19.9917 19.3738L21.335 26.4088C21.4047 26.7738 21.1653 27.1263 20.8003 27.196C20.4352 27.2657 20.0828 27.0262 20.0131 26.6612L18.6698 19.6262C18.6001 19.2612 18.8395 18.9088 19.2045 18.8391Z" fill="#1F1F1F"/>
</svg>
