<svg width="40" height="40" viewBox="0 0 40 40" fill="none" xmlns="http://www.w3.org/2000/svg">
<path d="M11.5 16.5C11.5 16.9142 11.1642 17.25 10.75 17.25C10.3358 17.25 10 16.9142 10 16.5C10 16.0858 10.3358 15.75 10.75 15.75C11.1642 15.75 11.5 16.0858 11.5 16.5Z" fill="#06C755"/>
<path d="M11.5 23C11.5 23.4142 11.1642 23.75 10.75 23.75C10.3358 23.75 10 23.4142 10 23C10 22.5858 10.3358 22.25 10.75 22.25C11.1642 22.25 11.5 22.5858 11.5 23Z" fill="#06C755"/>
<path d="M11.5 29.5C11.5 29.9142 11.1642 30.25 10.75 30.25C10.3358 30.25 10 29.9142 10 29.5C10 29.0858 10.3358 28.75 10.75 28.75C11.1642 28.75 11.5 29.0858 11.5 29.5Z" fill="#06C755"/>
<path fill-rule="evenodd" clip-rule="evenodd" d="M9.44057 9.30959C8.92556 9.7662 8.75 10.1702 8.75 10.5C8.75 10.8298 8.92556 11.2338 9.44057 11.6904C9.95472 12.1462 10.7415 12.591 11.7781 12.9797C13.8457 13.7551 16.7524 14.25 20 14.25C23.2476 14.25 26.1543 13.7551 28.2219 12.9797C29.2585 12.591 30.0453 12.1462 30.5594 11.6904C31.0744 11.2338 31.25 10.8298 31.25 10.5C31.25 10.1702 31.0744 9.7662 30.5594 9.30959C30.0453 8.85375 29.2585 8.40899 28.2219 8.02027C26.1543 7.2449 23.2476 6.75 20 6.75C16.7524 6.75 13.8457 7.2449 11.7781 8.02027C10.7415 8.40899 9.95472 8.85375 9.44057 9.30959ZM11.2514 6.61577C13.5269 5.76245 16.6202 5.25 20 5.25C23.3798 5.25 26.4731 5.76245 28.7486 6.61577C29.8836 7.04139 30.8542 7.56629 31.5545 8.1872C32.254 8.80734 32.75 9.58717 32.75 10.5C32.75 11.4128 32.254 12.1927 31.5545 12.8128C30.8542 13.4337 29.8836 13.9586 28.7486 14.3842C26.4731 15.2375 23.3798 15.75 20 15.75C16.6202 15.75 13.5269 15.2375 11.2514 14.3842C10.1164 13.9586 9.14579 13.4337 8.44546 12.8128C7.74601 12.1927 7.25 11.4128 7.25 10.5C7.25 9.58717 7.74601 8.80734 8.44546 8.1872C9.14579 7.56629 10.1164 7.04139 11.2514 6.61577Z" fill="#1F1F1F"/>
<path fill-rule="evenodd" clip-rule="evenodd" d="M11.7781 25.9797C13.8457 26.7551 16.7524 27.25 20 27.25C23.2476 27.25 26.1543 26.7551 28.2219 25.9797C29.2585 25.591 30.0453 25.1462 30.5594 24.6904C31.0744 24.2338 31.25 23.8298 31.25 23.5H32.75C32.75 24.4128 32.254 25.1927 31.5545 25.8128C30.8542 26.4337 29.8836 26.9586 28.7486 27.3842C26.4731 28.2375 23.3798 28.75 20 28.75C16.6202 28.75 13.5269 28.2375 11.2514 27.3842C10.1164 26.9586 9.14579 26.4337 8.44546 25.8128C7.74601 25.1927 7.25 24.4128 7.25 23.5H8.75C8.75 23.8298 8.92556 24.2338 9.44057 24.6904C9.95472 25.1462 10.7415 25.591 11.7781 25.9797Z" fill="#1F1F1F"/>
<path fill-rule="evenodd" clip-rule="evenodd" d="M8.75 10.5V30C8.75 30.3298 8.92556 30.7338 9.44057 31.1904C9.95472 31.6462 10.7415 32.091 11.7781 32.4797C13.8457 33.2551 16.7524 33.75 20 33.75C23.2476 33.75 26.1543 33.2551 28.2219 32.4797C29.2585 32.091 30.0453 31.6462 30.5594 31.1904C31.0744 30.7338 31.25 30.3298 31.25 30V10.5H32.75V30C32.75 30.9128 32.254 31.6927 31.5545 32.3128C30.8542 32.9337 29.8836 33.4586 28.7486 33.8842C26.4731 34.7375 23.3798 35.25 20 35.25C16.6202 35.25 13.5269 34.7375 11.2514 33.8842C10.1164 33.4586 9.14579 32.9337 8.44546 32.3128C7.74601 31.6927 7.25 30.9128 7.25 30V10.5H8.75Z" fill="#1F1F1F"/>
<path fill-rule="evenodd" clip-rule="evenodd" d="M11.7781 19.4797C13.8457 20.2551 16.7524 20.75 20 20.75C23.2476 20.75 26.1543 20.2551 28.2219 19.4797C29.2585 19.091 30.0453 18.6462 30.5594 18.1904C31.0744 17.7338 31.25 17.3298 31.25 17H32.75C32.75 17.9128 32.254 18.6927 31.5545 19.3128C30.8542 19.9337 29.8836 20.4586 28.7486 20.8842C26.4731 21.7375 23.3798 22.25 20 22.25C16.6202 22.25 13.5269 21.7375 11.2514 20.8842C10.1164 20.4586 9.14579 19.9337 8.44546 19.3128C7.74601 18.6927 7.25 17.9128 7.25 17H8.75C8.75 17.3298 8.92556 17.7338 9.44057 18.1904C9.95472 18.6462 10.7415 19.091 11.7781 19.4797Z" fill="#1F1F1F"/>
</svg>
