<?xml version="1.0" standalone="no"?>
<!DOCTYPE svg PUBLIC "-//W3C//DTD SVG 1.1//EN" "http://www.w3.org/Graphics/SVG/1.1/DTD/svg11.dtd" >
<svg xmlns="http://www.w3.org/2000/svg">
<metadata>
LAICON Bold Version 16.17
Copyright (c) LINE Corporation
</metadata>
<defs>
  <font id="laicon-bold" horiz-adv-x="1024">
    <font-face font-family="laicon-regular"
      units-per-em="1024" ascent="896"
      descent="128"
      font-weight="700"
      font-style="Bold" />
    <missing-glyph horiz-adv-x="1024" /><glyph unicode="&#x20;" horiz-adv-x="512" d="" />
    <glyph glyph-name="address-book"
      unicode="&#xE15D;"
      horiz-adv-x="1024" d="M228 751V17H907V751H228zM152 763C152 799 180 827 216 827H920C955 827 984 799 984 763V5C984 -31 955 -59 920 -59H216C180 -59 152 -31 152 5V763zM488 532A37 37 0 0 0 488 530V518L483 511A66 66 0 0 1 481 506A59 59 0 0 1 480 498C480 497 480 496 480 496C480 493 481 490 481 489A9 9 0 0 1 482 487L483 487L492 482L497 473C508 452 516 439 523 427C530 420 534 411 536 405C540 396 541 387 542 378C543 369 543 360 541 350C539 343 535 328 521 318L521 317L398 233L398 233C392 229 384 222 377 214C374 211 372 208 371 205A15 15 0 0 1 370 204V193H765V204A14 14 0 0 1 764 206C763 208 761 211 758 214C752 222 744 229 738 233L738 233L615 318C601 327 597 342 595 350C593 359 593 369 593 377C594 386 596 395 599 404C601 410 605 419 611 427C618 438 626 451 638 473L642 482L651 487L652 487L653 488L653 488C653 488 653 488 653 488A7 7 0 0 1 654 490C655 491 655 493 656 496A21 21 0 0 1 656 498A55 55 0 0 1 654 505A65 65 0 0 1 652 511L647 518V530C647 530 647 531 647 532C647 578 607 614 568 614C529 614 488 577 488 532zM416 538C420 621 491 686 568 686C645 686 714 620 719 538C719 538 719 537 719 537C721 533 722 528 724 523C726 514 729 500 727 486C724 466 716 452 707 441A72 72 0 0 0 696 431A771 771 0 0 0 670 386L668 382L667 381L666 381A37 37 0 0 1 665 372A32 32 0 0 1 665 371L778 292C789 285 802 274 813 260C823 249 837 229 837 205V121H299V205C299 229 313 249 323 261C334 274 347 285 358 292L471 370A33 33 0 0 1 471 371C470 375 470 378 469 380C469 380 469 380 469 380L467 381L465 386C457 398 449 411 438 431A71 71 0 0 0 427 441C418 452 411 467 409 486C407 499 409 513 411 522A134 134 0 0 0 416 538zM416 527L416 527L416 527zM35 246H223V169H35V246zM35 593H223V517H35V593z" />
    <glyph glyph-name="album"
      unicode="&#xE000;"
      horiz-adv-x="1024" d="M630 498C630 531 657 558 690 558S750 531 750 498S723 438 690 438S630 465 630 498zM524 508L710 217H338L524 508zM207 750V18H884V750H207zM131 763C131 798 159 827 195 827H897C933 827 961 798 961 763V5C961 -30 933 -59 897 -59H195C159 -59 131 -30 131 5V763zM23 246H169V169H23V246zM23 593H169V516H23V593z" />
    <glyph glyph-name="antenna"
      unicode="&#xE001;"
      horiz-adv-x="1024" d="M474 -119V427H550V-119H474zM512 515C561 515 600 475 600 427C600 378 561 338 512 338C463 338 424 378 424 427C424 475 463 515 512 515zM625 173V261C678 297 713 358 713 427C713 537 623 627 512 627C401 627 311 537 311 427C311 358 346 297 399 261V173C302 216 235 314 235 427C235 580 359 704 512 704C665 704 789 580 789 427C789 314 722 216 625 173zM625 -7V73C775 121 883 261 883 427C883 632 717 798 512 798S141 632 141 427C141 261 249 121 399 73V-7C206 43 64 218 64 427C64 674 265 875 512 875S960 674 960 427C960 218 818 43 625 -7z" />
    <glyph glyph-name="arrow-down"
      unicode="&#xE003;"
      horiz-adv-x="1024" d="M512 59H512L864 394L917 338L512 -46L107 338L160 394L512 59zM474 19V794H550V19H474z" />
    <glyph glyph-name="arrow-down-circle"
      unicode="&#xE002;"
      horiz-adv-x="1024" d="M512 786A402 402 0 0 1 228 100A402 402 0 0 1 512 -18A402 402 0 0 1 796 668A402 402 0 0 1 512 786zM33 384A479 479 0 1 0 991 384A479 479 0 0 0 33 384zM550 263V640H473V264L385 347L332 291L512 122L692 291L639 347L550 263H550z" />
    <glyph glyph-name="arrow-left"
      unicode="&#xE005;"
      horiz-adv-x="1024" d="M224 346L522 32L466 -21L82 384L466 789L522 736L224 422H922V346H224z" />
    <glyph glyph-name="arrow-left-circle"
      unicode="&#xE004;"
      horiz-adv-x="1024" d="M914 384A402 402 0 0 1 512 786A402 402 0 1 1 914 384zM512 863A479 479 0 1 0 512 -95A479 479 0 0 0 512 863zM391 346H768V423H392L475 511L419 564L250 384L419 204L475 257L391 346L391 346z" />
    <glyph glyph-name="arrow-left-up"
      unicode="&#xE24E;"
      horiz-adv-x="1024" d="M192 704H742V627H269V154H192V704zM766 75L203 638L258 693L821 130L766 75z" />
    <glyph glyph-name="arrow-out-square"
      unicode="&#xE006;"
      horiz-adv-x="1024" d="M481 403L882 804L936 749L535 348L481 403zM889 757H661V833H966V530H889V757zM141 678V25C141 19 143 16 145 14A17 17 0 0 1 156 10H799C807 10 812 12 814 14C816 17 817 18 817 19V427H894V19C894 -30 850 -67 799 -67H156C113 -67 64 -34 64 25V680C64 706 79 726 92 739C107 752 128 764 152 764H560V687H153A9 9 0 0 1 150 687A23 23 0 0 1 145 683A20 20 0 0 1 141 678zM140 677L140 678L140 677z" />
    <glyph glyph-name="arrow-right"
      unicode="&#xE008;"
      horiz-adv-x="1024" d="M836 384L502 736L558 789L942 384L558 -21L502 32L836 384zM877 422V346H102V422H877z" />
    <glyph glyph-name="arrow-right-circle"
      unicode="&#xE007;"
      horiz-adv-x="1024" d="M110 384A402 402 0 1 1 914 384A402 402 0 0 1 110 384zM512 -95A479 479 0 0 0 33 384A479 479 0 1 0 512 -95zM633 422H256V345H632L549 257L605 204L774 384L605 564L549 511L633 422V422z" />
    <glyph glyph-name="arrow-right-up"
      unicode="&#xE288;"
      horiz-adv-x="1024" d="M755 573L258 75L203 130L701 627H282V704H832V154H755V573z" />
    <glyph glyph-name="arrow-to-down"
      unicode="&#xE009;"
      horiz-adv-x="1024" d="M513 220L270 450L323 506L513 326L701 505L754 450L513 220zM550 735V282H473V735H550zM922 38H102V115H922V38z" />
    <glyph glyph-name="arrow-to-left"
      unicode="&#xE00A;"
      horiz-adv-x="1024" d="M490 346H863V423H491L634 573L578 626L348 383L578 142L633 195L490 346zM166 -26V794H243V-26H166z" />
    <glyph glyph-name="arrow-to-right"
      unicode="&#xE00B;"
      horiz-adv-x="1024" d="M534 346H161V423H533L390 573L446 626L676 383L446 142L391 195L534 346zM858 -26V794H781V-26H858z" />
    <glyph glyph-name="arrow-to-top"
      unicode="&#xE00C;"
      horiz-adv-x="1024" d="M550 406V33H473V405L323 262L270 318L513 548L754 318L701 263L550 406zM922 730H102V653H922V730z" />
    <glyph glyph-name="arrow-turn-down-right"
      unicode="&#xE296;"
      horiz-adv-x="1024" d="M166 742V461A294 294 0 0 1 461 166H752L613 27L667 -27L899 205L667 437L613 382L752 243H461A218 218 0 0 0 243 461V742H166z" />
    <glyph glyph-name="arrow-u-turn-right"
      unicode="&#xE297;"
      horiz-adv-x="1024" d="M243 486A218 218 0 0 0 678 486V154L565 268L510 214L717 7L923 214L869 268L755 154V486A294 294 0 0 1 166 486V128H243V486z" />
    <glyph glyph-name="arrow-up"
      unicode="&#xE00E;"
      horiz-adv-x="1024" d="M512 709L160 374L107 430L512 814L917 430L864 374L512 708L512 709zM474 749H550V-26H474V749z" />
    <glyph glyph-name="arrow-up-circle"
      unicode="&#xE00D;"
      horiz-adv-x="1024" d="M512 -18A402 402 0 0 1 796 668A402 402 0 1 1 512 -18zM991 384A479 479 0 0 0 851 45A479 479 0 0 0 173 45A479 479 0 0 0 512 863A479 479 0 0 0 991 384zM474 505V128H551V504L639 421L692 477L512 646L332 477L385 421L474 505H474z" />
    <glyph glyph-name="arrows-diagonal-in"
      unicode="&#xE00F;"
      horiz-adv-x="1024" d="M371 525V707H448V448H189V525H371zM653 243V61H576V320H835V243H653zM925 -83L587 254L642 309L979 -29L925 -83zM382 459L45 797L99 851L437 514L382 459z" />
    <glyph glyph-name="arrows-diagonal-out"
      unicode="&#xE010;"
      horiz-adv-x="1024" d="M398 444L60 782L114 836L452 498L398 444zM910 -68L572 270L626 324L964 -14L910 -68zM899 -3V179H975V-79H717V-3H899zM125 771V589H49V847H307V771H125z" />
    <glyph glyph-name="arrows-up-down"
      unicode="&#xE20A;"
      horiz-adv-x="1024" d="M328 742V48H251V742H328zM290 102L418 230L472 176L290 -7L107 176L162 230L290 102zM696 26V720H773V26H696zM734 666L606 538L552 592L734 775L917 592L862 538L734 666V666z" />
    <glyph glyph-name="asterisk"
      unicode="&#xE1E0;"
      horiz-adv-x="1024" d="M474 76V692H550V76H474zM760 197L226 505L264 571L798 263L760 197zM760 197L226 505L264 571L798 263L760 197zM798 505L264 197L226 263L760 571L798 505z" />
    <glyph glyph-name="astronaut"
      unicode="&#xE173;"
      horiz-adv-x="1024" d="M517 261C374 261 256 369 256 507C256 645 374 753 517 753S778 640 778 507C778 374 660 261 517 261zM517 676C415 676 333 599 333 507C333 415 415 338 517 338S701 415 701 507C701 599 620 676 517 676zM916 -87H118C97 -87 77 -72 77 -46C77 67 82 159 164 205C169 230 179 251 200 266C189 282 179 307 174 333C113 353 102 430 102 486C102 558 113 599 138 625C148 635 159 640 174 645C215 794 343 876 517 876C696 876 819 794 860 645C876 640 886 635 896 625C922 599 932 553 932 486C932 430 922 358 860 333C855 312 845 287 829 261C850 246 860 225 865 200C963 148 957 41 952 -51C957 -72 937 -87 916 -87zM154 -10H881C881 77 870 123 819 138C804 143 794 159 794 179C794 195 783 210 768 210S737 225 732 241C727 256 737 276 753 282C763 287 783 333 788 369C794 384 804 399 819 399C829 399 850 404 850 486C850 558 835 573 835 573C814 568 794 584 788 604V609C763 737 671 804 517 804C323 804 261 696 241 609C236 584 215 568 200 568C195 568 179 553 179 481C179 399 200 399 210 394C225 394 241 379 241 364C246 328 261 297 287 271C302 261 307 246 302 230C297 215 282 205 266 205C251 205 241 195 241 179S236 143 215 138C174 123 159 87 154 -10zM758 -46H681V20C681 26 676 31 671 31H358C353 31 348 26 348 20V-46H266V20C266 72 307 113 358 113H666C717 113 758 72 758 20V-46zM616 612L555 565L605 500L666 547L616 612z" />
    <glyph glyph-name="astronauts"
      unicode="&#xE1F2;"
      horiz-adv-x="1024" d="M768 67C753 108 727 133 701 154C707 164 712 169 717 179C742 189 763 220 763 266V271C763 307 763 348 737 374C732 379 727 384 722 384C686 471 609 522 512 522C415 522 338 471 302 384C297 379 292 379 287 374C256 348 256 302 256 266V261C256 220 276 189 307 179C312 174 317 164 323 154C297 138 271 108 256 67C241 36 241 -56 241 -87C241 -108 256 -123 282 -123H748C768 -123 783 -108 788 -87C783 -56 783 36 768 67zM553 -46H476V-31H553V-46zM625 -46V10C625 31 609 51 584 51H430C410 51 389 36 389 10V-46H317C317 -10 323 31 328 41C348 92 399 113 399 113C415 118 425 133 425 148C425 164 415 179 399 184C389 189 374 210 369 225C364 241 353 246 338 251C338 251 333 256 333 266V271C333 282 333 307 338 317C353 323 364 328 369 343C379 384 415 451 512 451S645 384 655 343C660 328 671 317 686 317C691 307 691 282 691 271V266C691 256 691 256 686 251C671 251 660 241 655 225C650 210 635 189 625 184C609 179 599 164 599 148C599 133 609 118 625 113C625 113 676 97 696 41C701 31 701 -5 707 -46H625zM189 266C189 287 189 312 195 338H82C82 374 87 404 87 415C108 461 154 476 154 481C174 486 184 502 184 517C184 532 174 548 159 553C148 558 138 573 133 589C128 604 113 614 102 614V671C118 676 128 681 128 696C138 732 174 794 261 794C348 794 384 732 394 696C399 681 410 676 420 671V614C404 614 394 604 389 589C394 579 384 563 374 558C415 579 456 589 497 589C502 599 502 609 502 625V630C502 660 502 701 476 727C471 732 466 737 461 737C430 824 358 876 261 876S97 824 61 742C56 737 51 737 46 732C20 707 20 666 20 630V625C20 584 41 553 67 543C72 538 77 532 82 522C61 507 36 481 20 440C10 410 5 328 5 297C5 276 20 261 46 261H189V266zM1004 445C988 481 963 507 942 527C947 532 952 543 957 548C983 558 1004 589 1004 630C1004 660 1004 701 978 727C973 737 968 737 963 742C927 824 855 876 763 876C671 876 594 824 558 742C553 737 548 737 543 732C517 707 517 666 517 635V630C517 614 522 604 522 594C568 594 609 584 645 563C635 568 630 584 625 594C620 604 609 614 594 620V671C609 676 620 681 620 696C630 732 666 794 753 794C845 794 876 732 886 696C891 681 901 676 911 671V614C896 614 886 604 881 589C876 573 860 553 855 553C840 548 829 532 829 517C829 502 840 486 855 481C855 481 901 466 922 415C927 404 927 374 927 338H814C819 312 819 287 819 266V261H963C983 261 998 276 1004 297C1019 333 1019 415 1004 445z" />
    <glyph glyph-name="at-mark"
      unicode="&#xE011;"
      horiz-adv-x="1024" d="M166 384A346 346 0 1 0 849 309C846 292 837 267 822 248C808 229 791 218 768 218A38 38 0 0 0 730 256V538A38 38 0 0 1 654 549A218 218 0 1 1 658 222A115 115 0 0 1 768 141C822 141 860 170 884 201C907 232 919 268 924 292A422 422 0 1 1 512 -38A38 38 0 0 1 512 38A346 346 0 0 0 166 384zM653 384A141 141 0 1 0 371 384A141 141 0 0 0 653 384z" />
    <glyph glyph-name="backward-layer"
      unicode="&#xE012;"
      horiz-adv-x="1024" d="M266 486C266 559 325 617 397 617H691V742C691 778 663 806 627 806H141C105 806 77 778 77 742V282C77 246 105 218 141 218H266V486zM333 486C333 522 361 550 397 550H883C919 550 947 522 947 486V26C947 -10 919 -38 883 -38H397C361 -38 333 -10 333 26V486zM410 474V38H870V474H410z" />
    <glyph glyph-name="balloons"
      unicode="&#xE225;"
      horiz-adv-x="1024" d="M719 315L567 -97A38 38 0 0 0 495 -97L348 308L420 334L531 28L647 341L719 315zM648 644A455 455 0 0 1 622 726C669 765 732 786 803 772C876 759 926 709 952 649C979 589 982 517 963 451C924 317 789 240 678 270C644 279 614 298 590 323C606 345 619 369 630 395C648 369 672 351 698 344C764 326 861 374 890 472C904 522 901 576 882 618C864 660 832 689 789 697C733 707 683 686 648 644zM152 702C128 646 123 575 142 508C180 377 308 313 398 337C484 361 550 474 523 608C496 743 396 831 277 808C219 797 176 758 152 702zM81 732C114 807 175 867 263 884C437 916 566 783 599 623C631 463 556 301 418 263C282 226 117 322 69 487C45 569 50 659 81 732zM187 695C222 762 275 775 302 780L313 709C298 706 270 700 250 662C238 639 236 605 242 575L172 561C164 600 164 652 187 695z" />
    <glyph glyph-name="barometer-speed"
      unicode="&#xE20D;"
      horiz-adv-x="1024" d="M320 116C386 54 475 15 573 15C777 15 942 180 942 384S777 753 573 753C475 753 386 714 320 652L262 709C343 787 453 835 573 835C822 835 1024 633 1024 384C1024 135 822 -67 573 -67C453 -67 343 -19 262 59L320 116zM573 415A31 31 0 1 1 573 353A31 31 0 0 1 573 415zM461 384C461 446 511 497 573 497C636 497 686 446 686 384C686 322 636 271 573 271C511 271 461 322 461 384zM379 471H97V553H379V471zM282 343H0V425H282V343zM594 459L740 593L796 533L650 399L594 459zM379 215H97V297H379V215z" />
    <glyph glyph-name="bars"
      unicode="&#xE013;"
      horiz-adv-x="1024" d="M870 346H154V422H870V346zM870 48H154V125H870V48zM870 643H154V720H870V643z" />
    <glyph glyph-name="bars-check"
      unicode="&#xE213;"
      horiz-adv-x="1024" d="M861 663H77V740H861V663zM488 44H77V121H488V44zM861 353H77V430H861V353zM745 54L969 277L1023 223L745 -55L562 129L616 183L745 54z" />
    <glyph glyph-name="bars-music"
      unicode="&#xE22A;"
      horiz-adv-x="1024" d="M819 709H35V786H819V709zM409 90H35V167H409V90zM35 400H599V476H35V400zM533 123A141 141 0 0 0 601 243A141 141 0 0 0 738 248V530C738 584 805 610 841 569L985 409L927 358L815 483V123A141 141 0 0 0 674 -18A141 141 0 0 0 533 123zM674 187A64 64 0 0 1 674 59A64 64 0 1 1 674 187z" />
    <glyph glyph-name="bars-plus"
      unicode="&#xE22F;"
      horiz-adv-x="1024" d="M886 663H102V740H886V663zM514 44H102V121H514V44zM973 44H614V121H973V44zM755 -97V262H832V-97H755zM886 353H102V430H886V353z" />
    <glyph glyph-name="baseball-ball"
      unicode="&#xE014;"
      horiz-adv-x="1024" d="M512 781C293 781 115 603 115 384S293 -13 512 -13S909 165 909 384S731 781 512 781zM38 384C38 646 250 858 512 858S986 646 986 384S774 -90 512 -90S38 122 38 384zM253 625A38 38 0 0 0 307 618C322 599 336 579 347 557A38 38 0 0 0 280 521A345 345 0 0 1 247 571A38 38 0 0 0 253 625zM349 450A38 38 0 0 0 393 417A427 427 0 0 0 397 344A38 38 0 0 0 320 346A350 350 0 0 1 317 407A38 38 0 0 0 349 450zM345 250A38 38 0 0 0 366 200A422 422 0 0 0 333 135A38 38 0 1 0 268 175A345 345 0 0 1 295 229A38 38 0 0 0 345 250zM767 622A38 38 0 0 0 775 568A345 345 0 0 1 746 524A38 38 0 1 0 679 561A422 422 0 0 0 714 614A38 38 0 0 0 767 622zM674 445A38 38 0 0 0 707 402A351 351 0 0 1 704 351A38 38 0 1 0 627 349A429 429 0 0 0 631 412A38 38 0 0 0 674 445zM680 246A38 38 0 0 0 731 225C737 209 745 194 754 179A38 38 0 0 0 689 139A422 422 0 0 0 660 195A38 38 0 0 0 680 246z" />
    <glyph glyph-name="beauty"
      unicode="&#xE270;"
      horiz-adv-x="1024" d="M512 704C321 704 166 549 166 358V153A289 289 0 0 0 118 -8L109 -21A38 38 0 0 0 56 -32A38 38 0 0 0 45 21L54 35A212 212 0 0 1 90 153V358C90 592 279 781 512 781A38 38 0 0 0 550 742A38 38 0 0 0 512 704zM896 397A38 38 0 0 0 934 358V153A289 289 0 0 0 886 -8L877 -21A38 38 0 0 0 824 -32A38 38 0 0 0 813 21L822 35A213 213 0 0 1 858 153V358A38 38 0 0 0 896 397zM243 358A38 38 0 0 0 282 397H742A38 38 0 0 0 781 358V230C781 82 660 -38 512 -38C364 -38 243 82 243 230V358zM320 320V230C320 124 406 38 512 38C618 38 704 124 704 230V320H320zM744 815A17 17 0 0 1 710 815L709 807A85 85 0 0 0 631 729L623 729A17 17 0 0 1 623 695L631 694A85 85 0 0 0 709 616L710 608A17 17 0 0 1 744 608L745 616A85 85 0 0 0 823 694L831 695A17 17 0 0 1 831 729L823 729A85 85 0 0 0 745 807L744 815zM893 615A13 13 0 0 1 868 615L867 609A64 64 0 0 0 809 551L803 550A13 13 0 0 1 803 525L809 524A64 64 0 0 0 867 466L868 460A13 13 0 0 1 893 460L894 466A64 64 0 0 0 952 524L958 525A13 13 0 0 1 958 550L952 551A64 64 0 0 0 894 609L893 615z" />
    <glyph glyph-name="beer"
      unicode="&#xE1B1;"
      horiz-adv-x="1024" d="M870 138H783V215H870C876 215 881 220 881 225V507C881 512 876 517 870 517H783V594H870C916 594 957 553 957 507V225C957 179 916 138 870 138zM737 -97H261C215 -97 174 -56 174 -10V323H256V-10C256 -15 261 -20 266 -20H737C742 -20 748 -15 748 -10V604H819V-10C819 -56 783 -97 737 -97zM276 292C133 292 72 399 72 507C72 568 108 630 164 655C189 758 271 835 369 855C466 876 568 840 630 763C650 768 676 773 701 768C788 758 819 676 819 604V563H609C512 563 486 507 456 440C430 374 394 292 276 292zM425 788C410 788 399 788 384 783C307 768 246 701 236 625L230 599L210 594C169 579 143 543 143 507C143 486 148 369 271 369C338 369 353 404 384 471C420 543 461 640 609 640H737C732 666 717 691 686 696C666 701 635 691 630 686L599 671L579 696C548 758 486 788 425 788zM461 205H384V92H461V205zM614 415H538V87H614V415z" />
    <glyph glyph-name="beginner-mark"
      unicode="&#xE2B2;"
      horiz-adv-x="1024" d="M919 707C919 830 783 905 679 838L512 732L345 838C241 905 105 830 105 707V224A141 141 0 0 1 168 107L440 -73A131 131 0 0 1 584 -73L856 107A141 141 0 0 1 919 224V707zM720 773C773 807 842 769 842 707V224C842 203 831 182 813 171L550 -3V665L720 774zM474 665V-3L211 171A64 64 0 0 0 182 224V707C182 769 251 807 304 773L474 665z" />
    <glyph glyph-name="bell"
      unicode="&#xE015;"
      horiz-adv-x="1024" d="M512 831A357 357 0 0 1 155 474V239C155 181 137 127 106 82A38 38 0 0 1 138 22H474V-81H550V22H886A38 38 0 0 1 918 82A279 279 0 0 0 869 239V474A357 357 0 0 1 512 831zM232 474A280 280 0 0 0 792 474V239C792 189 803 142 821 99H203A356 356 0 0 1 232 239V474z" />
    <glyph glyph-name="bell-slash"
      unicode="&#xE29F;"
      horiz-adv-x="1024" d="M820 654A357 357 0 0 1 155 474V239C155 181 137 127 106 82A38 38 0 0 1 138 22H188L116 -50L170 -104L964 690L910 744L820 654zM264 99H203A356 356 0 0 1 232 239V474A280 280 0 0 0 764 598L264 99zM869 474A366 366 0 0 1 869 487L792 410V239C792 189 803 142 821 98H481L404 22H474V-81H550V22H886A38 38 0 0 1 918 82A279 279 0 0 0 869 239V474z" />
    <glyph glyph-name="bicycle"
      unicode="&#xE016;"
      horiz-adv-x="1024" d="M232 402C146 402 77 332 77 246S146 91 232 91S388 160 388 246S318 402 232 402zM0 246C0 375 104 479 232 479C361 479 465 375 465 246C465 118 361 14 232 14C104 14 0 118 0 246zM792 402C706 402 636 332 636 246S706 91 792 91S947 160 947 246S878 402 792 402zM559 246C559 375 663 479 792 479C920 479 1024 375 1024 246C1024 118 920 14 792 14C663 14 559 118 559 246zM518 716A38 38 0 0 0 556 754H648L827 259A38 38 0 0 0 756 233L594 677H556A38 38 0 0 0 518 716zM319 597H670A38 38 0 0 0 670 520H373L268 233A38 38 0 0 0 196 259L319 597z" />
    <glyph glyph-name="billing-document"
      unicode="&#xE017;"
      horiz-adv-x="1024" d="M96 759C96 817 143 864 201 864H765C823 864 870 817 870 759V302H793V759A28 28 0 0 1 765 787H201A28 28 0 0 1 173 759V53A28 28 0 0 1 201 25H494V-52H201C143 -52 96 -5 96 53V759zM647 547H319V624H647V547zM647 367H319V444H647V367zM607 179C611 176 619 173 629 170C654 162 690 156 732 156C774 156 811 162 836 170C846 173 853 176 858 179C853 182 846 185 836 189C811 197 774 202 732 202C690 202 654 197 629 189C619 185 611 182 607 179zM611 242C643 253 686 259 732 259S821 253 853 242C869 237 884 230 895 222C907 213 919 199 919 179S907 145 895 137C884 128 869 121 853 116C821 106 778 100 732 100S643 106 611 116C595 121 580 128 569 137C558 145 545 159 545 179S558 213 569 222C580 230 595 237 611 242zM602 -2A24 24 0 0 1 603 -3C607 -6 616 -10 629 -15C654 -23 690 -28 732 -28C774 -28 811 -23 836 -15C849 -10 857 -6 861 -3A24 24 0 0 1 863 -2V179H919V-5C919 -25 907 -39 895 -47C884 -56 869 -63 853 -68C821 -79 778 -84 732 -84S643 -79 611 -68C595 -63 580 -56 569 -47C558 -39 545 -25 545 -5V179H602V-2zM864 0A1 1 0 0 0 864 0A1 1 0 0 0 864 0zM601 0A1 1 0 0 0 600 0A1 1 0 0 0 601 0zM629 78C654 69 690 64 732 64C774 64 811 69 836 78C849 82 857 86 861 90A17 17 0 0 1 864 92C863 91 863 90 863 87H919C919 67 907 53 895 45C884 36 869 29 853 24C821 14 778 8 732 8S643 14 611 24C595 29 580 36 569 45C558 53 545 67 545 87H602C602 90 601 91 601 92A17 17 0 0 1 603 90C607 86 616 82 629 78zM600 92A1 1 0 0 0 601 92A1 1 0 0 0 600 92zM864 92A1 1 0 0 0 864 92A1 1 0 0 0 864 92z" />
    <glyph glyph-name="bitcoin"
      unicode="&#xE018;"
      horiz-adv-x="1024" d="M405 525V605H481V525H405zM510 525V605H586V525H510zM405 156V235H481V156H405zM510 156V235H586V156H510zM368 563H547C608 563 658 514 658 452S608 342 547 342H443V418H547A34 34 0 0 1 547 487H368V563zM443 418H572C634 418 683 369 683 308S634 197 572 197H368V273H572A34 34 0 1 1 572 342H443V418zM405 235V525H481V235H405zM512 786C290 786 110 606 110 384S290 -18 512 -18S914 162 914 384S734 786 512 786zM33 384C33 648 248 863 512 863S991 648 991 384C991 120 776 -95 512 -95S33 120 33 384z" />
    <glyph glyph-name="block-quote-text"
      unicode="&#xE2A3;"
      horiz-adv-x="1024" d="M123 740H901V663H123V740zM133 440H210V10H133V440zM901 346H358V422H901V346zM901 28H358V105H901V28z" />
    <glyph glyph-name="book"
      unicode="&#xE1EA;"
      horiz-adv-x="1024" d="M388 512H163V589H388V512zM388 360H163V437H388V360zM388 208H163V285H388V208zM860 512H635V589H860V512zM860 360H635V437H860V360zM860 208H635V285H860V208zM474 648C474 722 532 785 607 785H918C968 785 1006 743 1006 695V105C1006 57 968 16 918 16H593C578 16 564 11 554 5A97 97 0 0 1 542 -3A80 80 0 0 1 539 -6A38 38 0 0 0 512 -17H512A38 38 0 0 0 476 8A38 38 0 0 0 474 23V648zM550 86A146 146 0 0 0 593 93H918C923 93 929 97 929 105V695C929 704 923 708 918 708H607C577 708 550 683 550 648V86zM106 708C101 708 95 704 95 695V105C95 97 101 93 106 93H432C446 93 460 91 474 86V644C474 681 445 708 414 708H106zM512 21V21C485 -6 485 -6 485 -6L485 -6L485 -6L485 -6L485 -6L485 -6L485 -6A62 62 0 0 1 482 -3A96 96 0 0 1 470 5C460 11 446 16 432 16H106C56 16 18 57 18 105V695C18 743 56 785 106 785H414C491 785 551 721 551 644V21H512z" />
    <glyph glyph-name="book-push"
      unicode="&#xE240;"
      horiz-adv-x="1024" d="M876 768C876 813 839 850 794 850H218C151 850 97 796 97 730V38C97 -28 151 -82 218 -82H684A239 239 0 0 0 621 -5H218A44 44 0 0 0 218 82H595A241 241 0 0 0 594 104C594 123 596 141 600 159H218C202 159 188 156 174 151V730A44 44 0 0 0 218 773H794A5 5 0 0 0 799 768V340A240 240 0 0 0 832 343C847 343 861 341 876 339V768zM832 -88C726 -88 640 -2 640 104C640 210 726 296 832 296S1024 210 1024 104C1024 -2 938 -88 832 -88zM810 137V-7H856V137L911 83L943 116L833 226L724 116L756 83L810 137z" />
    <glyph glyph-name="border-all"
      unicode="&#xE019;"
      horiz-adv-x="1024" d="M38 858H986V-90H38V858zM115 781V-13H909V781H115zM474 -51V819H550V-51H474zM77 422H947V346H77V422z" />
    <glyph glyph-name="border-bottom"
      unicode="&#xE01A;"
      horiz-adv-x="1024" d="M141 832H64V755H141V832zM346 832H269V755H346V832zM550 832H474V755H550V832zM755 832H678V755H755V832zM960 832H883V755H960V832zM141 627H64V550H141V627zM550 627H474V550H550V627zM960 627H883V550H960V627zM346 423H269V346H346V423zM755 423H678V346H755V423zM141 422H64V346H141V422zM550 422H474V346H550V422zM960 422H883V346H960V422zM141 218H64V141H141V218zM550 218H474V141H550V218zM960 218H883V141H960V218zM960 13H64V-64H960V13z" />
    <glyph glyph-name="border-center-horizontal"
      unicode="&#xE01B;"
      horiz-adv-x="1024" d="M141 832H64V755H141V832zM346 832H269V755H346V832zM550 832H474V755H550V832zM755 832H678V755H755V832zM960 832H883V755H960V832zM141 627H64V550H141V627zM550 627H474V550H550V627zM960 627H883V550H960V627zM960 423H64V346H960V423zM141 218H64V141H141V218zM550 218H474V141H550V218zM960 218H883V141H960V218zM346 14H269V-63H346V14zM755 14H678V-63H755V14zM141 13H64V-64H141V13zM550 13H474V-64H550V13zM960 13H883V-64H960V13z" />
    <glyph glyph-name="border-center-vertical"
      unicode="&#xE01C;"
      horiz-adv-x="1024" d="M141 832H64V755H141V832zM346 832H269V755H346V832zM551 832H474V-64H551V832zM755 832H678V755H755V832zM960 832H883V755H960V832zM142 627H65V550H142V627zM960 627H883V550H960V627zM141 422H64V346H141V422zM346 422H269V346H346V422zM755 422H678V346H755V422zM960 422H883V346H960V422zM142 218H65V141H142V218zM960 218H883V141H960V218zM141 13H64V-64H141V13zM346 13H269V-64H346V13zM755 13H678V-64H755V13zM960 13H883V-64H960V13z" />
    <glyph glyph-name="border-inner"
      unicode="&#xE01D;"
      horiz-adv-x="1024" d="M140 832H64V755H140V832zM345 832H268V755H345V832zM551 832H474V422H64V346H474V-64H551V346H960V422H551V832zM755 832H678V755H755V832zM960 832H883V755H960V832zM141 627H64V550H141V627zM960 627H883V550H960V627zM141 218H64V141H141V218zM960 218H883V141H960V218zM140 13H64V-64H140V13zM345 13H268V-64H345V13zM755 13H678V-64H755V13zM960 13H883V-64H960V13z" />
    <glyph glyph-name="border-left"
      unicode="&#xE01E;"
      horiz-adv-x="1024" d="M141 832H64V-64H141V832zM346 832H269V755H346V832zM550 832H474V755H550V832zM755 832H678V755H755V832zM960 832H883V755H960V832zM550 627H474V550H550V627zM960 627H883V550H960V627zM346 423H269V346H346V423zM550 423H474V346H550V423zM755 423H678V346H755V423zM960 423H883V346H960V423zM550 218H474V141H550V218zM960 218H883V141H960V218zM346 13H269V-64H346V13zM550 13H474V-64H550V13zM755 13H678V-64H755V13zM960 13H883V-64H960V13z" />
    <glyph glyph-name="border-none"
      unicode="&#xE01F;"
      horiz-adv-x="1024" d="M141 832H64V755H141V832zM346 832H269V755H346V832zM550 832H473V755H550V832zM755 832H678V755H755V832zM960 832H883V755H960V832zM142 627H65V550H142V627zM550 627H474V550H550V627zM960 627H883V550H960V627zM141 422H64V346H141V422zM346 422H269V346H346V422zM550 422H473V346H550V422zM755 422H678V346H755V422zM960 422H883V346H960V422zM142 218H65V141H142V218zM550 218H474V141H550V218zM960 218H883V141H960V218zM141 13H64V-64H141V13zM346 13H269V-64H346V13zM550 13H473V-64H550V13zM755 13H678V-64H755V13zM960 13H883V-64H960V13z" />
    <glyph glyph-name="border-outer"
      unicode="&#xE020;"
      horiz-adv-x="1024" d="M550 627H474V550H550V627zM346 422H269V346H346V422zM550 422H473V346H550V422zM755 422H678V346H755V422zM550 218H474V141H550V218zM960 832H64V-64H960V832zM141 13V755H883V13H141z" />
    <glyph glyph-name="border-right"
      unicode="&#xE021;"
      horiz-adv-x="1024" d="M141 832H64V755H141V832zM346 832H269V755H346V832zM550 832H474V755H550V832zM755 832H678V755H755V832zM960 832H883V-64H960V832zM141 627H64V550H141V627zM550 627H474V550H550V627zM141 423H64V346H141V423zM346 423H269V346H346V423zM550 423H474V346H550V423zM755 423H678V346H755V423zM141 218H64V141H141V218zM550 218H474V141H550V218zM141 13H64V-64H141V13zM346 13H269V-64H346V13zM550 13H474V-64H550V13zM755 13H678V-64H755V13z" />
    <glyph glyph-name="border-style"
      unicode="&#xE023;"
      horiz-adv-x="1024" d="M64 -64H141V755H960V832H64V-64zM474 550H550V627H474V550zM269 346H346V423H269V346zM474 346H550V423H474V346zM755 346V423H678V346H755zM550 141V218H474V141H550zM269 -64H346V13H269V-64zM550 -64V13H474V-64H550zM678 -64H755V13H678V-64zM883 -64H960V13H883V-64zM883 346H960V423H883V346zM883 218V141H960V218H883zM883 550H960V627H883V550z" />
    <glyph glyph-name="border-style-alt"
      unicode="&#xE022;"
      horiz-adv-x="1024" d="M141 832H64V755H141V832zM346 832H269V755H346V832zM550 832H474V755H550V832zM755 832H678V755H755V832zM960 832H883V13H64V-64H960V832zM141 627H64V550H141V627zM550 627H474V550H550V627zM141 422H64V345H141V422zM346 422H269V345H346V422zM550 422H474V345H550V422zM755 422H678V345H755V422zM141 218H64V141H141V218zM550 218H474V141H550V218z" />
    <glyph glyph-name="border-top"
      unicode="&#xE024;"
      horiz-adv-x="1024" d="M960 832H64V755H960V832zM141 627H64V550H141V627zM550 627H473V550H550V627zM960 627H883V550H960V627zM141 422H64V346H141V422zM346 422H269V346H346V422zM550 422H473V346H550V422zM755 422H678V346H755V422zM960 422H883V346H960V422zM141 218H64V141H141V218zM550 218H473V141H550V218zM960 218H883V141H960V218zM141 13H64V-64H141V13zM346 13H269V-64H346V13zM550 13H473V-64H550V13zM755 13H678V-64H755V13zM960 13H883V-64H960V13z" />
    <glyph glyph-name="box"
      unicode="&#xE026;"
      horiz-adv-x="1024" d="M236 795A90 90 0 0 0 300 822H724C748 822 771 812 788 795L952 631A90 90 0 0 0 978 567L978 37C978 -13 938 -54 888 -54H136C86 -54 46 -13 46 37V567C46 591 55 614 72 631L236 795zM300 745A13 13 0 0 1 291 741L126 577A13 13 0 0 1 122 567V37C122 29 128 23 136 23H888A13 13 0 0 1 902 37L902 567A13 13 0 0 1 898 577L733 741A13 13 0 0 1 724 745H300zM940 550H84V627H940V550z" />
    <glyph glyph-name="box-check"
      unicode="&#xE025;"
      horiz-adv-x="1024" d="M478 260L640 423L694 369L478 152L330 300L384 354L478 260zM236 795A90 90 0 0 0 300 822H724A90 90 0 0 0 788 795L952 631A90 90 0 0 0 978 567L978 37C978 -13 938 -54 888 -54H136C86 -54 46 -13 46 37V567C46 591 55 614 72 631L236 795zM300 745A13 13 0 0 1 291 741L126 577A13 13 0 0 1 122 567V37C122 29 128 23 136 23H888A13 13 0 0 1 902 37L902 567A13 13 0 0 1 898 577L733 741A13 13 0 0 1 724 745H300zM940 550H84V627H940V550z" />
    <glyph glyph-name="boxes-3"
      unicode="&#xE1E5;"
      horiz-adv-x="1024" d="M466 824C492 840 527 840 558 824L717 732C742 717 763 686 763 655V471C763 440 748 410 717 394L558 302C532 287 497 287 471 302L307 394C282 410 261 440 261 471V655C261 686 276 717 307 732L466 824zM517 758H507L379 686L512 609L517 614L645 686L517 758zM686 620L558 548C553 548 553 543 553 538V384L681 456C686 456 686 461 686 466V620zM476 384V538L338 620V471C338 466 338 461 343 461L476 384zM681 461C707 476 742 476 768 461L927 369C952 353 973 323 973 292V108C973 77 957 46 927 31L768 -67C742 -82 707 -82 676 -67L517 26C492 41 471 72 471 102V287C471 317 486 348 517 364L681 461zM732 394H722L594 323L727 246L732 251L860 323L732 394zM896 251L768 179C763 179 763 174 763 169V20L891 92C896 92 896 97 896 102V251zM686 20V174L553 251V102C553 97 553 92 558 92L686 20zM256 461C282 476 317 476 343 461L502 369C527 353 548 323 548 292V108C548 77 532 46 502 31L343 -61C317 -77 282 -77 251 -61L97 26C67 41 51 72 51 108V292C51 323 67 353 97 369L256 461zM307 394H297L169 323L302 246L307 251L435 323L307 394zM476 251L343 179C338 179 338 174 338 169V20L466 92C471 92 471 97 471 102V251H476zM261 20V174L128 251V102C128 97 128 92 133 92L261 20z" />
    <glyph glyph-name="brackets-curly-i"
      unicode="&#xE2AD;"
      horiz-adv-x="1024" d="M115 640A141 141 0 0 0 256 781H307V704H256C221 704 192 675 192 640V461C192 431 181 404 163 384C181 364 192 337 192 307V128C192 93 221 64 256 64H282V-13H256A141 141 0 0 0 115 128V307A38 38 0 0 1 77 345L51 346V422L77 423A38 38 0 0 1 115 461V640zM909 640A141 141 0 0 1 768 781H717V704H768C803 704 832 675 832 640V461C832 431 843 404 861 384A115 115 0 0 1 832 307V128C832 93 803 64 768 64H742V-13H768A141 141 0 0 1 909 128V307A38 38 0 0 0 947 345L973 346V422L947 423A38 38 0 0 0 909 461V640zM474 476V118H550V476H474zM512 635A51 51 0 1 1 512 532A51 51 0 0 1 512 635z" />
    <glyph glyph-name="briefcase"
      unicode="&#xE185;"
      horiz-adv-x="1024" d="M137 598V26H887V598H137zM60 611C60 647 89 675 124 675H900C935 675 964 647 964 611V13C964 -22 935 -51 900 -51H124C89 -51 60 -22 60 13V611zM401 765V637H324V778C324 813 353 842 388 842H636C671 842 700 813 700 778V637H623V765H401z" />
    <glyph glyph-name="browser"
      unicode="&#xE027;"
      horiz-adv-x="1024" d="M123 706A304 304 0 0 1 123 703V70C123 67 123 64 123 62C126 62 130 61 134 61L901 61A152 152 0 0 1 901 70V703A217 217 0 0 1 901 707H134C130 707 126 707 123 706zM900 716L900 716L900 716zM134 783H906C927 783 951 778 966 755C978 737 978 715 978 703V70C978 57 977 36 967 18C962 7 953 -2 941 -8C930 -13 918 -15 906 -15L134 -15C123 -15 112 -15 102 -13C91 -11 78 -7 67 3C55 14 51 27 49 38C47 48 46 59 46 70V703C46 713 47 725 49 735C51 746 57 760 70 770C82 779 95 781 104 782C113 783 124 783 134 783zM939 479H85V556H939V479zM250 665H173V588H250V665zM367 665H290V588H367V665z" />
    <glyph glyph-name="browser-arrow-up"
      unicode="&#xE2B6;"
      horiz-adv-x="1024" d="M173 665H250V588H173V665zM290 665H367V588H290V665zM123 479V70C123 67 123 64 123 62C126 62 130 61 135 61H666V-15H135C123 -15 112 -15 102 -13A66 66 0 0 0 67 3A63 63 0 0 0 49 38A170 170 0 0 0 46 70V703C46 713 47 725 49 735C51 746 57 760 70 770A67 67 0 0 0 104 782C113 783 124 783 134 783H906C927 783 951 778 966 755C978 737 978 715 978 703V307H901V479H123zM123 703V556H901V703L901 707H135L123 707V703zM882 130L922 90L976 144L844 277L711 144L766 90L805 129V-11H882V130z" />
    <glyph glyph-name="browser-times"
      unicode="&#xE2B5;"
      horiz-adv-x="1024" d="M173 665H250V588H173V665zM290 665H367V588H290V665zM123 479V70C123 67 123 64 123 62C126 62 130 61 134 61H653V-15H134C123 -15 112 -15 102 -13A66 66 0 0 0 67 3A63 63 0 0 0 49 38A170 170 0 0 0 46 70V703C46 713 46 725 49 735C51 746 57 760 70 770A67 67 0 0 0 104 782C113 783 124 783 134 783H906C926 783 951 778 966 755C978 737 978 715 978 703V307H901V479H123zM123 703V556H901V707H134L123 707V703zM1016 203L926 114L1016 24L962 -30L872 59L782 -30L728 24L818 114L728 203L782 257L872 168L962 258L1016 203z" />
    <glyph glyph-name="brush"
      unicode="&#xE028;"
      horiz-adv-x="1024" d="M155 158H905V81H155V158zM535 796C499 797 470 768 470 733V415A38 38 0 0 0 450 381L191 244A13 13 0 0 1 184 233V120C184 62 175 9 165 -34L846 -34A5 5 0 0 1 850 -32A4 4 0 0 1 851 -30L851 -30C859 2 871 64 871 120V232A13 13 0 0 1 864 244L617 374A38 38 0 0 0 597 408V725C597 764 567 794 537 796L535 796zM846 -110L122 -110C102 -110 90 -99 84 -92A38 38 0 0 0 79 -58C92 -15 107 49 107 120V233C107 266 125 296 155 312L393 438V733C393 811 458 874 537 873L540 873A39 39 0 0 0 541 873C617 869 674 800 674 725V431L900 312A90 90 0 0 0 947 232V120C947 55 934 -13 926 -47C917 -85 884 -110 846 -110z" />
    <glyph glyph-name="bts-skytrain"
      unicode="&#xE029;"
      horiz-adv-x="1024" d="M694 803A4 4 0 0 1 690 800A4 4 0 0 1 690 799C690 797 692 795 694 795H870C893 795 912 776 912 753A42 42 0 0 0 886 714A42 42 0 0 0 870 710H652V749H870A4 4 0 0 1 873 751A4 4 0 0 1 874 753A4 4 0 0 1 873 755A4 4 0 0 1 870 756H694A42 42 0 0 0 652 799C652 822 670 841 694 841H912V803H694zM112 840H326A42 42 0 0 0 361 775A42 42 0 0 0 326 710H112V840zM328 756A43 43 0 0 0 326 756V756H160V795H326A44 44 0 0 0 328 795A4 4 0 0 1 329 798A4 4 0 0 1 326 802H150V749H326A4 4 0 0 1 329 753A4 4 0 0 1 328 756V756zM641 840H381V802H492V710H530V802H641V840zM562 464C580 440 596 415 611 388C690 477 795 518 910 518V441C809 441 721 404 658 323A339 339 0 0 1 648 310C691 204 716 73 716 -84H639C639 34 624 134 599 218C568 142 550 42 550 -84H474C474 42 456 142 425 218C400 134 385 34 385 -84H308C308 73 333 204 376 310A353 353 0 0 1 366 323C303 404 215 441 114 441V518C229 518 334 477 413 388C428 415 444 440 462 464C364 566 237 611 114 611V688C253 688 399 638 512 522C625 638 771 688 910 688V611C787 611 660 566 562 464zM463 317H463A567 567 0 0 0 512 203C525 245 542 283 561 317C546 348 530 377 512 402C494 377 478 348 463 317z" />
    <glyph glyph-name="building"
      unicode="&#xE218;"
      horiz-adv-x="1024" d="M241 758V10H783V758H241zM215 835H809C837 835 860 812 860 783V-15C860 -44 837 -67 809 -67H215C187 -67 164 -44 164 -15V783C164 812 187 835 215 835zM430 655V589H364V655H430zM655 655V589H589V655H655zM430 507V507V440H364V507H430zM655 507V507V440H589V507H655zM430 353V287H364V353H430zM655 353V287H589V353H655zM468 -67V174H545V-67H468z" />
    <glyph glyph-name="bulb"
      unicode="&#xE21B;"
      horiz-adv-x="1024" d="M666 -110H358V-33H666V-110zM515 781C353 781 223 650 223 489C223 374 289 275 386 227L407 216V95H622V216L643 227C740 275 806 374 806 489C806 650 676 781 515 781zM146 489C146 693 311 858 515 858S883 693 883 489C883 352 809 233 699 170V61C699 37 679 18 655 18H374A44 44 0 0 0 330 61V170C220 233 146 352 146 489z" />
    <glyph glyph-name="calendar"
      unicode="&#xE02B;"
      horiz-adv-x="1024" d="M138 725V33H886V725H138zM61 735C61 772 91 802 128 802H896C933 802 963 772 963 735V24C963 -13 933 -44 896 -44H128C91 -44 61 -13 61 24V735zM100 624H924V548H100V624zM321 881V768H244V881H321zM780 881V768H703V881H780zM807 179H731V102H807V179z" />
    <glyph glyph-name="calendar-check"
      unicode="&#xE02A;"
      horiz-adv-x="1024" d="M141 705V18H883V705H141zM64 718C64 753 93 782 128 782H896C931 782 960 753 960 718V5C960 -30 931 -59 896 -59H128C93 -59 64 -30 64 5V718zM321 891V743H244V891H321zM773 891V743H696V891H773zM470 300L675 505L729 450L470 191L295 366L349 420L470 300z" />
    <glyph glyph-name="camera"
      unicode="&#xE02C;"
      horiz-adv-x="1024" d="M512 572A208 208 0 0 1 304 364A208 208 0 0 1 512 156A208 208 0 0 1 720 364A208 208 0 0 1 512 572zM381 364A132 132 0 0 0 512 496A132 132 0 0 0 643 364A132 132 0 0 0 512 233A132 132 0 0 0 381 364zM389 845C367 845 347 835 335 817L291 754H159A105 105 0 0 1 54 649V79A105 105 0 0 1 159 -26H865A105 105 0 0 1 970 79V650A105 105 0 0 1 865 755L733 754L685 819A65 65 0 0 1 633 845H389zM331 677L395 768H627L694 677L865 678A28 28 0 0 0 893 650V79A28 28 0 0 0 865 51H159A28 28 0 0 0 131 79V649A28 28 0 0 0 159 677H331z" />
    <glyph glyph-name="camera-rotate"
      unicode="&#xE26F;"
      horiz-adv-x="1024" d="M665 544A230 230 0 0 1 282 379H264A18 18 0 0 1 249 350L306 275A18 18 0 0 1 334 275L391 350A18 18 0 0 1 376 379H359A154 154 0 0 0 610 489L665 544zM648 364H665A154 154 0 0 0 414 253L359 199A230 230 0 0 1 742 364H760A18 18 0 0 1 775 392L718 467A18 18 0 0 1 690 467L633 392A18 18 0 0 1 648 364zM389 845C367 845 347 835 335 817L291 754H159A105 105 0 0 1 54 649V79A105 105 0 0 1 159 -26H865A105 105 0 0 1 970 79V650A105 105 0 0 1 865 755L733 754L685 819A65 65 0 0 1 633 845H389zM331 677L395 768H627L694 677L865 678A28 28 0 0 0 893 650V79A28 28 0 0 0 865 51H159A28 28 0 0 0 131 79V649A28 28 0 0 0 159 677H331z" />
    <glyph glyph-name="caret-down"
      unicode="&#xE02D;"
      horiz-adv-x="1024" d="M780 466L512 198L244 466H780z" />
    <glyph glyph-name="caret-left"
      unicode="&#xE02E;"
      horiz-adv-x="1024" d="M594 116V652L326 384L594 116z" />
    <glyph glyph-name="caret-right"
      unicode="&#xE02F;"
      horiz-adv-x="1024" d="M698 384L430 652V116L698 384z" />
    <glyph glyph-name="caret-up"
      unicode="&#xE030;"
      horiz-adv-x="1024" d="M780 302L512 570L244 302H780z" />
    <glyph glyph-name="cart"
      unicode="&#xE171;"
      horiz-adv-x="1024" d="M333 82C379 82 415 46 415 0C415 -46 379 -82 333 -82C287 -82 251 -46 251 0C251 46 287 82 333 82zM794 82C840 82 876 46 876 0C876 -46 840 -82 794 -82C748 -82 712 -46 712 0C712 46 748 82 794 82zM225 189H225L138 640C138 671 164 691 200 691H952C968 691 988 691 998 676C1009 660 1004 640 1004 630L922 189C916 143 881 143 860 143H287C266 143 230 143 225 189zM850 220L927 614H220L297 220H850zM184 399L113 778H10V855H138C159 855 174 840 174 824L251 415L184 399z" />
    <glyph glyph-name="cat-face"
      unicode="&#xE031;"
      horiz-adv-x="1024" d="M70 842A38 38 0 0 0 109 842L332 713H693L916 842A38 38 0 0 0 974 809V382C974 127 767 -79 512 -79C258 -79 51 127 51 382V809A38 38 0 0 0 70 842zM128 742V382C128 170 300 -3 512 -3C725 -3 897 170 897 382V742L722 642A38 38 0 0 0 703 637H322A38 38 0 0 0 303 642L128 742zM548 328V218H477V328H548zM400 195L495 249L530 187L436 133L400 195zM589 133L495 187L530 249L625 195L589 133zM362 480C330 480 305 454 305 423S330 366 362 366C394 366 419 391 419 423S394 480 362 480zM663 480C631 480 606 454 606 423S631 366 663 366C695 366 720 391 720 423S695 480 663 480z" />
    <glyph glyph-name="cc-square"
      unicode="&#xE212;"
      horiz-adv-x="1024" d="M148 753V20H881V753H148zM72 763C72 799 102 824 133 824H891C927 824 952 794 952 763V5C952 -31 922 -56 891 -56H133C97 -56 72 -26 72 5V763zM374 236C440 236 486 271 507 328V338L502 343L445 358H435L430 353C425 343 420 333 410 328C399 323 389 317 379 317C358 317 343 323 333 338C323 348 317 369 317 389S323 430 333 440C343 451 358 461 379 461S415 451 425 435L430 430H435L492 445C497 445 497 445 497 451V461C486 486 471 507 451 517C430 532 404 538 374 538C333 538 297 522 271 497S230 435 230 389C230 348 246 307 271 282C297 251 333 236 374 236zM558 276C584 251 620 236 660 236C727 236 773 271 794 328V338L788 343L732 358H722L717 353C712 343 707 333 696 328C686 323 676 317 666 317C645 317 630 323 620 338C609 348 604 369 604 389S609 430 620 440C630 451 645 461 666 461S701 451 712 435L717 430H722L778 445C783 445 783 445 783 451V461C773 486 758 507 737 517C717 532 691 538 660 538C620 538 584 522 558 497S517 435 517 389C517 338 532 302 558 276z" />
    <glyph glyph-name="chain-circle"
      unicode="&#xE182;"
      horiz-adv-x="1024" d="M431 538C366 473 366 368 431 303C445 289 460 278 477 270L516 308A56 56 0 0 1 530 332A89 89 0 0 0 485 357C450 392 450 449 485 484L557 556C592 591 649 591 684 556C719 521 719 464 684 429L665 411A201 201 0 0 0 672 308L738 375C803 440 803 545 738 610C673 675 568 675 503 610L431 538zM494 436A89 89 0 0 0 539 411C574 376 574 319 539 284L467 212C432 177 375 177 340 212C305 247 305 304 340 339L359 357A201 201 0 0 0 352 460L286 393C221 328 221 223 286 158C351 93 456 93 521 158L593 230C658 295 658 400 593 465A166 166 0 0 1 547 498L508 460A56 56 0 0 1 494 436zM512 786C290 786 110 606 110 384C110 162 290 -18 512 -18C734 -18 914 162 914 384C914 606 734 786 512 786zM33 384C33 648 248 863 512 863S991 648 991 384C991 120 776 -95 512 -95S33 120 33 384z" />
    <glyph glyph-name="chart-area"
      unicode="&#xE032;"
      horiz-adv-x="1024" d="M975 9H43V651H120V86H975V9zM972 528V143H186V417L347 578L465 469L738 762L972 528zM895 496L740 651L469 361L349 471L262 385V220H895V496z" />
    <glyph glyph-name="chart-bar"
      unicode="&#xE033;"
      horiz-adv-x="1024" d="M283 142V356H359V142H283zM973 -8H46V541H123V69H973V-8zM523 142V586H600V142H523zM763 142V770H840V142H763z" />
    <glyph glyph-name="chart-line"
      unicode="&#xE034;"
      horiz-adv-x="1024" d="M975 29H43V672H120V106H975V29zM226 269A38 38 0 0 1 280 269L488 477L621 344L890 613A38 38 0 0 1 836 668L621 453L488 586L226 323A38 38 0 0 1 226 269zM963 533V738H757L963 533z" />
    <glyph glyph-name="chart-pie"
      unicode="&#xE035;"
      horiz-adv-x="1024" d="M493 804V366H931L927 321C906 96 717 -84 486 -84C241 -84 43 115 43 359C43 593 232 788 450 801L493 804zM411 714C256 682 125 534 125 359C125 160 287 -2 486 -2C658 -2 803 121 839 284H411V714zM537 854L580 851C787 837 961 656 980 451L984 407H537V854zM618 764V488H893C862 623 750 736 618 764z" />
    <glyph glyph-name="chart-scatter"
      unicode="&#xE036;"
      horiz-adv-x="1024" d="M975 52H43V695H120V129H975V52zM710 715C676 715 648 688 648 654C648 620 676 592 710 592C744 592 771 620 771 654C771 688 744 715 710 715zM361 685C327 685 300 658 300 624S327 563 361 563S422 590 422 624S395 685 361 685zM300 365C266 365 239 337 239 303C239 270 266 242 300 242S362 270 362 303C362 337 334 365 300 365zM564 471C530 471 503 444 503 410S530 349 564 349C598 349 626 376 626 410S598 471 564 471zM839 343C805 343 778 316 778 282S805 220 839 220S900 248 900 282S873 343 839 343z" />
    <glyph glyph-name="chat"
      unicode="&#xE043;"
      horiz-adv-x="1024" d="M241 666C178 603 141 508 141 387C141 247 221 122 283 47C316 90 369 133 449 133H449L566 134H566C741 134 883 276 883 451C883 548 847 626 786 680C724 735 633 767 517 767C397 767 304 730 241 666zM187 720C267 801 381 844 517 844C647 844 758 807 837 738C916 668 960 568 960 451C960 233 783 57 566 57H566L449 56H449C384 56 345 9 323 -34L298 -83L260 -43C198 24 64 188 64 387C64 524 106 639 187 720z" />
    <glyph glyph-name="chat-all"
      unicode="&#xE037;"
      horiz-adv-x="1024" d="M241 666C178 603 141 508 141 387C141 247 221 122 283 47C316 90 369 133 449 133H449L566 134H566C741 134 883 276 883 451C883 548 847 626 786 680C724 735 633 767 517 767C397 767 304 730 241 666zM187 720C267 801 381 844 517 844C647 844 758 807 837 738C916 668 960 568 960 451C960 233 783 57 566 57H566L449 56H449C384 56 345 9 323 -34L298 -83L260 -43C198 24 64 188 64 387C64 524 106 639 187 720zM716 497H307V573H716V497zM716 311H307V387H716V311z" />
    <glyph glyph-name="chat-all-square"
      unicode="&#xE1C8;"
      horiz-adv-x="1024" d="M723 303H313V380H723V303zM723 490H313V566H723V490zM165 742A13 13 0 0 1 152 730V137C152 131 157 125 164 125A32 32 0 0 0 165 125H249A38 38 0 0 0 288 86V49L345 107A38 38 0 0 0 378 125H858C865 125 871 130 871 137V730A13 13 0 0 1 858 742H165zM395 48L277 -71A38 38 0 0 0 211 -43V48H167A37 37 0 0 0 165 48C115 48 75 88 75 137V730C75 779 115 819 165 819H858C908 819 948 779 948 730V137C948 88 908 48 858 48H395z" />
    <glyph glyph-name="chat-check"
      unicode="&#xE038;"
      horiz-adv-x="1024" d="M447 380L634 566L688 512L447 271L284 434L338 488L447 380zM241 666C178 603 141 508 141 387C141 247 221 122 283 47C316 90 369 133 449 133H449L566 134H566C741 134 883 276 883 451C883 548 847 626 786 680C724 735 633 767 517 767C397 767 304 730 241 666zM187 720C267 801 381 844 517 844C647 844 758 807 837 738C916 668 960 568 960 451C960 233 783 57 566 57H566L449 56H449C384 56 345 9 323 -34L298 -83L260 -43C198 24 64 188 64 387C64 524 106 639 187 720z" />
    <glyph glyph-name="chat-check-square"
      unicode="&#xE1C5;"
      horiz-adv-x="1024" d="M478 383L665 569L719 515L478 274L315 437L370 491L478 383zM165 742H858C865 742 871 737 871 730V137C871 130 865 125 858 125H378A38 38 0 0 1 345 107L288 49V86A38 38 0 0 1 249 125H165L164 125A13 13 0 0 0 152 137V730C152 737 158 742 165 742zM395 48H858C908 48 948 88 948 137V730C948 779 908 819 858 819H165C115 819 75 779 75 730V137C75 88 115 48 165 48A43 43 0 0 1 167 48H211V-43A38 38 0 0 1 277 -71L395 48z" />
    <glyph glyph-name="chat-dot"
      unicode="&#xE039;"
      horiz-adv-x="1024" d="M898 836C865 836 837 809 837 775C837 742 865 714 898 714C932 714 959 742 959 775C959 809 932 836 898 836zM235 626C177 567 142 480 142 368C142 239 215 125 272 55C304 95 353 134 427 134H427L536 134H536C697 134 829 265 829 427C829 517 796 589 739 639C682 689 598 719 490 719C379 719 293 685 235 626zM180 680C256 756 363 796 490 796C612 796 716 762 790 697C864 631 905 537 905 427C905 223 740 57 536 57H536L427 57H427C367 57 332 14 312 -26L287 -75L249 -35C191 27 66 181 66 368C66 496 105 604 180 680z" />
    <glyph glyph-name="chat-edit"
      unicode="&#xE03A;"
      horiz-adv-x="1024" d="M241 666C178 603 141 508 141 387C141 247 221 122 283 47C316 90 369 133 449 133H449L566 134H566C741 134 883 276 883 451C883 548 847 626 786 680C724 735 633 767 517 767C397 767 304 730 241 666zM187 720C267 801 381 844 517 844C647 844 758 807 837 738C916 668 960 568 960 451C960 233 783 57 566 57H566L449 56H449C384 56 345 9 323 -34L298 -83L260 -43C198 24 64 188 64 387C64 524 106 639 187 720zM604 700L755 547L440 235H289V386L604 700zM366 354V311H408L646 548L604 591L366 354z" />
    <glyph glyph-name="chat-edit-square"
      unicode="&#xE1C1;"
      horiz-adv-x="1024" d="M165 742H858C865 742 871 737 871 730V137C871 130 865 125 858 125H378A38 38 0 0 1 345 107L288 49V86A38 38 0 0 1 249 125H165L164 125A13 13 0 0 0 152 137V730C152 737 158 742 165 742zM395 48H858C908 48 948 88 948 137V730C948 779 908 819 858 819H165C115 819 75 779 75 730V137C75 88 115 48 165 48A43 43 0 0 1 167 48H211V-43A38 38 0 0 1 277 -71L395 48zM615 679L763 531L442 210L296 212L294 358L615 679zM615 571L371 327L371 287L411 287L655 531L615 571z" />
    <glyph glyph-name="chat-ellipsis"
      unicode="&#xE03D;"
      horiz-adv-x="1024" d="M324 480C296 480 273 457 273 429C273 400 296 378 324 378S376 400 376 429C376 457 353 480 324 480zM505 480C477 480 454 457 454 429C454 400 477 378 505 378S557 400 557 429C557 457 534 480 505 480zM687 480C658 480 635 457 635 429C635 400 658 378 687 378S738 400 738 429C738 457 715 480 687 480zM239 668C176 605 139 511 139 389C139 249 219 124 281 49C314 92 367 135 447 135H447L564 136H564C739 136 881 278 881 453C881 550 845 628 784 682C722 737 631 770 515 770C395 770 302 732 239 668zM184 723C265 804 379 846 515 846C645 846 756 809 835 740C914 670 958 571 958 453C958 235 781 59 564 59H564L447 58H447C382 58 343 11 321 -32L296 -81L258 -41C195 26 62 190 62 389C62 526 104 642 184 723z" />
    <glyph glyph-name="chat-ellipsis-alt"
      unicode="&#xE03B;"
      horiz-adv-x="1024" d="M28 411C28 651 250 837 512 837C774 837 996 651 996 411C996 171 774 -15 512 -15C444 -15 380 -2 321 20L178 -64A38 38 0 0 0 121 -24L148 131C74 205 28 303 28 411zM512 760C282 760 105 599 105 411C105 320 146 236 216 172A38 38 0 0 0 228 137L211 45L299 96A38 38 0 0 0 333 98C387 75 448 62 512 62C742 62 919 223 919 411C919 599 742 760 512 760zM318 467C288 467 263 442 263 411C263 380 288 355 318 355S374 380 374 411C374 442 349 467 318 467zM512 467C481 467 456 442 456 411C456 380 481 355 512 355S568 380 568 411C568 442 543 467 512 467zM706 467C675 467 650 442 650 411C650 380 675 355 706 355S761 380 761 411C761 442 736 467 706 467z" />
    <glyph glyph-name="chat-ellipsis-circle"
      unicode="&#xE1F4;"
      horiz-adv-x="1024" d="M171 725C260 814 378 863 504 863C629 863 748 814 836 725C985 577 1017 352 918 170L984 -40A38 38 0 0 0 936 -88L726 -23A472 472 0 0 0 503 -79C378 -79 260 -30 171 58C82 147 33 266 33 392C33 518 82 635 171 725L171 725zM225 671C151 596 110 497 110 392C110 286 151 187 225 113C300 38 398 -3 503 -3C573 -3 642 16 702 51A38 38 0 0 0 732 55L889 7L840 163A38 38 0 0 0 844 194C934 348 910 543 782 671C708 745 609 786 504 786C399 786 300 745 225 671zM328 438C298 438 274 414 274 384S298 330 328 330S381 354 381 384S357 438 328 438zM512 438C482 438 458 414 458 384S482 330 512 330S566 354 566 384C566 414 542 438 512 438zM694 438C664 438 640 414 640 384S664 330 694 330C723 330 748 354 748 384S723 438 694 438z" />
    <glyph glyph-name="chat-ellipsis-mobile"
      unicode="&#xE1CC;"
      horiz-adv-x="1024" d="M614 133L579 169C543 210 481 287 481 389C481 532 573 625 717 625C855 625 947 543 947 420C947 307 855 215 742 215H686C681 215 660 215 640 179L614 133zM717 553C614 553 553 492 553 389C553 338 579 287 604 251C625 271 655 282 681 282H737C814 282 870 343 870 415C876 502 814 553 717 553zM492 732H364V671H492V732zM696 148L655 72V26C655 5 640 -15 614 -15H236C215 -15 195 0 195 26V742C195 763 210 783 236 783H614C635 783 655 768 655 742V686C676 686 696 691 717 691H732V742C732 804 681 855 620 855H236C174 855 123 804 123 742V26C123 -36 174 -87 236 -87H614C676 -87 727 -36 727 26V148H696zM799 435C783 435 773 425 773 410S783 384 799 384S824 394 824 410S814 435 799 435zM712 435C696 435 686 425 686 410S696 384 712 384S737 394 737 410S727 435 712 435zM630 379A26 26 0 1 1 630 430A26 26 0 0 1 630 379z" />
    <glyph glyph-name="chat-ellipsis-plus"
      unicode="&#xE03C;"
      horiz-adv-x="1024" d="M271 466C243 466 220 443 220 415S243 364 271 364S322 387 322 415S299 466 271 466zM445 466C417 466 394 443 394 415S417 364 445 364S496 387 496 415S473 466 445 466zM619 466C591 466 568 443 568 415S591 364 619 364S670 387 670 415S647 466 619 466zM191 643C131 583 96 493 96 377C96 245 171 127 230 55C262 96 313 136 389 136H389L548 136L549 60L389 59H389C327 59 290 15 269 -26L244 -75L206 -35C146 30 19 187 19 377C19 509 60 619 137 697C214 775 324 816 454 816C579 816 685 781 761 714C838 647 880 551 880 438V415H803V438C803 531 769 605 711 657C652 708 565 740 454 740C340 740 251 704 191 643zM1024 92H635V168H1024V92zM791 -64V325H868V-64H791z" />
    <glyph glyph-name="chat-ellipsis-square"
      unicode="&#xE1C7;"
      horiz-adv-x="1024" d="M330 482A49 49 0 0 1 282 433A49 49 0 1 1 330 482zM511 482A49 49 0 0 1 463 433A49 49 0 1 1 511 482zM644 433A49 49 0 0 0 693 482A49 49 0 1 0 644 433zM858 48H395L277 -71A38 38 0 0 0 211 -43V48H167A90 90 0 0 0 102 73A90 90 0 0 0 75 137V730C75 779 115 819 165 819H858C908 819 948 779 948 730V137A90 90 0 0 0 858 48zM152 730V137C152 131 157 125 164 124L165 125H249A38 38 0 0 0 288 86V49L345 107A38 38 0 0 0 378 125H858A13 13 0 0 1 871 137V730A13 13 0 0 1 858 742H165A13 13 0 0 1 152 730z" />
    <glyph glyph-name="chat-ellipsis-square-plus"
      unicode="&#xE1C3;"
      horiz-adv-x="1024" d="M895 331V730A90 90 0 0 1 805 819H112A90 90 0 0 1 22 730V137A90 90 0 0 1 79 54C90 50 102 47 114 48H158V-43A38 38 0 0 1 223 -71L342 48H611V125H325A38 38 0 0 1 292 107L235 49V86A38 38 0 0 1 196 125H111A13 13 0 0 0 99 137V730A13 13 0 0 0 112 742H805A13 13 0 0 0 818 730V331H895zM819 47V-84H895V47H1026V123H895V254H819V123H688V47H819zM281 482A49 49 0 0 1 232 433A49 49 0 1 1 281 482zM462 482A49 49 0 0 1 414 433A49 49 0 1 1 462 482zM595 433A49 49 0 0 0 599 452A49 49 0 0 0 625 478A49 49 0 0 0 678 468A49 49 0 0 0 692 433A49 49 0 1 0 595 433z" />
    <glyph glyph-name="chat-ellipsis-times"
      unicode="&#xE224;"
      horiz-adv-x="1024" d="M97 378C97 243 176 123 232 55V54C273 107 328 136 390 136H548V59H390C328 59 291 12 271 -27L247 -75L209 -35C153 25 21 185 21 378C21 645 202 817 456 817C711 817 881 665 881 438C881 434 881 430 881 426A175 175 0 0 1 880 415H803C804 422 804 431 804 438C804 624 680 740 456 740S97 605 97 378zM271 364C300 364 323 386 323 415S300 466 271 466S220 443 220 415S243 364 271 364zM979 196L925 250L836 160L746 250L692 196L781 106L692 16L746 -38L836 52L925 -38L979 16L890 106L979 196zM497 415C497 386 474 364 445 364S394 386 394 415S417 466 445 466S497 443 497 415zM620 364C648 364 671 386 671 415S648 466 620 466S568 443 568 415S591 364 620 364z" />
    <glyph glyph-name="chat-hi"
      unicode="&#xE03E;"
      horiz-adv-x="1024" d="M241 666C178 603 141 508 141 387C141 247 221 122 283 47C316 90 369 133 449 133H449L566 134H566C741 134 883 276 883 451C883 548 848 626 786 680C724 735 633 767 517 767C397 767 304 730 241 666zM187 720C267 801 381 844 517 844C647 844 758 807 837 738C916 668 960 568 960 451C960 233 783 57 566 57H566L449 56H449C384 56 345 9 323 -34L298 -83L261 -43C198 24 64 188 64 387C64 524 106 639 187 720zM271 291V563H343V291H271zM454 391H307V463H454V391zM418 291V563H490V291H418zM540 291V476H611V291H540zM576 568A38 38 0 1 1 576 492A38 38 0 0 1 576 568zM704 364A38 38 0 1 1 704 288A38 38 0 0 1 704 364zM668 381V563H740V381H668z" />
    <glyph glyph-name="chat-lines"
      unicode="&#xE03F;"
      horiz-adv-x="1024" d="M241 666C178 603 141 508 141 387C141 247 221 122 283 47C316 90 369 133 449 133H449L566 134H566C741 134 883 276 883 451C883 548 847 626 786 680C724 735 633 767 517 767C397 767 304 730 241 666zM187 720C267 801 381 844 517 844C647 844 758 807 837 738C916 668 960 568 960 451C960 233 783 57 566 57H566L449 56H449C384 56 345 9 323 -34L298 -83L260 -43C198 24 64 188 64 387C64 524 106 639 187 720zM716 497H307V573H716V497zM512 311H307V387H512V311z" />
    <glyph glyph-name="chat-phone"
      unicode="&#xE170;"
      horiz-adv-x="1024" d="M438 496A47 47 0 0 0 437 497L474 533C479 538 481 545 482 551C483 557 482 565 478 569L430 624L430 624C414 643 382 643 364 625L333 594C327 588 322 577 320 563C318 549 318 531 323 511C333 470 360 417 418 357L418 357C478 299 530 271 571 259C612 248 642 255 659 267A6 6 0 0 1 660 268L694 302L694 302C703 313 705 326 704 337C703 348 698 358 691 365L634 412C632 414 630 415 627 416A30 30 0 0 1 619 417C613 416 606 415 602 410L563 371A37 37 0 0 0 559 372C555 374 549 377 541 382C527 391 507 405 487 426C464 450 451 469 445 481C441 488 439 492 438 496zM241 666C178 603 141 508 141 387C141 247 221 122 283 47C316 90 369 133 449 133H449L566 134H566C741 134 883 276 883 451C883 548 847 626 786 680C724 735 633 767 517 767C397 767 304 730 241 666zM187 720C267 801 381 844 517 844C647 844 758 807 837 738C916 668 960 568 960 451C960 233 783 57 566 57H566L449 56H449C384 56 345 9 323 -34L298 -83L260 -43C198 24 64 188 64 387C64 524 106 639 187 720z" />
    <glyph glyph-name="chat-play"
      unicode="&#xE040;"
      horiz-adv-x="1024" d="M406 568A38 38 0 0 0 445 568L629 461A38 38 0 0 0 629 394L445 288A38 38 0 0 0 387 321V535A38 38 0 0 0 406 568zM464 468V388L533 428L464 468zM241 666C178 603 141 508 141 387C141 247 221 122 283 47C316 90 369 133 449 133H449L566 134H566C741 134 883 276 883 451C883 548 847 626 786 680C724 735 633 767 517 767C397 767 304 730 241 666zM187 720C267 801 381 844 517 844C647 844 758 807 837 738C916 668 960 568 960 451C960 233 783 57 566 57H566L449 56H449C384 56 345 9 323 -34L298 -83L260 -43C198 24 64 188 64 387C64 524 106 639 187 720z" />
    <glyph glyph-name="chat-play-square"
      unicode="&#xE1C2;"
      horiz-adv-x="1024" d="M445 581L652 462C662 456 668 446 668 435C668 424 662 414 652 409L445 289A31 31 0 0 0 415 289A31 31 0 0 0 399 316V555C399 570 411 582 425 585H430C436 585 441 584 445 581zM476 396L545 435V436L476 475V396zM854 48H390L272 -71C261 -81 244 -85 230 -79A38 38 0 0 0 206 -44V48H160C110 48 70 88 70 137V730C70 779 110 819 160 819H854C903 819 943 779 943 730V137C943 88 903 48 854 48zM854 742H160C153 742 147 737 147 730V137C147 131 152 124 159 124H245C266 124 283 107 283 86V49L340 106C347 117 359 124 373 124H854C861 124 866 130 866 137V730C866 737 861 742 854 742z" />
    <glyph glyph-name="chat-plus"
      unicode="&#xE041;"
      horiz-adv-x="1024" d="M241 666C178 603 141 508 141 387C141 247 221 122 283 47C316 90 369 133 449 133H449L566 134H566C741 134 883 276 883 451C883 548 847 626 786 680C724 735 633 767 517 767C397 767 304 730 241 666zM187 720C267 801 381 844 517 844C647 844 758 807 837 738C916 668 960 568 960 451C960 233 783 57 566 57H566L449 56H449C384 56 345 9 323 -34L298 -83L260 -43C198 24 64 188 64 387C64 524 106 639 187 720zM686 397H338V474H686V397zM473 262V610H550V262H473z" />
    <glyph glyph-name="chat-plus-square"
      unicode="&#xE1CD;"
      horiz-adv-x="1024" d="M160 742H853C860 742 866 737 866 730V137C866 130 860 125 853 125H373A38 38 0 0 1 340 107L283 49V86A38 38 0 0 1 244 125H160L159 125A13 13 0 0 0 147 137V730C147 737 153 742 160 742zM390 48H853C903 48 943 88 943 137V730C943 779 903 819 853 819H160C110 819 70 779 70 730V137C70 88 110 48 160 48A43 43 0 0 1 162 48H206V-43A38 38 0 0 1 272 -71L390 48zM677 395H336V472H677V395zM468 263V604H545V263H468z" />
    <glyph glyph-name="chat-square"
      unicode="&#xE1C9;"
      horiz-adv-x="1024" d="M160 742H853C860 742 866 737 866 730V137C866 130 860 125 853 125H373A38 38 0 0 1 340 107L283 49V86A38 38 0 0 1 244 125H160L159 125A13 13 0 0 0 147 137V730C147 737 153 742 160 742zM390 48H853C903 48 943 88 943 137V730C943 779 903 819 853 819H160C110 819 70 779 70 730V137C70 88 110 48 160 48A43 43 0 0 1 162 48H206V-43A38 38 0 0 1 272 -71L390 48z" />
    <glyph glyph-name="chat-square-dot"
      unicode="&#xE1C6;"
      horiz-adv-x="1024" d="M954 778A56 56 0 0 1 920 831A56 56 0 0 1 847 800A56 56 0 0 1 938 740C948 750 954 764 954 778zM766 778C766 766 768 754 771 742H160A13 13 0 0 1 147 730V137C147 131 152 125 159 124L160 125H244A38 38 0 0 0 283 86V49L340 107A38 38 0 0 0 373 125H853A13 13 0 0 1 866 137V650A132 132 0 0 1 943 653V137A90 90 0 0 0 853 48H390L272 -71A38 38 0 0 0 230 -79A38 38 0 0 0 206 -43V48H162A90 90 0 0 0 77 103A90 90 0 0 0 70 137V730A90 90 0 0 0 160 819H773A132 132 0 0 1 766 778z" />
    <glyph glyph-name="chat-window"
      unicode="&#xE042;"
      horiz-adv-x="1024" d="M241 666C178 603 141 508 141 387C141 247 221 122 283 47C316 90 369 133 449 133H449L566 134H566C741 134 883 276 883 451C883 548 847 626 786 680C724 735 633 767 517 767C397 767 304 730 241 666zM187 720C267 801 381 844 517 844C647 844 758 807 837 738C916 668 960 568 960 451C960 233 783 57 566 57H566L449 56H449C384 56 345 9 323 -34L298 -83L260 -43C198 24 64 188 64 387C64 524 106 639 187 720zM468 74V790H545V74H468zM901 383H102V460H901V383z" />
    <glyph glyph-name="chats"
      unicode="&#xE044;"
      horiz-adv-x="1024" d="M383 537C333 486 303 410 303 312C303 202 364 104 413 42C442 77 485 109 550 109H550L646 110H646C787 110 901 224 901 364C901 443 872 505 823 548C774 591 700 618 606 618C509 618 434 588 383 537zM329 591C397 659 493 695 606 695C714 695 807 664 874 606C941 547 978 463 978 364C978 181 829 33 646 33H646L550 32H550C500 32 470 -3 452 -39L427 -88L390 -48C338 8 226 145 226 312C226 426 261 523 329 591V591zM380 772H380C298 772 234 748 191 710C148 673 123 619 123 550C123 453 187 370 275 340L250 267C132 307 46 419 46 550C46 639 80 715 140 768C200 821 284 848 380 848C520 848 629 788 684 679L615 644C576 723 496 772 380 772z" />
    <glyph glyph-name="chats-alt"
      unicode="&#xE28D;"
      horiz-adv-x="1024" d="M410 822C286 822 186 778 117 705C48 632 13 533 13 425C13 241 117 89 221 24C256 3 292 32 295 62C298 96 312 116 329 129A89 89 0 0 0 340 135C381 0 477 -75 515 -100C550 -123 587 -94 589 -63C591 -38 599 -22 607 -12C614 -3 625 2 640 2H699A311 311 0 0 1 1011 315C1011 395 985 465 937 519C895 566 837 599 768 615A319 319 0 0 1 686 727C616 788 520 822 410 822zM90 425C90 516 119 596 173 652C226 709 305 745 410 745C504 745 582 716 635 669C688 623 719 557 719 476C719 395 690 333 646 291C601 249 539 225 471 225H394C359 225 318 215 284 191A156 156 0 0 1 228 114C157 176 90 290 90 425zM793 527C829 513 858 492 880 468C914 430 934 378 934 315A234 234 0 0 0 699 79H640C603 79 572 65 549 38A141 141 0 0 1 522 -9A364 364 0 0 0 416 148H471C557 148 638 178 698 235C759 292 796 375 796 476C796 494 795 510 793 527z" />
    <glyph glyph-name="chats-ellipsis-circle"
      unicode="&#xE24F;"
      horiz-adv-x="1024" d="M425 492C399 492 379 471 379 445S399 399 425 399S471 420 471 445S451 492 425 492zM538 445C538 471 558 492 584 492C610 492 630 471 630 445S609 399 584 399S538 420 538 445zM742 492C717 492 696 471 696 445S717 399 742 399S788 420 788 445S768 492 742 492zM1010 62L953 244C1038 406 1009 605 879 735C800 814 695 857 584 857S368 814 289 735C210 655 166 550 166 439C166 328 210 222 289 143C367 65 472 22 584 22C652 22 719 38 779 70L962 14C966 13 970 12 973 12C984 12 993 16 1000 24C1011 34 1014 49 1010 62V62zM874 237L914 109L786 148C776 152 764 151 755 145C703 115 644 98 583 98C492 98 407 134 343 198C278 262 243 348 243 439C243 531 278 615 343 680C407 745 493 780 583 780S760 745 824 680C933 571 955 401 877 268C871 259 870 247 873 237H874zM196 12A211 211 0 0 1 303 -17C331 -17 359 -12 384 -1C415 -15 447 -25 480 -33C430 -72 368 -94 303 -94C257 -94 212 -83 172 -63L56 -98C42 -102 28 -99 18 -89C8 -79 5 -64 9 -50L45 65C6 142 4 230 36 307C50 340 71 372 98 399C99 400 99 400 100 401A13 13 0 0 1 101 402C103 368 110 334 119 303C115 294 110 286 106 277C81 217 84 147 119 89C125 79 126 68 123 57L104 -4L165 15C176 18 187 17 196 12zM303 -17H303H302H303z" />
    <glyph glyph-name="chats-square"
      unicode="&#xE1C4;"
      horiz-adv-x="1024" d="M807 584V738A81 81 0 0 1 726 819H151A81 81 0 0 1 70 738V247A81 81 0 0 1 151 166H183V97A38 38 0 0 1 248 70L316 138V81C316 41 349 8 390 8H705L783 -71A38 38 0 0 1 825 -79A38 38 0 0 1 849 -44V8H869A74 74 0 0 1 921 29A74 74 0 0 1 943 81V510A74 74 0 0 1 869 584H807H807zM147 738A4 4 0 0 0 151 742H726A4 4 0 0 0 730 738V247A4 4 0 0 0 726 243H328A38 38 0 0 1 296 226L260 190V205A38 38 0 0 1 221 243H151A4 4 0 0 0 147 247V738H147zM393 166H726A81 81 0 0 1 807 247V507H866V84H811A38 38 0 0 1 772 49L754 68A38 38 0 0 1 722 84H393V166H393z" />
    <glyph glyph-name="check"
      unicode="&#xE047;"
      horiz-adv-x="1024" d="M410 157L946 693L1000 638L410 48L24 434L78 488L410 157z" />
    <glyph glyph-name="check-circle"
      unicode="&#xE15F;"
      horiz-adv-x="1024" d="M512 786C290 786 110 606 110 384C110 162 290 -18 512 -18C734 -18 915 162 915 384C915 606 734 786 512 786zM33 384C33 649 248 863 512 863S991 649 991 384S777 -95 512 -95S33 119 33 384zM469 321L676 528L730 474L469 213L294 389L348 443L469 321z" />
    <glyph glyph-name="check-list"
      unicode="&#xE21A;"
      horiz-adv-x="1024" d="M318 741L159 587L49 691L102 747L158 693L265 796L318 741zM947 643H435V719H947V643zM318 434L159 281L49 384L102 440L158 387L265 489L318 434zM947 340H435V417H947V340zM318 125L159 -28L49 76L102 131L158 78L265 181L318 125zM947 38H435V115H947V38z" />
    <glyph glyph-name="check-square"
      unicode="&#xE046;"
      horiz-adv-x="1024" d="M455 284L730 559L785 505L455 175L239 391L293 446L455 284zM146 750V18H878V750H146zM69 763C69 798 98 827 133 827H891C926 827 955 798 955 763V5C955 -30 926 -59 891 -59H133C98 -59 69 -30 69 5V763z" />
    <glyph glyph-name="check-square-rounded"
      unicode="&#xE045;"
      horiz-adv-x="1024" d="M469 213L294 389L348 443L469 321L676 528L730 474L469 213zM512 -74C426 -74 341 -69 259 -59C160 -47 81 31 69 131C59 213 54 298 54 384C54 470 59 555 69 637C81 737 160 815 259 827C423 847 601 847 765 827C864 815 943 737 955 637C965 554 970 469 970 384C970 299 965 214 955 131C943 31 864 -47 765 -59C683 -69 598 -74 512 -74zM512 765C429 765 347 760 268 751C204 743 153 692 145 628C135 548 130 466 130 384C130 302 135 220 145 140C153 76 204 25 268 17C426 -2 598 -2 756 17A141 141 0 0 1 879 140C889 220 893 302 893 384C893 466 889 548 879 628A141 141 0 0 1 756 751C677 760 595 765 512 765z" />
    <glyph glyph-name="chevron-circle-down"
      unicode="&#xE165;"
      horiz-adv-x="1024" d="M512 786C290 786 110 606 110 384C110 162 290 -18 512 -18S914 162 914 384C914 606 734 786 512 786zM33 384C33 648 248 863 512 863S991 648 991 384S776 -95 512 -95S33 120 33 384zM512 364L389 485L335 431L512 256L688 431L634 485L512 364z" />
    <glyph glyph-name="chevron-circle-left"
      unicode="&#xE162;"
      horiz-adv-x="1024" d="M512 786C290 786 110 606 110 384C110 162 290 -18 512 -18S914 162 914 384C914 606 734 786 512 786zM33 384C33 648 248 863 512 863S991 648 991 384S776 -95 512 -95S33 120 33 384zM492 384L613 507L559 560L384 384L559 208L613 262L492 384z" />
    <glyph glyph-name="chevron-circle-right"
      unicode="&#xE163;"
      horiz-adv-x="1024" d="M33 384C33 648 248 863 512 863S991 648 991 384S776 -95 512 -95S33 120 33 384zM512 786C290 786 110 606 110 384C110 162 290 -18 512 -18S914 162 914 384C914 606 734 786 512 786zM465 560L640 384L465 208L411 262L532 384L411 507L465 560z" />
    <glyph glyph-name="chevron-circle-top"
      unicode="&#xE164;"
      horiz-adv-x="1024" d="M512 -18C290 -18 110 162 110 384C110 606 290 786 512 786S914 606 914 384C914 162 734 -18 512 -18zM33 384C33 120 248 -95 512 -95S991 120 991 384S776 863 512 863S33 648 33 384zM512 404L389 283L335 337L512 512L688 337L634 283L512 404z" />
    <glyph glyph-name="chevron-double-down"
      unicode="&#xE048;"
      horiz-adv-x="1024" d="M724 656L512 445L300 656L246 602L512 337L778 602L724 656H724zM724 394L512 183L300 394L246 340L512 75L778 340L724 394z" />
    <glyph glyph-name="chevron-double-left"
      unicode="&#xE160;"
      horiz-adv-x="1024" d="M311 384L522 596L468 650L203 384L468 118L522 172L311 384zM573 384L784 596L730 650L465 384L730 118L784 172L573 384H573z" />
    <glyph glyph-name="chevron-double-right"
      unicode="&#xE161;"
      horiz-adv-x="1024" d="M556 650L821 384L556 118L502 172L713 384L502 596L556 650H556zM294 650L559 384L294 118L240 172L451 384L240 596L294 650z" />
    <glyph glyph-name="chevron-double-up"
      unicode="&#xE049;"
      horiz-adv-x="1024" d="M512 585L724 374L778 428L512 693L246 428L300 374L512 585zM512 323L724 112L778 166L512 431L246 166L300 112L512 323z" />
    <glyph glyph-name="chevron-down"
      unicode="&#xE04A;"
      horiz-adv-x="1024" d="M512 242L147 607L92 553L512 133L932 553L877 607L512 242z" />
    <glyph glyph-name="chevron-left"
      unicode="&#xE04B;"
      horiz-adv-x="1024" d="M361 384L744 766L690 821L253 384L690 -53L744 2L361 384z" />
    <glyph glyph-name="chevron-right"
      unicode="&#xE04C;"
      horiz-adv-x="1024" d="M663 384L280 2L334 -53L771 384L334 821L280 766L663 384z" />
    <glyph glyph-name="chevron-square-down"
      unicode="&#xE169;"
      horiz-adv-x="1024" d="M146 750V18H878V750H146zM69 763C69 798 98 827 133 827H891C926 827 955 798 955 763V5C955 -30 926 -59 891 -59H133C98 -59 69 -30 69 5V763zM512 363L387 486L333 432L512 255L691 432L637 486L512 363z" />
    <glyph glyph-name="chevron-square-left"
      unicode="&#xE166;"
      horiz-adv-x="1024" d="M146 750V18H878V750H146zM69 763C69 798 98 827 133 827H891C926 827 955 798 955 763V5C955 -30 926 -59 891 -59H133C98 -59 69 -30 69 5V763zM491 384L614 509L560 563L383 384L560 205L614 259L491 384z" />
    <glyph glyph-name="chevron-square-right"
      unicode="&#xE167;"
      horiz-adv-x="1024" d="M146 750V18H878V750H146zM69 763C69 798 98 827 133 827H891C926 827 955 798 955 763V5C955 -30 926 -59 891 -59H133C98 -59 69 -30 69 5V763zM533 384L410 509L464 563L641 384L464 205L410 259L533 384z" />
    <glyph glyph-name="chevron-square-top"
      unicode="&#xE168;"
      horiz-adv-x="1024" d="M146 750V18H878V750H146zM69 763C69 798 98 827 133 827H891C926 827 955 798 955 763V5C955 -30 926 -59 891 -59H133C98 -59 69 -30 69 5V763zM512 513L691 336L637 282L512 405L387 282L333 336L512 513z" />
    <glyph glyph-name="chevron-to-left"
      unicode="&#xE16C;"
      horiz-adv-x="1024" d="M381 383L801 803L855 749L490 383L855 18L801 -36L381 383zM161 -51V819H238V-51H161z" />
    <glyph glyph-name="chevron-to-right"
      unicode="&#xE16D;"
      horiz-adv-x="1024" d="M623 383L203 803L149 749L514 383L149 18L203 -36L623 383zM842 -51V819H765V-51H842z" />
    <glyph glyph-name="chevron-up"
      unicode="&#xE04D;"
      horiz-adv-x="1024" d="M512 635L932 215L877 161L512 526L146 161L92 215L512 635z" />
    <glyph glyph-name="circle"
      unicode="&#xE04E;"
      horiz-adv-x="1024" d="M512 786C290 786 110 606 110 384S290 -18 512 -18S914 162 914 384S734 786 512 786zM33 384C33 648 248 863 512 863S991 648 991 384C991 120 776 -95 512 -95S33 120 33 384z" />
    <glyph glyph-name="circle-1x"
      unicode="&#xE26E;"
      horiz-adv-x="1024" d="M512 768C300 768 128 596 128 384S300 0 512 0S896 172 896 384S724 768 512 768zM51 384C51 638 258 845 512 845S973 638 973 384S766 -77 512 -77S51 130 51 384zM393 551C397 554 400 555 404 555H438C440 555 443 554 445 552C447 550 448 547 448 544V236C448 233 447 230 445 228C443 226 440 225 438 225H390C387 225 384 226 382 228C380 230 379 233 379 236V464L328 444C326 443 323 442 320 443C317 444 315 447 314 449L306 465C305 467 304 470 305 472C305 475 307 477 309 479L393 551zM494 456C496 460 500 461 503 461H555C560 461 563 459 566 456L566 455L607 394L649 456C651 459 655 461 660 461H708C711 461 715 460 717 456C719 453 718 449 716 446L716 446L646 346L720 240C722 237 723 234 721 230C719 226 716 225 712 225H661C656 225 652 227 650 231L649 231L604 298L558 231C556 227 552 225 547 225H499C496 225 492 226 490 230C488 234 489 237 491 240L491 240L565 346L495 446C494 449 492 453 494 456z" />
    <glyph glyph-name="circle-2x"
      unicode="&#xE26D;"
      horiz-adv-x="1024" d="M512 768C300 768 128 596 128 384S300 0 512 0S896 172 896 384S724 768 512 768zM51 384C51 638 258 845 512 845S973 638 973 384S766 -77 512 -77S51 130 51 384zM391 291H496V290C502 290 506 286 506 280V236C506 229 502 225 496 225H286C280 225 275 229 275 236V250C275 253 276 257 279 260L357 349C412 411 425 432 425 459C425 480 410 493 384 493C361 493 344 480 335 455C333 449 328 446 322 447L278 460C273 461 271 463 270 465A39 39 0 0 1 270 466C270 468 269 470 270 474C288 528 332 561 388 561C453 561 497 522 497 465C497 417 477 382 408 309L391 291zM687 346L761 240L760 240C762 236 762 232 761 229C759 226 756 225 752 225H700C696 225 692 227 690 230L644 298L599 231C595 227 591 225 587 225H539C535 225 532 227 530 230S529 237 531 240L606 346L536 446C534 450 534 453 535 456C537 459 540 461 544 461H595C600 461 603 459 606 455L648 394L689 455C692 459 696 461 700 461H749C753 461 756 459 757 456S758 450 756 446L687 346z" />
    <glyph glyph-name="circle-dot-5x"
      unicode="&#xE26C;"
      horiz-adv-x="1024" d="M512 768C300 768 128 596 128 384S300 0 512 0S896 172 896 384S724 768 512 768zM51 384C51 638 258 845 512 845S973 638 973 384S766 -77 512 -77S51 130 51 384zM469 438C448 438 429 432 413 422L418 480H542C548 480 552 484 552 490V532C552 538 548 542 542 542H377C371 542 367 539 367 532L353 379C352 374 355 370 359 368L383 356C387 354 392 354 396 357C416 373 433 379 453 379C483 379 501 362 501 334S483 290 454 290C429 290 411 303 402 326C400 332 395 334 389 333L349 323C346 322 344 321 343 318C341 315 341 313 343 310C358 258 401 226 457 226C523 226 569 270 569 333C569 397 529 438 471 438H469zM271 303C249 303 232 287 232 265S249 228 271 228S309 244 309 265S293 303 271 303zM732 346L802 246C804 243 804 239 803 236C801 233 798 231 794 231H745C741 231 737 233 735 237L692 300L649 237C646 233 643 231 638 231H593C589 231 586 233 584 236C583 239 583 242 585 246L655 345L589 439C587 442 587 446 588 449C590 452 593 454 597 454H646C650 454 654 452 656 449L695 391L734 448C737 452 740 454 744 454H790C794 454 797 452 799 449C800 446 800 443 798 439L732 346z" />
    <glyph glyph-name="circle-half-tone"
      unicode="&#xE23D;"
      horiz-adv-x="1024" d="M474 -44V812H550V-44H474zM512 773C297 773 123 599 123 384C123 169 297 -5 512 -5S901 169 901 384C901 599 727 773 512 773zM46 384C46 641 255 850 512 850C769 850 978 641 978 384C978 127 769 -82 512 -82C255 -82 46 127 46 384z" />
    <glyph glyph-name="circles-4"
      unicode="&#xE04F;"
      horiz-adv-x="1024" d="M286 730C220 730 166 676 166 610C166 543 220 490 286 490C353 490 406 543 406 610C406 676 353 730 286 730zM90 610C90 718 178 806 286 806C395 806 483 718 483 610C483 501 395 413 286 413C178 413 90 501 90 610zM738 730C671 730 618 676 618 610C618 543 671 490 738 490C804 490 858 543 858 610C858 676 804 730 738 730zM541 610C541 718 629 806 738 806C846 806 934 718 934 610C934 501 846 413 738 413C629 413 541 501 541 610zM286 278C220 278 166 225 166 158C166 92 220 38 286 38C353 38 406 92 406 158C406 225 353 278 286 278zM90 158C90 267 178 355 286 355C395 355 483 267 483 158C483 50 395 -38 286 -38C178 -38 90 50 90 158zM738 278C671 278 618 225 618 158C618 92 671 38 738 38C804 38 858 92 858 158C858 225 804 278 738 278zM541 158C541 267 629 355 738 355C846 355 934 267 934 158C934 50 846 -38 738 -38C629 -38 541 50 541 158z" />
    <glyph glyph-name="circles-overlay-3"
      unicode="&#xE26B;"
      horiz-adv-x="1024" d="M333 397C241 397 166 322 166 230S241 64 333 64C395 64 450 99 478 150L546 113C504 38 424 -13 333 -13C198 -13 90 96 90 230C90 365 198 474 333 474C424 474 504 423 546 348L478 311C450 362 395 397 333 397zM691 397C599 397 525 322 525 230S599 64 691 64C783 64 858 138 858 230S783 397 691 397zM448 230C448 365 557 474 691 474C826 474 934 365 934 230C934 96 826 -13 691 -13C557 -13 448 96 448 230zM512 704C420 704 346 629 346 538A165 165 0 0 1 368 454L301 416A242 242 0 0 0 269 538C269 672 378 781 512 781C646 781 755 672 755 538C755 493 743 452 723 416L656 454A165 165 0 0 1 678 538C678 629 604 704 512 704z" />
    <glyph glyph-name="clipboard-list"
      unicode="&#xE050;"
      horiz-adv-x="1024" d="M349 558A46 46 0 1 0 349 465A46 46 0 0 0 349 558zM348 193A46 46 0 0 0 395 146A46 46 0 1 0 348 193zM348 373A46 46 0 0 0 395 326A46 46 0 1 0 348 373zM713 103H458V180H713V103zM713 473H458V550H713V473zM713 288H458V365H713V288zM183 724V-6H841V724H664V801H854C889 801 918 772 918 737V-19C918 -54 889 -83 854 -83H170C135 -83 106 -54 106 -19V737C106 772 135 801 170 801H372V724H183zM328 813A38 38 0 0 0 366 851H658A38 38 0 0 0 696 813V703A38 38 0 0 0 658 664H366A38 38 0 0 0 328 703V813zM405 774V741H619V774H405z" />
    <glyph glyph-name="cloche"
      unicode="&#xE051;"
      horiz-adv-x="1024" d="M960 179A448 448 0 0 1 550 626V717H474V626A448 448 0 0 1 64 179V115H0V38H1024V115H960V179zM883 115H141V179A371 371 0 0 0 250 442A371 371 0 0 0 654 522A371 371 0 0 0 883 179V115z" />
    <glyph glyph-name="clock"
      unicode="&#xE052;"
      horiz-adv-x="1024" d="M512 786C290 786 110 606 110 384S290 -18 512 -18S914 162 914 384S734 786 512 786zM33 384C33 648 248 863 512 863C776 863 991 648 991 384C991 120 776 -95 512 -95C248 -95 33 120 33 384zM550 406V644H474V362L657 256L695 323L550 406z" />
    <glyph glyph-name="close-arrows-horizontal"
      unicode="&#xE053;"
      horiz-adv-x="1024" d="M364 346H51V422H364V346zM263 564L434 384L263 204L208 257L328 384L208 511L263 564zM761 564L816 511L696 384L816 257L761 204L590 384L761 564zM973 346H660V422H973V346zM474 -26V794H550V-26H474z" />
    <glyph glyph-name="close-arrows-vertical"
      unicode="&#xE054;"
      horiz-adv-x="1024" d="M474 -77V236H550V-77H474zM474 532V845H550V532H474zM692 136L639 80L512 201L385 80L332 136L512 307L692 136zM692 633L512 462L332 633L385 688L512 568L639 688L692 633zM922 346H102V422H922V346z" />
    <glyph glyph-name="cloud"
      unicode="&#xE226;"
      horiz-adv-x="1024" d="M262 579C299 678 401 748 523 748C630 748 751 692 789 579C807 538 807 507 807 469C931 451 1019 350 1007 224L1007 224C994 102 881 20 753 20H334C181 20 43 117 19 262L19 263C-5 419 113 552 261 577L261 577L262 579zM336 557C333 538 322 526 312 518C304 513 293 508 290 506C290 506 289 506 289 506L284 503L278 502C162 484 79 383 95 275C112 174 210 97 334 97H753C851 97 923 159 930 232C938 316 879 386 786 394L779 395L772 398C754 407 730 428 730 463C730 504 730 523 718 551L718 552L717 554C693 625 610 671 523 671C432 671 362 620 336 557z" />
    <glyph glyph-name="cloud-arrow-down"
      unicode="&#xE227;"
      horiz-adv-x="1024" d="M1009 223C998 105 891 28 768 18V95C860 100 922 156 932 228C942 310 881 381 788 392H783L778 397C758 407 737 428 737 463C737 504 737 525 727 550C701 622 620 668 532 668C440 668 369 617 343 556C333 540 323 525 312 520L292 509L287 504H282C164 489 82 387 97 279C113 202 174 136 256 115V38C138 64 41 151 20 269C-5 422 113 556 261 581C297 678 399 745 522 745C630 745 753 689 788 576C804 535 804 504 804 463C932 453 1019 351 1009 223zM476 28L369 136L312 79L512 -120L712 79L655 136L548 28V320H471V28H476z" />
    <glyph glyph-name="cloud-arrow-up"
      unicode="&#xE228;"
      horiz-adv-x="1024" d="M1009 223C993 100 881 18 758 18H717V95H753C850 95 922 156 932 228C942 310 881 381 788 392H783L778 397C758 407 737 428 737 463C737 504 737 525 727 550C701 622 620 668 532 668C440 668 369 617 343 556C333 540 323 525 312 520L292 509L287 504H282C164 489 82 387 97 279C113 187 200 115 307 105V28C164 38 41 131 20 269C-5 422 113 556 261 581C297 678 399 745 522 745C630 745 753 689 788 576C804 535 804 504 804 463C932 453 1019 351 1009 223zM476 238L369 131L312 187L512 387L712 187L655 131L548 238V-54H471V238H476z" />
    <glyph glyph-name="code"
      unicode="&#xE23C;"
      horiz-adv-x="1024" d="M465 38L638 730H559L386 38H465zM131 384L334 587L280 642L23 384L280 126L334 181L131 384zM893 384L690 587L744 642L1001 384L744 126L690 181L893 384z" />
    <glyph glyph-name="code-in-square"
      unicode="&#xE2AE;"
      horiz-adv-x="1024" d="M526 598L424 189L498 170L600 579L526 598zM389 502L327 547L209 384L327 221L389 266L303 384L389 502zM697 547L635 502L721 384L635 266L697 221L816 384L697 547zM205 832A141 141 0 0 1 64 691V77A141 141 0 0 1 205 -64H819A141 141 0 0 1 960 77V691A141 141 0 0 1 819 832H205zM141 691C141 727 169 755 205 755H819C855 755 883 727 883 691V77C883 41 855 13 819 13H205C169 13 141 41 141 77V691z" />
    <glyph glyph-name="code-reader"
      unicode="&#xE055;"
      horiz-adv-x="1024" d="M127 422H898V345H127V422zM127 794H303V717H204V618H127V794zM127 149H204V50H303V-27H127V149zM722 794H898V618H821V717H722V794zM821 50V149H898V-27H722V50H821z" />
    <glyph glyph-name="code-slash"
      unicode="&#xE276;"
      horiz-adv-x="1024" d="M497 482L195 784L140 730L475 395L386 38H465L538 331L886 -16L940 38L798 180L1001 384L744 642L690 587L893 384L744 235L560 418L638 730H559L497 482zM203 564L257 510L131 384L334 181L280 126L23 384L203 564z" />
    <glyph glyph-name="code-square"
      unicode="&#xE2AA;"
      horiz-adv-x="1024" d="M247 756L157 666L247 575L193 521L48 666L193 810L247 756zM432 666L342 756L396 810L541 666L396 521L342 575L432 666zM832 704H614V781H870A38 38 0 0 0 909 742V26A38 38 0 0 0 870 -13H154A38 38 0 0 0 115 26V435H192V64H832V704z" />
    <glyph glyph-name="coins"
      unicode="&#xE056;"
      horiz-adv-x="1024" d="M196 717C182 704 179 694 179 689C179 683 182 674 196 661C210 648 233 635 264 623C325 599 413 583 512 583C611 583 699 599 760 623C791 635 814 648 828 661C842 674 845 683 845 689C845 694 842 704 828 717C814 730 791 743 760 755C699 779 611 795 512 795C413 795 325 779 264 755C233 743 210 730 196 717zM236 827C308 855 406 871 512 871S716 855 788 827C824 813 856 795 880 773C903 752 921 723 921 689S903 626 880 605C856 583 824 565 788 551C716 523 618 507 512 507S308 523 236 551C200 565 168 583 144 605C121 626 103 655 103 689S121 752 144 773C168 795 200 813 236 827zM179 689V79C179 74 182 64 196 51C210 39 233 25 264 13C325 -11 413 -26 512 -26C611 -26 699 -11 760 13C791 25 814 39 828 51C842 64 845 74 845 79V689H921V79C921 45 903 16 880 -5C856 -27 824 -44 788 -58C716 -87 618 -103 512 -103S308 -87 236 -58C200 -44 168 -27 144 -5C121 16 103 45 103 79V689H179zM144 406C121 428 103 456 103 491H179C179 485 182 475 196 462C210 449 233 436 264 424C325 400 413 384 512 384C611 384 699 400 760 424C791 436 814 449 828 462C842 475 845 485 845 491H921C921 456 903 428 880 406C856 384 825 366 788 352C716 324 618 307 512 307C406 307 308 324 236 352C199 366 168 384 144 406zM144 200C121 221 103 250 103 284H179C179 279 182 270 196 257C210 244 232 231 263 219C325 196 413 180 512 180C611 180 699 196 761 219C792 231 814 244 828 257C842 270 845 279 845 284H921C921 250 903 221 880 200C856 179 824 161 788 147C716 120 618 103 512 103C406 103 308 120 236 147C200 161 168 179 144 200z" />
    <glyph glyph-name="columns"
      unicode="&#xE1EF;"
      horiz-adv-x="1024" d="M322 26V742H399V26H322zM625 26V742H702V26H625zM115 704V64H909V704H115zM38 717C38 751 65 781 101 781H923C959 781 986 751 986 717V51C986 17 959 -13 923 -13H101C65 -13 38 17 38 51V717z" />
    <glyph glyph-name="command"
      unicode="&#xE2A9;"
      horiz-adv-x="1024" d="M115 640A141 141 0 0 0 397 640V576H627V640A141 141 0 1 0 768 499H704V269H768A141 141 0 1 0 627 128V192H397V128A141 141 0 1 0 256 269H320V499H256A141 141 0 0 0 115 640zM320 576V640A64 64 0 1 1 256 576H320zM397 269H627V499H397V269zM320 192H256A64 64 0 1 1 320 128V192zM704 192V128A64 64 0 1 1 768 192H704zM704 576H768A64 64 0 1 1 704 640V576z" />
    <glyph glyph-name="conical-flask"
      unicode="&#xE184;"
      horiz-adv-x="1024" d="M307 795A38 38 0 0 0 345 833H679A38 38 0 0 0 679 757H345A38 38 0 0 0 307 795zM732 318H293V395H732V318zM371 795A38 38 0 0 0 409 833H615A38 38 0 0 0 654 795V559L964 31C964 31 964 31 964 31C989 -12 958 -65 908 -65H116C66 -65 35 -12 60 31C60 31 60 31 60 31L371 559V795zM447 756V548A38 38 0 0 0 442 529L138 12H886L582 529A38 38 0 0 0 577 548V756H447zM897 -8C897 -8 897 -8 897 -8z" />
    <glyph glyph-name="content"
      unicode="&#xE22D;"
      horiz-adv-x="1024" d="M528 483H299V560H528V483zM528 608H299V685H528V608zM191 781V-13H833V781H191zM114 794C114 830 144 858 178 858H845C881 858 909 828 909 794V-25C910 -61 880 -90 845 -90H178C142 -90 114 -60 114 -26V794z" />
    <glyph glyph-name="copy"
      unicode="&#xE057;"
      horiz-adv-x="1024" d="M56 842A38 38 0 0 0 95 881H760A38 38 0 0 0 798 842V666H721V804H133V134H256V57H95A38 38 0 0 0 56 96V842zM226 673A38 38 0 0 0 265 711H929A38 38 0 0 0 968 673V100L755 -113H265A38 38 0 0 0 226 -74V673zM303 634V-36H723L891 132V634H303zM621 477H389V553H621V477zM621 364H389V441H621V364zM681 174H963V97H758V-108H681V174z" />
    <glyph glyph-name="copy-content"
      unicode="&#xE22C;"
      horiz-adv-x="1024" d="M56 842A38 38 0 0 0 95 881H760A38 38 0 0 0 798 842V666H721V804H133V134H256V57H95A38 38 0 0 0 56 96V842zM226 673A38 38 0 0 0 265 711H929A38 38 0 0 0 968 673L968 -74A38 38 0 0 0 929 -113H265A38 38 0 0 0 226 -74V673zM303 634V-36H891L891 634H303zM621 477H389V553H621V477zM621 364H389V441H621V364z" />
    <glyph glyph-name="corners"
      unicode="&#xE058;"
      horiz-adv-x="1024" d="M340 845H128C86 845 51 810 51 768V556H128V768H340V845zM896 556V768H684V845H896C938 845 973 810 973 768V556H896zM684 0H896V212H973V0C973 -42 938 -77 896 -77H684V0zM128 212V0H340V-77H128C86 -77 51 -42 51 0V212H128z" />
    <glyph glyph-name="corners-inverse"
      unicode="&#xE211;"
      horiz-adv-x="1024" d="M627 819H704V576H947V499H627V819zM320 576V819H397V499H77V576H320zM627 -51H704V192H947V269H627V-51zM320 192V-51H397V269H77V192H320z" />
    <glyph glyph-name="coupon"
      unicode="&#xE05E;"
      horiz-adv-x="1024" d="M317 -5H973C1001 -5 1024 18 1024 46V722C1024 750 1001 773 973 773H317L256 712L195 773H51C23 773 0 750 0 722V46C0 18 23 -5 51 -5H195L256 56L317 -5zM163 72H77V696H163L256 603L349 696H947V72H349L256 165L163 72zM218 490V556H294V490H218zM218 351V417H294V351H218zM218 212V278H294V212H218z" />
    <glyph glyph-name="coupon-alt"
      unicode="&#xE059;"
      horiz-adv-x="1024" d="M77 696H947V516C891 499 850 446 850 384S891 269 947 252V72H77V252C133 269 174 322 174 384S133 499 77 516V696zM1024 722C1024 750 1001 773 973 773H51C23 773 0 750 0 722V445H36C70 445 97 418 97 384S70 323 36 323H0V46C0 18 23 -5 51 -5H973C1001 -5 1024 18 1024 46V323H988C954 323 927 350 927 384S954 445 988 445H1024V722zM260 584V651H332V584H260zM260 468V534H332V468H260zM260 351V417H332V351H260zM260 234V301H332V234H260zM260 117V184H332V117H260z" />
    <glyph glyph-name="coupon-bth"
      unicode="&#xE05A;"
      horiz-adv-x="1024" d="M571 193V575H633V193H571zM488 541H628C679 541 722 499 722 447C722 427 715 408 704 393C725 376 738 350 738 321C738 269 696 227 644 227H488V541zM549 353V289H644A32 32 0 1 1 644 353H549zM549 415H628A32 32 0 1 1 628 479H549V415zM199 638V755H276V638H199zM199 430V547H276V430H199zM199 221V338H276V221H199zM199 13V130H276V13H199zM100 717V51H924V717H100zM23 729C23 765 52 793 87 793H937C972 793 1001 765 1001 729V39C1001 3 972 -25 937 -25H87C52 -25 23 3 23 39V729z" />
    <glyph glyph-name="coupon-pay"
      unicode="&#xE05B;"
      horiz-adv-x="1024" d="M90 698V70H934V698H90zM13 711C13 746 41 775 77 775H947C983 775 1011 746 1011 711V57C1011 22 983 -7 947 -7H77C41 -7 13 22 13 57V711zM201 621V736H278V621H201zM201 424V540H278V424H201zM201 228V344H278V228H201zM201 32V147H278V32H201zM377 489A9 9 0 0 0 386 498H453C493 498 524 467 524 429C524 391 493 360 453 360H426V308A9 9 0 0 0 417 299H386A9 9 0 0 0 377 308V489zM426 452V407H453C465 407 474 416 474 429C474 442 465 452 453 452H426zM526 371C526 413 557 447 595 447C612 447 625 442 634 433V437A6 6 0 0 0 640 443H675A6 6 0 0 0 681 437V305A6 6 0 0 0 675 299H640A6 6 0 0 0 634 305V308C625 300 612 295 595 295C557 295 526 328 526 371zM582 394C576 389 573 381 573 371C573 361 576 353 582 348C587 343 595 340 604 340C613 340 620 343 626 348C631 353 634 361 634 371C634 381 631 389 626 394C620 399 613 402 604 402C595 402 587 399 582 394zM703 443A6 6 0 0 1 698 435L753 301L733 252A6 6 0 0 1 738 243H774A8 8 0 0 1 782 249L855 435A6 6 0 0 1 850 443H814A8 8 0 0 1 807 438L777 363L746 438A8 8 0 0 1 739 443H703z" />
    <glyph glyph-name="coupon-percentage"
      unicode="&#xE05C;"
      horiz-adv-x="1024" d="M735 466L527 258L484 301L692 509L735 466zM522 481A10 10 0 1 1 522 461A10 10 0 0 1 522 481zM451 471C451 511 483 543 522 543C562 543 594 511 594 471S562 399 522 399C483 399 451 431 451 471zM697 307A10 10 0 1 1 697 286A10 10 0 0 1 697 307zM625 296C625 336 657 368 697 368S769 336 769 296S737 225 697 225S625 257 625 296zM199 638V755H276V638H199zM199 430V547H276V430H199zM199 221V338H276V221H199zM199 13V130H276V13H199zM100 717V51H924V717H100zM23 729C23 765 52 793 87 793H937C972 793 1001 765 1001 729V39C1001 3 972 -25 937 -25H87C52 -25 23 3 23 39V729z" />
    <glyph glyph-name="coupon-star"
      unicode="&#xE05D;"
      horiz-adv-x="1024" d="M199 638V755H276V638H199zM199 430V547H276V430H199zM199 221V338H276V221H199zM199 13V130H276V13H199zM610 539L563 445L460 430L535 357L517 254L610 303L702 254L684 357L759 430L656 445L610 539zM100 717V51H924V717H100zM23 729C23 765 52 793 87 793H937C972 793 1001 765 1001 729V39C1001 3 972 -25 937 -25H87C52 -25 23 3 23 39V729z" />
    <glyph glyph-name="credit-card"
      unicode="&#xE05F;"
      horiz-adv-x="1024" d="M95 703V65H929V703H95zM18 716C18 751 47 780 82 780H942C977 780 1006 751 1006 716V52C1006 17 977 -12 942 -12H82C47 -12 18 17 18 52V716zM671 226H824V149H671V226zM968 508H56V585H968V508z" />
    <glyph glyph-name="cube"
      unicode="&#xE060;"
      horiz-adv-x="1024" d="M595 857L879 693A166 166 0 0 0 962 549V221A166 166 0 0 0 879 77L595 -87A166 166 0 0 0 429 -87L145 77A166 166 0 0 0 62 221V549A166 166 0 0 0 145 693L429 857A166 166 0 0 0 595 857zM557 790A90 90 0 0 1 467 790L184 626A90 90 0 0 1 139 549V221A90 90 0 0 1 184 144L467 -20A90 90 0 0 1 557 -20L840 144H840A90 90 0 0 1 885 221V549A90 90 0 0 1 840 626L557 790zM512 423A38 38 0 0 0 550 385V-70A38 38 0 0 0 474 -70V385A38 38 0 0 0 512 423zM940 632A38 38 0 0 0 926 579L531 352A38 38 0 0 0 493 418L887 646A38 38 0 0 0 940 632zM84 632A38 38 0 0 0 137 646L531 418A38 38 0 0 0 493 352L98 579A38 38 0 0 0 84 632z" />
    <glyph glyph-name="data-branch"
      unicode="&#xE277;"
      horiz-adv-x="1024" d="M166 742A141 141 0 1 0 346 607V352C368 364 393 371 420 371H614C650 371 678 400 678 435V607A141 141 0 1 0 755 607V435A141 141 0 0 0 614 294H420C379 294 346 261 346 220V161A141 141 0 1 0 269 161V607A141 141 0 0 0 166 742zM307 806A64 64 0 1 1 307 678A64 64 0 0 1 307 806zM717 806A64 64 0 1 1 717 678A64 64 0 0 1 717 806zM243 26A64 64 0 1 1 371 26A64 64 0 0 1 243 26z" />
    <glyph glyph-name="data-layer"
      unicode="&#xE1E4;"
      horiz-adv-x="1024" d="M760 168L309 673L366 725L817 220L760 168zM817 532L368 61L313 114L761 585L817 532zM803 216V536H880V216H803zM756 588L362 711L384 784L779 662L756 588zM218 141V648H295V141H218zM787 67L380 -49L359 25L766 140L787 67zM268 814C232 814 202 784 202 747C202 711 232 681 268 681S334 711 334 747C334 784 305 814 268 814zM125 747C125 826 189 890 268 890C347 890 411 826 411 747C411 668 347 604 268 604C189 604 125 668 125 747zM268 82C232 82 202 52 202 16S232 -51 268 -51S334 -21 334 16S305 82 268 82zM125 16C125 95 189 159 268 159C347 159 411 95 411 16C411 -63 347 -128 268 -128C189 -128 125 -63 125 16zM841 647A37 37 0 0 1 805 611A37 37 0 1 1 878 611A37 37 0 0 1 841 647zM728 611C728 673 779 724 841 724C904 724 955 673 955 611C955 548 904 497 841 497C779 497 728 548 728 611zM841 178A37 37 0 1 1 841 105A37 37 0 0 1 841 178zM728 141C728 204 779 255 841 255C904 255 955 204 955 141C955 79 904 28 841 28C779 28 728 79 728 141z" />
    <glyph glyph-name="data-neuron"
      unicode="&#xE1E7;"
      horiz-adv-x="1024" d="M786 558C818 558 844 584 844 616C844 648 818 674 786 674C754 674 728 648 728 616C728 584 754 558 786 558zM545 -66C578 -66 603 -40 603 -8C603 24 578 50 545 50C513 50 487 24 487 -8C487 -40 513 -66 545 -66zM115 373C147 373 173 399 173 431C173 463 147 489 115 489C83 489 57 463 57 431C57 399 83 373 115 373zM172 105A47 47 0 1 1 172 11A47 47 0 0 1 172 105zM49 58C49 126 104 182 172 182C240 182 296 126 296 58C296 -10 240 -65 172 -65C104 -65 49 -10 49 58zM377 801A47 47 0 0 1 377 708A47 47 0 1 1 377 801zM253 755C253 823 309 878 377 878C445 878 501 823 501 755C501 686 445 631 377 631C309 631 253 686 253 755zM853 284A47 47 0 0 1 806 237A47 47 0 1 1 853 284zM730 237C730 306 785 361 853 361C921 361 977 306 977 237C977 169 921 114 853 114C785 114 730 169 730 237zM495 397A47 47 0 0 1 448 350A47 47 0 1 1 495 397zM371 350C371 418 427 474 495 474C563 474 618 418 618 350C618 282 563 227 495 227C427 227 371 282 371 350zM439 676L493 448L418 430L365 659L439 676zM785 212L562 279L584 353L807 286L785 212zM447 262L263 89L210 145L395 318L447 262z" />
    <glyph glyph-name="data-pipeline"
      unicode="&#xE1E2;"
      horiz-adv-x="1024" d="M276 797C241 797 212 769 212 733C212 698 241 670 276 670C311 670 339 698 339 733C339 769 311 797 276 797zM136 733C136 811 198 874 276 874S416 811 416 733C416 656 353 593 276 593S136 656 136 733zM286 99C251 99 223 71 223 36C223 1 251 -28 286 -28C321 -28 350 1 350 36C350 71 321 99 286 99zM146 36C146 113 209 176 286 176S426 113 426 36S364 -104 286 -104C209 -104 146 -42 146 36zM670 695H404V772H670C793 772 917 691 924 567C930 438 815 341 684 341H365C336 341 322 322 322 308V138H245V308C245 374 304 418 365 418H684C782 418 851 488 847 563H847C843 632 768 695 670 695z" />
    <glyph glyph-name="database"
      unicode="&#xE16A;"
      horiz-adv-x="1024" d="M196 717C182 704 179 694 179 689C179 683 182 674 196 661C210 648 233 635 264 623C325 599 413 583 512 583C611 583 699 599 760 623C791 635 814 648 828 661C842 674 845 683 845 689C845 694 842 704 828 717C814 730 791 743 760 755C699 779 611 795 512 795C413 795 325 779 264 755C233 743 210 730 196 717zM236 827C308 855 406 871 512 871S716 855 788 827C824 813 856 795 880 773C903 752 921 723 921 689S903 626 880 605C856 583 824 565 788 551C716 523 618 507 512 507S308 523 236 551C200 565 168 583 144 605C121 626 103 655 103 689S121 752 144 773C168 795 200 813 236 827zM179 689V79C179 74 182 64 196 51C210 39 233 25 264 13C325 -11 413 -26 512 -26C611 -26 699 -11 760 13C791 25 814 39 828 51C842 64 845 74 845 79V689H921V79C921 45 903 16 880 -5C856 -27 824 -44 788 -58C716 -87 618 -103 512 -103S308 -87 236 -58C200 -44 168 -27 144 -5C121 16 103 45 103 79V689H179zM144 406C121 428 103 456 103 491H179C179 485 182 475 196 462C210 449 233 436 264 424C325 400 413 384 512 384C611 384 699 400 760 424C791 436 814 449 828 462C842 475 845 485 845 491H921C921 456 903 428 880 406C856 384 825 366 788 352C716 324 618 307 512 307C406 307 308 324 236 352C199 366 168 384 144 406zM144 200C121 221 103 250 103 284H179C179 279 182 270 196 257C210 244 232 231 263 219C325 196 413 180 512 180C611 180 699 196 761 219C792 231 814 244 828 257C842 270 845 279 845 284H921C921 250 903 221 880 200C856 179 824 161 788 147C716 120 618 103 512 103C406 103 308 120 236 147C200 161 168 179 144 200zM241 527A31 31 0 1 1 241 465A31 31 0 0 1 241 527zM241 328A31 31 0 1 1 241 265A31 31 0 0 1 241 328zM241 121A31 31 0 1 1 241 58A31 31 0 0 1 241 121z" />
    <glyph glyph-name="desktop"
      unicode="&#xE061;"
      horiz-adv-x="1024" d="M107 692L107 692A1 1 0 0 0 107 692zM107 693V170A4 4 0 0 1 107 169C108 169 109 167 111 165A21 21 0 0 1 116 162C116 162 116 162 116 162H911A23 23 0 0 1 916 169A14 14 0 0 1 917 170V693A24 24 0 0 1 913 697A27 27 0 0 1 911 700L910 700H115A7 7 0 0 1 114 700A17 17 0 0 1 110 696A17 17 0 0 1 107 693zM117 162C117 162 117 162 117 162L117 162zM56 751C70 764 90 777 115 777H916C929 777 940 772 948 767C956 763 963 757 969 750C980 739 994 719 994 695V169C994 147 983 128 972 114C962 102 942 85 916 85H115C93 85 73 96 59 109C45 121 30 142 30 169V695C30 718 43 738 56 751zM474 -63V124H550V-63H474zM718 -68H308V9H718V-68z" />
    <glyph glyph-name="document"
      unicode="&#xE063;"
      horiz-adv-x="1024" d="M191 771V-3H646L833 184V771H191zM114 782C114 818 143 847 179 847H845C881 847 910 818 910 782V153L678 -79H179C143 -79 114 -50 114 -14V782zM623 207H871V130H700V-41H623V207z" />
    <glyph glyph-name="document-check"
      unicode="&#xE1F1;"
      horiz-adv-x="1024" d="M191 771V-3H646L833 184V771H191zM114 782C114 818 143 847 179 847H845C881 847 910 818 910 782V153L678 -79H179C143 -79 114 -50 114 -14V782zM623 207H871V130H700V-41H623V207zM477 393L644 550L697 494L477 288L327 428L380 484L477 393z" />
    <glyph glyph-name="document-eye"
      unicode="&#xE1E9;"
      horiz-adv-x="1024" d="M108 15V579H317V788H748V312C773 312 799 307 824 302V799C824 835 794 865 758 865H266L31 630V0C31 -36 61 -67 97 -67H497C476 -46 456 -15 440 10H108V15zM241 732V655H164L241 732zM998 87C947 184 850 251 748 251C645 251 548 189 497 87L486 72L497 56C548 -41 645 -108 748 -108C850 -108 947 -46 998 56L1009 72L998 87zM742 -41C676 -41 609 0 563 67C604 133 671 174 742 174S876 133 922 67C881 0 814 -41 742 -41zM819 67C819 26 788 -5 748 -5C707 -5 676 26 676 67C676 108 707 138 748 138C788 138 819 108 819 67z" />
    <glyph glyph-name="dots-2x3"
      unicode="&#xE29B;"
      horiz-adv-x="1024" d="M266 256A61 61 0 1 1 143 256A61 61 0 0 1 266 256zM266 512A61 61 0 1 1 143 512A61 61 0 0 1 266 512zM512 317A61 61 0 1 0 512 194A61 61 0 0 0 512 317zM573 512A61 61 0 1 1 451 512A61 61 0 0 1 573 512zM819 317A61 61 0 1 0 819 194A61 61 0 0 0 819 317zM881 512A61 61 0 1 1 758 512A61 61 0 0 1 881 512z" />
    <glyph glyph-name="dots-3x2"
      unicode="&#xE29C;"
      horiz-adv-x="1024" d="M384 630A61 61 0 1 1 384 753A61 61 0 0 1 384 630zM640 630A61 61 0 1 1 640 753A61 61 0 0 1 640 630zM445 384A61 61 0 1 0 323 384A61 61 0 0 0 445 384zM640 323A61 61 0 1 1 640 445A61 61 0 0 1 640 323zM445 77A61 61 0 1 0 323 77A61 61 0 0 0 445 77zM640 15A61 61 0 1 1 640 138A61 61 0 0 1 640 15z" />
    <glyph glyph-name="dots-3x3"
      unicode="&#xE2A8;"
      horiz-adv-x="1024" d="M206 751A61 61 0 1 0 206 628A61 61 0 0 0 206 751zM512 751A61 61 0 1 0 512 628A61 61 0 0 0 512 751zM512 445A61 61 0 1 0 512 323A61 61 0 0 0 512 445zM512 140A61 61 0 1 0 512 17A61 61 0 0 0 512 140zM818 751A61 61 0 1 0 818 628A61 61 0 0 0 818 751zM818 445A61 61 0 1 0 818 323A61 61 0 0 0 818 445zM206 445A61 61 0 1 0 206 323A61 61 0 0 0 206 445zM206 17A61 61 0 1 0 206 140A61 61 0 0 0 206 17zM818 17A61 61 0 1 0 818 140A61 61 0 0 0 818 17z" />
    <glyph glyph-name="download"
      unicode="&#xE064;"
      horiz-adv-x="1024" d="M512 240L784 512L838 458L512 131L185 458L239 512L512 240zM473 186V799H550V186H473zM120 40H904V-37H120V40z" />
    <glyph glyph-name="earth"
      unicode="&#xE065;"
      horiz-adv-x="1024" d="M517 786C295 786 115 606 115 384C115 162 295 -18 517 -18C739 -18 919 162 919 384C919 606 739 786 517 786zM38 384C38 648 253 863 517 863C781 863 996 648 996 384C996 120 781 -95 517 -95C253 -95 38 120 38 384zM438 682C410 608 392 502 392 384C392 266 410 160 438 86C451 49 467 21 482 4C498 -14 510 -18 517 -18S536 -14 552 4C567 21 583 49 597 86C624 160 642 266 642 384C642 502 624 608 597 682C583 719 567 747 552 764C536 782 525 786 517 786S498 782 482 764C467 747 451 719 438 682zM425 815C448 842 479 863 517 863C555 863 586 842 610 815C633 788 653 751 669 709C700 624 719 509 719 384S700 144 669 59C653 17 633 -20 610 -47C586 -74 555 -95 517 -95C479 -95 448 -74 425 -47C401 -20 381 17 366 59C334 144 315 259 315 384S334 624 366 709C381 751 401 788 425 815zM66 525A38 38 0 0 0 105 563H929A38 38 0 0 0 929 486H105A38 38 0 0 0 66 525zM66 243A38 38 0 0 0 105 282H929A38 38 0 0 0 929 205H105A38 38 0 0 0 66 243z" />
    <glyph glyph-name="easy-pass"
      unicode="&#xE066;"
      horiz-adv-x="1024" d="M245 850A51 51 0 0 1 184 821L-1 385L-3 380L-3 379A51 51 0 0 1 26 318L189 249L196 238L196 238C246 153 342 69 460 6C568 -51 678 -82 770 -84C862 -85 936 -57 969 4C993 51 989 106 963 163L1002 146L1031 213L875 279L808 123L875 95L894 139C915 97 917 63 904 38C895 21 877 7 851 -1C826 -10 793 -13 756 -11C681 -6 588 21 494 70C377 133 286 217 248 294L242 306L74 377L242 773L826 525L659 130L651 133C557 177 480 229 429 276C404 300 385 322 375 342C364 362 361 378 366 389C370 399 383 408 405 414C427 421 457 423 495 421L500 421L504 494L486 494H486C393 497 323 474 299 417C276 364 306 299 366 237C427 174 522 112 635 61H635L663 48L697 34L902 517L904 522L904 522A51 51 0 0 1 874 583L251 848L245 850L245 850zM412 631L270 691L237 615L379 555L412 631z" />
    <glyph glyph-name="edit"
      unicode="&#xE068;"
      horiz-adv-x="1024" d="M926 -62H98V14H926V-62zM648 846L859 635L309 85H98V297L648 846zM648 738L175 265V162H277L750 635L648 738z" />
    <glyph glyph-name="edit-alt"
      unicode="&#xE067;"
      horiz-adv-x="1024" d="M693 776H189C139 776 99 736 99 687V36C99 -13 139 -53 189 -53H839C888 -53 928 -13 928 36V536L852 459V36C852 29 846 24 839 24H189A13 13 0 0 0 176 36V687C176 694 181 699 189 699H616L693 776zM860 848L1003 705L545 246H400V389L860 848zM860 740L477 357V323H513L895 705L860 740z" />
    <glyph glyph-name="editor-indent"
      unicode="&#xE069;"
      horiz-adv-x="1024" d="M205 208L393 379L205 551V208zM871 656H153V732H871V656zM871 36H153V112H871V36zM871 449H513V526H871V449zM871 243H513V320H871V243z" />
    <glyph glyph-name="editor-outdent"
      unicode="&#xE06A;"
      horiz-adv-x="1024" d="M341 208L154 379L341 551V208zM871 656H153V732H871V656zM871 36H153V112H871V36zM871 449H513V526H871V449zM871 243H513V320H871V243z" />
    </font>
</defs>
</svg>
