<?xml version="1.0" standalone="no"?>
<!DOCTYPE svg PUBLIC "-//W3C//DTD SVG 1.1//EN" "http://www.w3.org/Graphics/SVG/1.1/DTD/svg11.dtd" >
<svg xmlns="http://www.w3.org/2000/svg">
<metadata>
LAICON Private Regular Version 16.17
Copyright (c) LINE Corporation
</metadata>
<defs>
  <font id="laicon-private-regular" horiz-adv-x="1024">
    <font-face font-family="laicon-private-regular"
      units-per-em="1024" ascent="896"
      descent="128"
      font-weight="400"
      font-style="Regular" />
    <missing-glyph horiz-adv-x="1024" /><glyph unicode="&#x20;" horiz-adv-x="512" d="" />
    <glyph glyph-name="abyss"
      unicode="&#xE290;"
      horiz-adv-x="1024" d="M905 664H998V13H905V664zM905 758H905V665H739C725 665 712 659 703 649L254 133L230 106L160 26L149 13H26L68 62L107 107L161 168L188 199L254 275L512 572L654 735C667 750 685 758 705 758H905zM812 632V13H719V383L395 13H272L812 632z" />
    <glyph glyph-name="adobe-illustrator"
      unicode="&#xE141;"
      horiz-adv-x="1024" d="M896 827C929 827 955 801 955 768V0C955 -33 929 -59 896 -59H128C95 -59 69 -33 69 0V768C69 801 95 827 128 827zM888 760H136V8H888V760zM478 547L593 216H520L494 296H378L353 216H281L396 547H478zM690 462V216H623V462H690zM437 484H435L393 348H479L437 484zM656 564C676 564 691 549 691 530C691 511 676 495 656 495C637 495 621 511 621 530C621 549 637 564 656 564z" />
    <glyph glyph-name="adobe-pdf"
      unicode="&#xE142;"
      horiz-adv-x="1024" d="M512 827C623 827 636 705 551 510L549 506C569 461 595 413 626 360L649 320C674 280 697 244 719 212L729 198C940 166 1051 75 1004 -15C956 -109 836 -58 696 129L691 136C638 142 578 146 510 146C450 146 395 143 346 138L333 136C192 -56 69 -111 20 -15C-28 76 86 169 303 200L296 198C314 224 332 251 351 281L375 320C413 384 444 441 469 492L475 506C388 703 401 827 512 827zM236 120L231 118C173 104 130 85 104 63C79 43 73 26 79 15C83 6 93 4 117 14C145 27 180 56 221 103L232 115L236 120zM789 119L792 115C838 61 877 28 908 14C931 4 941 6 945 15C959 42 916 84 809 114L796 117L789 119zM513 428L512 426L511 427L509 423C490 387 470 350 446 310L432 286L422 269C415 258 408 247 401 236L384 210L386 211L384 208C408 210 432 211 458 212L484 212L510 212C546 212 580 212 612 210L640 208L638 211L640 211L627 231L607 262L592 286L582 303C562 336 545 368 528 398L513 428zM512 760C480 760 469 715 504 613L509 601L512 591L516 601C553 704 547 753 519 760L515 760L512 760z" />
    <glyph glyph-name="adobe-photoshop"
      unicode="&#xE143;"
      horiz-adv-x="1024" d="M896 827C929 827 955 801 955 768V0C955 -33 929 -59 896 -59H128C95 -59 69 -33 69 0V768C69 801 95 827 128 827zM888 760H136V8H888V760zM646 463C706 463 743 432 744 387H686C684 406 669 418 646 418C624 418 609 408 609 393C609 381 618 373 642 368L681 359C730 349 750 330 750 296C750 250 708 220 648 220C584 220 546 250 542 296H604C608 275 623 264 648 264C672 264 687 274 687 289C687 302 679 309 656 314L616 322C571 332 548 354 548 389C548 434 587 463 646 463zM416 539C481 539 525 496 525 431C525 367 479 324 413 324H354V225H289V539zM399 487H354V375H399C437 375 459 395 459 431C459 467 437 487 399 487z" />
    <glyph glyph-name="adobe-xd"
      unicode="&#xE1B0;"
      horiz-adv-x="1024" d="M896 827A59 59 0 0 0 955 768V0A59 59 0 0 0 896 -59H128A59 59 0 0 0 69 0V768A59 59 0 0 0 128 827zM888 760H136V8H888zM540 226A5 5 0 0 1 540 230L444 386L534 533A3 3 0 0 1 535 536A3 3 0 0 1 531 538H468A7 7 0 0 1 465 538A7 7 0 0 1 463 534C456 522 450 509 443 497S429 472 423 459S409 434 403 421H403Q393 440 383 459T361 497C354 509 348 522 342 535A8 8 0 0 1 339 538A11 11 0 0 1 335 538H267A3 3 0 0 1 264 537C264 536 264 535 265 534L355 381L263 229A5 5 0 0 1 262 226C262 224 263 225 264 225H330C333 225 335 225 336 228Q347 247 357 266C364 278 370 291 377 304S391 330 397 342H398Q408 323 419 303T440 266Q449 247 459 229C461 225 464 225 469 225H537C539 226 540 225 540 226zM761 260A251 251 0 0 0 760 278V561A2 2 0 0 1 760 562A3 3 0 0 1 757 564H697Q694 564 694 561V466A210 210 0 0 1 685 467A153 153 0 0 1 603 450A120 120 0 0 1 556 404A125 125 0 0 1 539 341A130 130 0 0 1 556 273A102 102 0 0 1 601 232A149 149 0 0 1 665 219A258 258 0 0 1 711 223A239 239 0 0 1 759 237A5 5 0 0 1 762 242C762 248 761 253 761 260zM694 279A50 50 0 0 0 683 277C679 276 675 276 671 276A80 80 0 0 0 646 280A52 52 0 0 0 626 292A59 59 0 0 0 612 313A84 84 0 0 0 607 344A62 62 0 0 0 642 404A74 74 0 0 0 676 412C679 412 683 412 686 411A60 60 0 0 0 694 410z" />
    <glyph glyph-name="android"
      unicode="&#xE28B;"
      horiz-adv-x="1024" d="M748 281A43 43 0 0 0 748 366A43 43 0 0 0 748 281zM276 281A43 43 0 0 0 276 366A43 43 0 0 0 276 281zM763 537L848 685A18 18 0 0 1 817 703L731 553A526 526 0 0 1 512 600C433 600 359 584 293 553L206 703A18 18 0 0 1 176 685L261 537C115 458 15 310 0 135H1024C1009 310 909 458 763 537z" />
    <glyph glyph-name="angular"
      unicode="&#xE1AB;"
      horiz-adv-x="1024" d="M512 566L599 356H425zM989 726L916 96L512 -128L108 96L35 726L512 896zM809 115L512 783L215 115H326L386 264H638L698 115H809z" />
    <glyph glyph-name="apache-airflow"
      unicode="&#xE246;"
      horiz-adv-x="1024" d="M737 206L961 -18A38 38 0 0 0 932 -83L722 -73A420 420 0 0 0 444 49L334 159L110 -65C85 -90 43 -71 45 -37L55 174A420 420 0 0 0 177 452L287 562L63 786A38 38 0 0 0 91 851L302 841A420 420 0 0 0 580 719L690 609L914 833C939 858 981 839 979 805L969 594A420 420 0 0 0 847 316L737 206zM501 87A354 354 0 0 1 725 -7L862 -13L521 328C491 258 482 170 501 87zM431 256L381 206L425 162A483 483 0 0 0 431 256zM690 253L734 297A483 483 0 0 0 640 303L690 253zM568 393C638 363 726 354 809 373A354 354 0 0 1 903 597L909 734L568 393zM599 606A484 484 0 0 0 593 512L643 562L599 606zM503 440C533 510 542 598 523 681A354 354 0 0 1 299 775L162 781L503 440zM334 515L290 471A483 483 0 0 0 384 465L334 515zM456 375C386 405 298 414 215 395A354 354 0 0 1 121 171L115 34L456 375zM512 348A36 36 0 1 1 512 420A36 36 0 0 1 512 348z" />
    <glyph glyph-name="apple"
      unicode="&#xE1D3;"
      horiz-adv-x="1024" d="M706 845C714 790 692 737 663 699C631 658 577 627 525 628C515 681 540 735 570 771C602 811 658 841 706 845zM864 76C891 118 901 138 922 185C769 243 745 460 896 543C850 601 785 634 724 634C680 634 650 623 622 612C599 604 578 596 553 596C526 596 501 604 476 614C448 624 418 634 382 634C313 634 240 592 194 521C129 420 140 230 245 69C283 11 333 -54 399 -54C427 -55 445 -46 464 -38C487 -27 511 -17 554 -16C596 -16 621 -27 643 -37C662 -46 680 -54 707 -54C773 -54 826 18 863 76z" />
    <glyph glyph-name="astro"
      unicode="&#xE17D;"
      horiz-adv-x="1024" d="M1023 364C1023 373 1023 382 1023 391A511 511 0 1 1 767 -59C768 -109 780 -120 829 -120C870 -121 912 -120 953 -120C1014 -120 1023 -111 1024 -52Q1024 156 1023 364zM1023 353V352zM1023 349zM1022 340zM513 127A256 256 0 1 0 769 383A256 256 0 0 0 513 127zM1023 361zM1023 365zM1023 374zM1023 378z" />
    <glyph glyph-name="astro-chart"
      unicode="&#xE17B;"
      horiz-adv-x="1024" d="M577 824A477 477 0 0 0 1020 355C1020 347 1020 338 1020 330Q1021 136 1020 -57C1020 -112 1011 -121 955 -121C916 -121 878 -121 839 -121C793 -121 783 -110 781 -64A477 477 0 0 0 67 323H307A238 238 0 1 1 577 584zM517 896V584A238 238 0 0 1 308 382H3A514 514 0 0 0 517 896z" />
    <glyph glyph-name="astro-vue"
      unicode="&#xE17C;"
      horiz-adv-x="1024" d="M67 637A511 511 0 0 0 1023 391C1023 382 1023 373 1023 363Q1024 156 1023 -52C1023 -111 1013 -120 953 -120C912 -120 870 -121 829 -120C780 -120 768 -109 767 -59A511 511 0 0 0 67 637zM386 581H184L511 62L837 581H639L513 386z" />
    <glyph glyph-name="astro-xd"
      unicode="&#xE17A;"
      horiz-adv-x="1024" d="M633 856A487 487 0 0 0 999 391C999 382 999 373 999 364Q1000 166 999 -31C999 -88 990 -96 932 -96C893 -96 854 -97 814 -96C767 -96 756 -85 755 -38A487 487 0 1 0 633 856zM791 584H730A4 4 0 0 1 726 580V477A187 187 0 0 1 706 478A151 151 0 0 1 551 318C551 213 611 161 695 161A230 230 0 0 1 794 184C796 185 797 186 797 188A284 284 0 0 0 795 226V581C795 583 794 584 791 584zM524 584H462C458 584 456 582 455 579C431 528 406 475 383 424H383C359 476 335 528 310 579A6 6 0 0 1 306 584H237A3 3 0 0 1 235 578L337 374L231 172C229 170 230 167 233 167H297A7 7 0 0 1 304 171C329 222 354 277 378 329H378C404 274 430 223 454 172A8 8 0 0 1 462 167H530C533 167 534 170 532 173L424 381L526 579C528 582 527 584 524 584zM703 421A58 58 0 0 0 726 417V225A72 72 0 0 0 699 221C656 221 621 250 621 321C621 383 655 421 703 421z" />
    <glyph glyph-name="aurelia"
      unicode="&#xE1A6;"
      horiz-adv-x="1024" d="M775 337L870 400L934 304L839 241zM179 582L32 484L130 337L162 359L277 435zM573 639L576 635L671 698L573 845L478 782zM476 137L329 39L393 -57L540 41zM720 300L526 171L717 -115L910 14zM327 469L521 598L330 883L137 754zM143 622L107 677L52 641L89 586zM249 -15L286 -70L341 -34L304 21zM856 781L0 208L160 -34L1024 542z" />
    <glyph glyph-name="babel"
      unicode="&#xE196;"
      horiz-adv-x="1024" d="M809 550L897 628A228 228 0 0 1 933 751L932 765C928 804 900 836 845 861A336 336 0 0 1 672 896A1057 1057 0 0 1 403 823L403 822A950 950 0 0 0 299 757L300 750A27 27 0 0 1 310 754C315 754 317 752 317 748L324 752L328 753L328 750A403 403 0 0 0 255 693L259 686L256 686L248 689C248 686 245 685 238 685L238 681L247 672A30 30 0 0 0 236 674A70 70 0 0 1 189 640L193 634A103 103 0 0 0 217 652L218 642A31 31 0 0 1 207 638L216 626A249 249 0 0 0 269 670C279 667 284 665 284 661L291 661A575 575 0 0 0 446 745L447 739C437 724 431 717 427 717A27 27 0 0 1 432 704A1199 1199 0 0 0 362 527A4973 4973 0 0 0 91 -34A27 27 0 0 1 95 -44A100 100 0 0 1 129 -31L133 -30L134 -37L140 -36L148 -32C148 -35 150 -36 155 -35L155 -42A59 59 0 0 0 143 -73A162 162 0 0 1 120 -125L120 -128L127 -128A420 420 0 0 1 194 -31A1071 1071 0 0 1 389 42A182 182 0 0 1 492 78L492 81L475 76L471 76L470 79A155 155 0 0 1 539 102C604 152 652 187 685 208C788 283 836 356 830 424A399 399 0 0 1 763 509C762 518 777 532 809 550zM463 456L449 455V461L462 463zM452 673H455L456 663C453 662 449 658 443 648L443 655A33 33 0 0 1 452 673zM422 603L424 589L420 589L418 602zM407 578L414 579C413 568 410 562 405 561L401 561A34 34 0 0 1 407 578zM396 543L399 544L400 541L393 530L387 530L386 532A9 9 0 0 1 395 543zM384 513L382 496L379 496L377 512zM544 142A570 570 0 0 1 439 83C375 61 343 47 344 42A1065 1065 0 0 1 231 -8A42 42 0 0 0 213 -3A30 30 0 0 0 228 26A57 57 0 0 0 257 21A260 260 0 0 0 312 39L311 46L290 44A302 302 0 0 0 352 73L362 74L363 71C345 69 334 63 332 54A6 6 0 0 1 340 48A90 90 0 0 1 359 64A1148 1148 0 0 1 573 175L573 169C574 166 564 157 543 142zM365 83A68 68 0 0 1 408 104C414 104 416 102 417 98A159 159 0 0 1 369 77L365 77zM653 305L564 234A850 850 0 0 0 456 168A801 801 0 0 0 259 77L255 77C258 89 305 186 396 367A783 783 0 0 1 586 424L607 425A123 123 0 0 0 705 400L707 387C690 340 673 314 653 305zM479 404L493 405L493 402L479 401zM732 627C720 610 712 602 709 601A409 409 0 0 0 633 544A994 994 0 0 1 479 484A26 26 0 0 1 464 486L464 493A85 85 0 0 0 481 541C488 578 496 599 504 604L578 770C577 781 593 789 626 794L636 795L637 786L696 794C756 799 786 787 788 759L795 759L794 776L801 776A45 45 0 0 0 828 742A52 52 0 0 0 813 707C808 706 806 709 806 716L798 716L797 696C767 651 745 628 732 627z" />
    <glyph glyph-name="backbonejs"
      unicode="&#xE1A8;"
      horiz-adv-x="1024" d="M512 661L100 896V-128L512 107L924 -128V896zM236 671L383 587L236 504zM236 110V264L372 187zM307 384L512 501L717 384L512 267zM788 110L652 187L788 264zM788 504L641 587L788 671z" />
    <glyph glyph-name="belchero"
      unicode="&#xE28F;"
      horiz-adv-x="1024" d="M706 366H705C732 355 752 341 762 325C771 311 774 296 769 277A84 84 0 0 0 746 234C733 221 715 210 693 200C652 182 596 169 527 164A1311 1311 0 0 0 360 162C356 162 352 162 347 162L544 603C573 600 598 595 620 590C667 578 689 564 699 554C708 545 708 538 708 531C707 510 696 490 674 470C657 454 635 440 607 427L555 310C576 316 600 325 623 334A445 445 0 0 1 694 371C698 370 702 368 706 366zM969 342H968A265 265 0 0 0 966 233A285 285 0 0 0 889 92C858 62 819 35 774 16C740 0 700 -12 657 -21A950 950 0 0 0 543 -37C510 -40 474 -42 437 -42H432C405 -42 377 -41 349 -40A1248 1248 0 0 0 261 -33L51 -7L276 494L180 490L323 810L394 811C434 811 473 810 510 808C570 804 624 796 670 784A465 465 0 0 0 754 755A291 291 0 0 0 841 696A231 231 0 0 0 910 518A257 257 0 0 0 902 471A254 254 0 0 0 969 342zM858 257L858 258C863 280 863 302 859 322A155 155 0 0 1 837 376A188 188 0 0 1 789 424A188 188 0 0 1 766 438C770 444 774 450 778 456C790 478 797 502 798 526C801 561 788 593 763 619A196 196 0 0 1 707 656A370 370 0 0 1 643 678C603 688 556 694 502 698C463 701 425 701 395 701L354 609C373 610 408 610 448 610L238 141L213 85L274 78C275 78 307 74 354 71C381 70 406 69 432 69H437C470 69 503 71 534 73A836 836 0 0 1 634 87A472 472 0 0 1 730 117C762 132 789 150 810 170A174 174 0 0 1 858 257z" />
    <glyph glyph-name="bentoml"
      unicode="&#xE1DE;"
      horiz-adv-x="1024" d="M944 635V135L878 97V596L446 845L513 883zM530 414A33 33 0 0 0 546 386V-74A33 33 0 0 0 496 -103L98 127A33 33 0 0 0 81 156V615A33 33 0 0 0 131 644zM271 487L148 558V175L271 104zM480 128L337 210V65L480 -17zM480 366L337 448V287L480 205zM316 770L748 520V22L815 61V559L382 808zM181 692L613 443V-55L680 -17V482L248 731z" />
    <glyph glyph-name="bootstrap"
      unicode="&#xE18E;"
      horiz-adv-x="1024" d="M668 256A91 91 0 0 0 568 161H383V348H568C665 348 668 275 668 256zM553 423A82 82 0 0 1 641 506C641 542 633 588 553 588H383V423zM1024 725V43A171 171 0 0 0 853 -128H171A171 171 0 0 0 0 43V725A171 171 0 0 0 171 896H853A171 171 0 0 0 1024 725zM773 243A143 143 0 0 1 661 397V398A131 131 0 0 1 746 525C746 541 750 673 569 673H278V76C571 76 598 72 652 89A154 154 0 0 1 773 243z" />
    <glyph glyph-name="box-inc"
      unicode="&#xE19A;"
      horiz-adv-x="1024" d="M625 325A85 85 0 1 0 539 410A85 85 0 0 0 625 325zM288 410A85 85 0 1 1 373 324A85 85 0 0 1 288 410zM1024 570V198A326 326 0 0 0 698 -128H326A326 326 0 0 0 0 198V570A326 326 0 0 0 326 896H698A326 326 0 0 0 1024 570zM682 324A142 142 0 0 1 414 391A142 142 0 0 1 203 438V558A28 28 0 0 1 146 558V322A142 142 0 0 1 414 258A142 142 0 0 1 682 324zM873 422A28 28 0 0 1 827 456L764 372L701 456A28 28 0 0 1 656 422L729 325L656 227A28 28 0 0 1 701 193L764 277L827 193A28 28 0 0 1 873 227L800 325L873 422z" />
    <glyph glyph-name="box-notes"
      unicode="&#xE199;"
      horiz-adv-x="1024" d="M769 718H61A61 61 0 1 1 61 597H684zM595 476H61A61 61 0 1 1 73 354H510zM433 233H61A61 61 0 1 1 61 111H376L380 132C385 144 385 164 393 172zM923 803A80 80 0 0 0 992 791A77 77 0 0 0 1024 731A516 516 0 0 0 984 662A393 393 0 0 0 923 686A138 138 0 0 0 870 739zM838 682A208 208 0 0 1 886 633A176 176 0 0 1 947 605L575 83L551 59L425 -34C417 -42 409 -38 413 -26L449 127A121 121 0 0 0 465 160z" />
    <glyph glyph-name="confluence"
      unicode="&#xE176;"
      horiz-adv-x="1024" d="M5 72A33 33 0 0 1 16 27L227 -103A33 33 0 0 1 272 -93V-92C406 132 433 100 834 -91A33 33 0 0 1 877 -75L878 -74L979 154A33 33 0 0 1 963 196A25815 25815 0 0 0 751 297C255 538 89 205 5 72zM1019 696A33 33 0 0 1 1008 740L797 870A32 32 0 0 1 752 862A17 17 0 0 1 750 860C616 634 588 668 189 858A33 33 0 0 1 146 842L145 842L44 613A33 33 0 0 1 61 571C105 550 193 508 273 470C769 230 934 561 1019 696z" />
    <glyph glyph-name="connect-web"
      unicode="&#xE1CA;"
      horiz-adv-x="1024" d="M964 781V-13A114 114 0 0 0 851 -128A131 131 0 0 0 760 -86C740 -62 290 480 290 480V-13A115 115 0 0 0 60 -13V781A115 115 0 0 0 175 896A113 113 0 0 0 263 855C287 827 734 288 734 288V781A115 115 0 0 0 964 781z" />
    <glyph glyph-name="connpass"
      unicode="&#xE215;"
      horiz-adv-x="1024" d="M906 376A177 177 0 0 0 1015 540L1024 762A1720 1720 0 0 0 0 762L9 540A179 179 0 0 0 22 217L9 6C370 60 687 71 1015 6L1002 217A178 178 0 0 0 906 376zM653 210A161 161 0 0 0 612 173A168 168 0 0 0 565 153A186 186 0 0 0 518 147A211 211 0 0 0 468 153A187 187 0 0 0 422 171A149 149 0 0 0 384 202A133 133 0 0 0 358 245A154 154 0 0 0 348 300V436A153 153 0 0 0 358 492A133 133 0 0 0 383 534A149 149 0 0 0 422 565A180 180 0 0 0 468 584A209 209 0 0 0 518 590A184 184 0 0 0 565 584A170 170 0 0 0 612 564A142 142 0 0 0 652 529A153 153 0 0 0 678 473L580 442A58 58 0 0 1 541 482A75 75 0 0 1 514 486A71 71 0 0 1 488 478A52 52 0 0 1 468 462A44 44 0 0 1 461 437V301A47 47 0 0 1 468 276A51 51 0 0 1 487 259A63 63 0 0 1 513 251A69 69 0 0 1 541 255A63 63 0 0 1 565 270A69 69 0 0 1 583 299L682 265A178 178 0 0 0 653 210z" />
    <glyph glyph-name="css3"
      unicode="&#xE189;"
      horiz-adv-x="1024" d="M64 896H960L878 -24L511 -128L146 -24zM793 708H231L240 596H672L661 480H378L388 370H652L636 220L512 186L386 220L378 310H266L279 146L512 73L741 138L793 708z" />
    <glyph glyph-name="d3js"
      unicode="&#xE1A3;"
      horiz-adv-x="1024" d="M0 869H83A485 485 0 0 0 83 -101H0V112H83A272 272 0 0 1 83 656H0zM387 869H728A296 296 0 0 0 956 384A296 296 0 0 0 728 -101H387A573 573 0 0 1 587 112H728A83 83 0 1 1 732 277H645A572 572 0 0 1 645 491H728A83 83 0 1 1 732 656H586A573 573 0 0 1 387 869z" />
    <glyph glyph-name="datalabs"
      unicode="&#xE14D;"
      horiz-adv-x="1024" d="M105 56C156 56 198 14 198 -38C198 -89 156 -131 105 -131C54 -131 12 -89 12 -38S54 56 105 56zM314 56C366 56 407 14 407 -38C407 -89 366 -131 314 -131S221 -89 221 -38S263 56 314 56zM523 56C575 56 617 14 617 -38C617 -89 575 -131 523 -131S430 -89 430 -38S472 56 523 56zM733 32C772 32 803 1 803 -38S772 -108 733 -108S663 -76 663 -38S694 32 733 32zM105 265C156 265 198 223 198 172C198 121 156 79 105 79C54 79 12 121 12 172S54 265 105 265zM733 265C784 265 826 223 826 172C826 121 784 79 733 79C681 79 640 121 640 172S681 265 733 265zM942 242C981 242 1012 211 1012 172S981 102 942 102S872 133 872 172S903 242 942 242zM105 475C156 475 198 433 198 382C198 330 156 288 105 288C54 288 12 330 12 382S54 475 105 475zM733 475C784 475 826 433 826 382C826 330 784 288 733 288C681 288 640 330 640 382S681 475 733 475zM942 452C981 452 1012 420 1012 382S981 312 942 312S872 343 872 382S903 452 942 452zM105 684C156 684 198 642 198 591C198 539 156 498 105 498C54 498 12 539 12 591S54 684 105 684zM733 684C784 684 826 643 826 591C826 540 784 498 733 498C681 498 640 540 640 591S681 684 733 684zM942 661C981 661 1012 630 1012 591S981 521 942 521S872 552 872 591S903 661 942 661zM105 893C156 893 198 852 198 800C198 749 156 707 105 707C54 707 12 749 12 800S54 893 105 893zM314 893C366 893 407 852 407 800C407 749 366 707 314 707S221 749 221 800S263 893 314 893zM523 893C575 893 617 852 617 800C617 749 575 707 523 707S430 749 430 800S472 893 523 893zM733 870C772 870 803 839 803 800S772 730 733 730S663 762 663 800S694 870 733 870z" />
    <glyph glyph-name="deno"
      unicode="&#xE18C;"
      horiz-adv-x="1024" d="M472 896C469 896 461 895 455 894A515 515 0 0 1 180 776A669 669 0 0 1 120 716A514 514 0 0 1 3 446A807 807 0 0 1 3 322A514 514 0 0 1 120 52A676 676 0 0 1 180 -8A515 515 0 0 1 450 -126A820 820 0 0 1 574 -126A515 515 0 0 1 844 -8A676 676 0 0 1 904 52A514 514 0 0 1 1021 322A807 807 0 0 1 1021 446A514 514 0 0 1 904 716A669 669 0 0 1 844 776A515 515 0 0 1 575 893A511 511 0 0 1 518 896C495 896 474 896 472 896zM478 841C478 827 479 795 480 764C481 749 482 728 482 717C484 678 488 575 489 565L489 556L484 557A22 22 0 0 0 477 558A154 154 0 0 0 475 578C473 622 466 796 465 822L464 850L468 850C469 850 473 851 475 851H478zM599 844S599 806 599 760S601 672 601 667A20 20 0 0 0 601 658A20 20 0 0 0 594 658L588 659L587 695C587 716 586 738 586 745C585 768 584 843 585 845S586 847 592 846C595 845 598 844 599 844zM307 802C308 801 314 732 321 641C324 610 326 582 326 578C327 572 327 572 323 569A22 22 0 0 0 318 567A18 18 0 0 0 316 574C314 590 308 669 303 726C300 760 298 790 297 793C296 799 297 800 300 801S306 804 307 802zM654 777C657 776 658 775 659 768A644 644 0 0 0 658 695A18 18 0 0 0 646 702C646 703 645 721 645 741C645 782 645 780 654 777zM421 771C421 768 422 749 423 729S425 684 426 673C427 651 427 652 419 652C414 652 414 652 414 658C414 661 413 672 412 682S410 714 409 731S407 764 407 768C406 774 406 774 409 775A28 28 0 0 0 417 777C421 777 421 777 421 771zM771 754L775 752L776 735C776 726 776 706 776 691L776 664L771 666L766 669L765 711V754C765 756 765 756 771 754zM541 737C541 737 543 675 543 645V626L538 627A61 61 0 0 0 531 628C531 628 527 721 527 730V739L534 739A28 28 0 0 0 541 737zM831 728C832 727 832 699 833 547A1121 1121 0 0 0 831 368A8 8 0 0 0 827 369A1356 1356 0 0 0 824 535C823 626 823 708 822 718L822 736L825 733A38 38 0 0 0 831 728zM718 703A66 66 0 0 0 719 687C720 659 720 488 719 488A12 12 0 0 0 714 489L709 491V705L713 704A13 13 0 0 0 718 702zM370 696C371 692 371 685 372 678S373 658 374 647C375 625 375 624 368 624C364 624 363 624 363 628C362 635 357 697 358 698A28 28 0 0 0 368 701C369 701 370 699 370 696zM162 664C163 650 166 622 168 601S172 563 172 562S162 556 161 557S148 669 148 674C148 677 158 690 159 689C159 689 161 677 162 664zM656 650L659 648V621C659 606 660 590 660 584C660 573 659 571 652 573L648 575V585C648 591 648 609 647 624L646 652H649A16 16 0 0 0 656 650zM217 601C219 577 223 537 226 511L230 464L225 459L220 454L219 464C219 469 216 495 213 521S207 585 205 605L202 641L207 646C211 650 212 650 213 648C213 646 215 626 217 601zM123 586C126 561 133 495 139 440S152 330 153 320S155 295 156 286C158 271 158 270 156 269C153 266 152 267 152 269C152 270 151 280 150 290C147 308 144 337 135 402C133 416 130 442 127 461S121 508 119 524S114 566 112 583A308 308 0 0 0 108 617A45 45 0 0 0 118 632C118 631 120 611 123 586zM84 532C86 517 89 489 92 470S98 428 99 419L101 401L99 399C97 398 96 397 95 398A51 51 0 0 0 93 409C92 414 88 447 83 480L74 542L77 550A30 30 0 0 0 80 559A261 261 0 0 0 84 532zM776 548A270 270 0 0 0 778 481V416H774C766 416 767 414 766 485L766 550H770A9 9 0 0 0 776 548zM500 526A245 245 0 0 0 578 501A148 148 0 0 0 619 470A255 255 0 0 0 676 392A515 515 0 0 0 718 200C723 152 729 65 730 30C731 19 732 2 732 -8C734 -30 735 -27 716 -37A421 421 0 0 0 628 -67A417 417 0 0 0 517 -81H487L487 -67C487 -59 488 -40 489 -26A1610 1610 0 0 1 487 182A456 456 0 0 1 476 252C476 254 478 255 491 259A131 131 0 0 1 536 282C542 291 532 305 520 305A57 57 0 0 1 505 300A476 476 0 0 0 388 268A333 333 0 0 0 306 271A246 246 0 0 0 249 293A72 72 0 0 0 208 339A113 113 0 0 0 210 381A135 135 0 0 0 230 421A319 319 0 0 0 416 524A280 280 0 0 0 500 525zM888 522C893 520 894 520 894 515C894 481 893 402 892 399C892 398 886 398 883 399C881 400 881 406 881 462C881 502 881 524 882 524A33 33 0 0 0 889 522zM943 453L948 451L947 346C946 214 946 210 941 198C933 179 934 176 935 258C935 299 935 341 936 351S936 388 936 411A270 270 0 0 0 938 455A28 28 0 0 0 944 453zM186 421A28 28 0 0 0 183 402L179 394L177 406C175 426 175 427 180 430A10 10 0 0 0 185 432A49 49 0 0 0 186 421zM108 345C109 335 119 267 123 233C130 181 130 173 127 177C127 177 124 194 121 215A783 783 0 0 0 103 351C106 354 108 352 108 345zM199 288C200 285 203 251 203 246S199 240 197 242A153 153 0 0 0 193 265C192 278 191 291 190 294L189 300L194 295A26 26 0 0 0 199 288zM301 240C302 239 303 234 304 220C306 196 306 198 301 198S296 197 294 220S292 242 296 242A10 10 0 0 0 301 240zM400 238C401 237 401 230 402 222S403 196 404 182C408 131 408 125 406 125S403 127 400 163C399 177 397 201 396 215S394 240 395 240C396 242 400 241 400 239zM164 214C165 213 169 173 175 118C177 101 179 85 179 82L180 77L177 79A7 7 0 0 0 173 85C173 93 168 145 164 177C161 195 159 211 159 213A2 2 0 0 0 164 215zM891 161L890 109L887 104C879 94 880 92 880 151V205L885 209A26 26 0 0 0 890 214C891 214 891 190 890 161zM774 78C775 5 775 -1 773 -3C771 -5 770 -5 770 -5S768 156 769 156A4 4 0 0 0 772 157A364 364 0 0 0 774 78zM363 128C364 120 367 83 368 65C369 53 369 53 366 52A4 4 0 0 0 362 52C361 53 358 81 355 124L354 134H358C362 134 362 134 362 128zM264 84A13 13 0 0 0 265 77C265 73 267 56 268 39C273 -9 273 -16 271 -15C268 -13 265 -10 266 -9A87 87 0 0 1 265 5C264 12 263 24 262 31S260 52 259 61C257 83 257 85 260 85A6 6 0 0 0 264 84zM323 -1C324 -4 324 -14 325 -24C326 -43 325 -44 320 -40C319 -39 318 -34 316 -20C314 6 313 5 318 5C322 4 323 4 323 -1zM278 465A17 17 0 1 1 299 441A17 17 0 0 1 278 465zM364 453A19 19 0 0 1 364 420A19 19 0 1 1 364 453z" />
    <glyph glyph-name="dse"
      unicode="&#xE14E;"
      horiz-adv-x="1024" d="M481 879A61 61 0 0 0 543 879L925 657A61 61 0 0 0 955 604V163A61 61 0 0 0 925 109L543 -111A61 61 0 0 0 481 -111L99 109A61 61 0 0 0 69 163V604A61 61 0 0 0 99 657zM117 567A15 15 0 0 1 115 560V364A51 51 0 0 1 140 320L305 221A51 51 0 0 0 330 177V156A15 15 0 0 0 308 143L137 236A15 15 0 0 1 115 223V196A51 51 0 0 1 140 151L455 -32A15 15 0 0 1 478 -19V179A51 51 0 0 1 453 224L293 316A67 67 0 0 0 260 373V375A23 23 0 0 0 295 395L455 304A15 15 0 0 1 478 318V346A51 51 0 0 1 453 391L138 573A15 15 0 0 1 117 567zM894 579A15 15 0 0 1 886 577L571 395A51 51 0 0 1 546 350V-14A15 15 0 0 1 569 -27L894 161A31 31 0 0 1 909 188V228A15 15 0 0 1 886 241L720 148A15 15 0 0 0 697 161V186A51 51 0 0 0 723 231L894 329A31 31 0 0 1 909 356V395A15 15 0 0 1 886 408L720 314A15 15 0 0 0 697 328V353A51 51 0 0 0 722 397L894 499A31 31 0 0 1 909 525V563A15 15 0 0 1 894 579zM615 738L593 727A15 15 0 0 1 593 700L667 655A15 15 0 0 0 667 628L487 531A41 41 0 0 0 448 531L367 574A51 51 0 0 1 322 576L295 564A15 15 0 0 1 294 537L478 430A67 67 0 0 1 544 430L837 599A20 20 0 0 1 838 635L666 737A51 51 0 0 1 615 738zM550 807A67 67 0 0 1 483 807L176 630A17 17 0 0 1 176 601L224 571A67 67 0 0 1 291 569L609 746A15 15 0 0 1 609 773z" />
    <glyph glyph-name="dv"
      unicode="&#xE14F;"
      horiz-adv-x="1024" d="M303 828L513 464L723 828H1023L510 -60L362 201L362 202L1 828zM908 761H762L438 201L511 74zM264 761H116L398 273L472 401z" />
    <glyph glyph-name="eit"
      unicode="&#xE14C;"
      horiz-adv-x="1024" d="M1024 896V-128H0V896H1024zM932 521H590V461H721V247H800V461H932V521zM427 517H92V249H427V308H168V458H427V517zM544 515H469V249H544V515zM297 427C271 395 226 388 197 383C247 374 271 368 297 339C324 371 364 376 395 383C376 387 324 394 297 427z" />
    <glyph glyph-name="elasticsearch"
      unicode="&#xE201;"
      horiz-adv-x="1024" d="M508 856A472 472 0 0 1 86 594H701A187 187 0 0 1 822 638A398 398 0 0 1 871 686A471 471 0 0 1 508 856zM53 506A472 472 0 0 1 53 262H631A122 122 0 0 1 631 506H53zM86 174A472 472 0 0 1 871 81A388 388 0 0 1 822 130A187 187 0 0 1 701 174z" />
    <glyph glyph-name="emberjs"
      unicode="&#xE1AA;"
      horiz-adv-x="1024" d="M0 896V-128H1024V896zM884 264A607 607 0 0 0 671 114S490 29 367 109A211 211 0 0 0 266 273A575 575 0 0 0 120 300C63 322 120 389 120 389S138 417 171 389A134 134 0 0 1 267 374A564 564 0 0 0 309 536C366 664 453 707 524 709A174 174 0 0 0 688 630C784 392 432 272 432 272S422 208 519 211C637 211 762 303 809 342A28 28 0 0 0 848 339L883 302A28 28 0 0 0 884 264zM519 418C448 370 416 379 416 379C420 545 528 617 566 581S589 467 519 418z" />
    <glyph glyph-name="eslint"
      unicode="&#xE194;"
      horiz-adv-x="1024" d="M310 506L504 619A16 16 0 0 0 520 619L715 506A16 16 0 0 0 722 493V268A16 16 0 0 0 715 255L520 142A16 16 0 0 0 504 142L310 255A16 16 0 0 0 302 268V493A16 16 0 0 0 310 506M1018 404L785 808A49 49 0 0 1 744 834H280A49 49 0 0 1 239 808L6 405A48 48 0 0 1 6 357L239 -44A46 46 0 0 1 280 -66H744A46 46 0 0 1 785 -44L1018 358A46 46 0 0 1 1018 404M825 209A17 17 0 0 0 817 195L521 24A17 17 0 0 0 504 24L208 195A17 17 0 0 0 199 210V551A17 17 0 0 0 208 566L504 736A17 17 0 0 0 520 736L816 566A17 17 0 0 0 825 551z" />
    <glyph glyph-name="facebook"
      unicode="&#xE1D4;"
      horiz-adv-x="1024" d="M973 382C973 638 766 845 512 845S51 638 51 382A462 462 0 0 1 401 -67V241H306V382H401V443C401 601 472 674 626 674C655 674 705 668 726 662V534A590 590 0 0 1 673 536C597 536 568 507 568 432V382H718L693 241H568V-77C796 -49 973 146 973 382z" />
    <glyph glyph-name="figma"
      unicode="&#xE19D;"
      horiz-adv-x="1024" d="M683 555A171 171 0 1 1 683 213A171 171 0 1 1 683 555zM683 555A171 171 0 1 1 683 896H341A171 171 0 1 1 341 555A171 171 0 1 1 341 213A171 171 0 1 1 512 43V555z" />
    <glyph glyph-name="frontline"
      unicode="&#xE207;"
      horiz-adv-x="1024" d="M288 132L236 708H788L778 595H360L370 479H669L658 366H381L404 99zM963 896L881 -26L511 -128L143 -26L61 896zM881 821H143L213 33L512 -50L811 33z" />
    <glyph glyph-name="github"
      unicode="&#xE178;"
      horiz-adv-x="1024" d="M0 391A506 506 0 0 1 346 -89C371 -94 380 -78 380 -65C380 -53 380 -21 380 21C239 -9 209 89 209 89A134 134 0 0 1 153 163C107 194 156 194 156 194A106 106 0 0 0 234 142A108 108 0 0 1 381 100A108 108 0 0 0 413 167C301 180 183 223 183 417A196 196 0 0 0 235 553A182 182 0 0 0 240 686S282 700 379 635A478 478 0 0 0 632 635C729 700 771 686 771 686A181 181 0 0 0 776 552A195 195 0 0 0 828 417C828 223 710 180 597 167A121 121 0 0 0 632 74C632 6 631 -48 631 -65C631 -78 640 -94 666 -89A505 505 0 1 1 0 391z" />
    <glyph glyph-name="google-play"
      unicode="&#xE1D2;"
      horiz-adv-x="1024" d="M144 844C161 846 178 843 192 834L686 553L561 426L144 844zM106 806A88 88 0 0 1 102 781V-4C102 -12 103 -21 106 -29L523 389L106 806zM561 351L144 -67C161 -69 178 -66 192 -56L686 224L561 351zM885 439L735 524L599 389L735 252L885 337C934 365 934 412 885 440L885 439z" />
    <glyph glyph-name="grafana"
      unicode="&#xE202;"
      horiz-adv-x="1024" d="M938 451A347 347 0 0 1 903 574A360 360 0 0 1 831 673A141 141 0 0 1 814 774A150 150 0 0 1 717 749C715 750 713 751 711 752C702 755 693 759 683 762S664 767 654 770A417 417 0 0 1 619 776A182 182 0 0 1 531 879A194 194 0 0 1 444 768L443 765C439 764 435 762 431 761C425 759 420 757 414 755S403 751 398 749A358 358 0 0 1 335 713L332 715A252 252 0 0 1 142 707A276 276 0 0 1 192 519A470 470 0 0 1 167 413A249 249 0 0 1 46 272A266 266 0 0 1 215 177A397 397 0 0 1 255 119C261 111 268 104 274 97A210 210 0 0 1 278 -52A242 242 0 0 1 434 -5A397 397 0 0 1 562 -25H576A175 175 0 0 1 689 -92A180 180 0 0 1 743 27V32A329 329 0 0 1 773 56A317 317 0 0 1 831 125A143 143 0 0 1 929 161A150 150 0 0 1 878 256L877 256L877 257L875 258C876 261 876 265 876 269C877 275 877 282 877 288V302L876 308C876 309 876 311 876 313S876 316 875 318L875 323L874 328A251 251 0 0 1 792 479A243 243 0 0 1 662 538A249 249 0 0 1 627 540H619L614 540A193 193 0 0 1 480 471A189 189 0 0 1 448 419A186 186 0 0 1 436 345V342C436 340 436 337 436 335A146 146 0 0 1 465 262A143 143 0 0 1 539 210A133 133 0 0 1 578 204H588L592 205H594L596 205A44 44 0 0 1 601 206C602 206 604 206 605 207A107 107 0 0 1 642 224C643 225 645 225 646 226A10 10 0 0 1 647 240A10 10 0 0 1 635 243L632 241A91 91 0 0 0 620 236A98 98 0 0 0 601 233A24 24 0 0 0 598 233H586A15 15 0 0 0 584 233C583 233 581 233 580 233A103 103 0 0 0 551 242A105 105 0 0 0 524 259A102 102 0 0 0 491 319A96 96 0 0 0 490 337V347A128 128 0 0 0 545 439A126 126 0 0 0 583 457A118 118 0 0 0 614 461H625A162 162 0 0 0 691 441A159 159 0 0 0 756 374A152 152 0 0 0 772 317V310A30 30 0 0 0 772 307A26 26 0 0 0 772 305V299L772 292A243 243 0 0 0 769 266A207 207 0 0 0 758 229A214 214 0 0 0 733 183A204 204 0 0 0 602 102A195 195 0 0 0 576 99H563A268 268 0 0 0 493 110A275 275 0 0 0 325 248A269 269 0 0 0 297 353V380C297 389 298 398 299 407A350 350 0 0 0 310 462A358 358 0 0 0 330 513A285 285 0 0 0 389 598A241 241 0 0 0 427 629A228 228 0 0 0 448 641C452 643 456 645 459 647L465 649A288 288 0 0 0 494 660L500 662C502 663 504 663 506 664C510 665 514 666 518 667C520 667 522 668 524 668L530 669L536 671L539 671L542 671L548 672C550 673 553 673 555 673L562 674C563 674 565 675 566 675L569 675H572C575 675 577 675 579 675H585L591 676A325 325 0 0 0 660 671A320 320 0 0 0 743 643A332 332 0 0 0 810 599L814 596L818 593C820 591 822 588 825 586S829 582 831 580S836 575 838 573A351 351 0 0 0 895 493C895 492 896 491 896 490L898 487L901 481C902 478 903 477 904 474L906 468A354 354 0 0 0 924 415A8 8 0 0 1 932 409A8 8 0 0 1 939 416A285 285 0 0 1 938 451z" />
    <glyph glyph-name="hadoop"
      unicode="&#xE208;"
      horiz-adv-x="1024" d="M1019 541A272 272 0 0 1 995 621A32 32 0 0 1 989 629A60 60 0 0 1 968 642A33 33 0 0 1 942 642A19 19 0 0 1 937 638A115 115 0 0 1 924 621A90 90 0 0 0 910 604A75 75 0 0 0 888 592A143 143 0 0 1 877 614A201 201 0 0 1 860 637A96 96 0 0 1 845 652C839 656 834 659 827 664A365 365 0 0 0 780 701C773 707 766 713 760 718A180 180 0 0 1 654 764A264 264 0 0 1 536 738A170 170 0 0 1 485 706A313 313 0 0 1 448 663A64 64 0 0 1 428 659A79 79 0 0 1 405 643C399 638 393 632 388 627S377 617 372 612A506 506 0 0 1 269 586A269 269 0 0 1 185 534A218 218 0 0 1 156 503A231 231 0 0 1 134 469A227 227 0 0 0 117 451A61 61 0 0 0 99 439C94 437 93 437 93 437S92 437 92 438A53 53 0 0 1 104 476A45 45 0 0 0 108 470C109 468 111 466 112 464L119 456L121 466A75 75 0 0 1 122 497A28 28 0 0 1 113 514L114 518C116 522 118 527 119 531L122 539L113 538A127 127 0 0 1 59 504A83 83 0 0 1 44 482A42 42 0 0 1 40 457A41 41 0 0 1 51 435C52 430 54 426 55 422A90 90 0 0 1 60 410A37 37 0 0 1 82 390A47 47 0 0 1 106 389A215 215 0 0 1 103 360A378 378 0 0 1 105 313C105 309 106 305 106 300S107 292 108 288L104 276L96 256L81 241L66 227L62 223C53 214 51 212 53 195A103 103 0 0 1 64 164A110 110 0 0 1 83 138A140 140 0 0 1 129 107A60 60 0 0 1 160 103Q159 101 158 98C157 94 155 90 153 86A33 33 0 0 1 173 36A205 205 0 0 1 205 26L212 24A290 290 0 0 1 267 13C288 11 308 16 313 35A111 111 0 0 1 317 55A99 99 0 0 1 317 73A127 127 0 0 0 330 97L333 100A42 42 0 0 1 341 119A77 77 0 0 1 340 138L339 142A309 309 0 0 1 377 139C384 139 390 139 396 140L391 137L389 136C372 127 371 111 377 94A177 177 0 0 1 397 54A146 146 0 0 1 438 7A53 53 0 0 1 494 9A46 46 0 0 1 515 31C516 34 518 36 520 39C525 43 537 53 549 62L561 73A31 31 0 0 1 573 67A139 139 0 0 1 594 65C601 64 621 64 635 64H645A67 67 0 0 1 678 70A34 34 0 0 1 693 100A54 54 0 0 1 693 116A49 49 0 0 1 687 130C687 137 687 144 686 151L686 173A101 101 0 0 1 683 196A148 148 0 0 1 675 218C673 223 671 228 669 233L664 231L666 232L670 233A252 252 0 0 1 660 257C660 259 660 260 661 262L668 255L680 244A145 145 0 0 1 706 222A59 59 0 0 1 740 214A82 82 0 0 1 783 230A72 72 0 0 1 810 266L814 278L817 287A236 236 0 0 1 881 285A158 158 0 0 1 938 302A146 146 0 0 1 996 358A224 224 0 0 1 1023 448A388 388 0 0 1 1019 541zM752 326A136 136 0 0 0 721 343A78 78 0 0 0 722 304C716 283 706 250 733 244A36 36 0 0 1 763 250A55 55 0 0 0 737 249A17 17 0 0 0 724 261A45 45 0 0 1 738 256A36 36 0 0 1 781 275A124 124 0 0 0 788 299C792 298 797 297 801 296L793 271A60 60 0 0 0 739 233A75 75 0 0 0 690 259C681 268 671 276 662 284A223 223 0 0 0 591 320A125 125 0 0 1 643 279A456 456 0 0 0 617 184A328 328 0 0 0 564 101C557 97 511 58 502 53C495 44 490 32 480 27C450 11 431 41 415 67C408 78 387 112 405 121A467 467 0 0 1 448 148C451 143 455 139 458 134C457 139 457 144 456 149A117 117 0 0 0 456 175C456 184 457 192 458 201C455 192 450 183 447 174A94 94 0 0 1 445 165A301 301 0 0 0 331 164C328 178 325 193 323 203C322 191 322 159 322 140A47 47 0 0 0 314 109A306 306 0 0 1 295 76A82 82 0 0 0 293 45C287 25 234 40 219 44C202 49 166 56 175 79A299 299 0 0 1 192 150A384 384 0 0 0 124 315A207 207 0 0 0 132 412A247 247 0 0 0 201 520A268 268 0 0 0 355 585C339 568 323 549 306 529A286 286 0 0 1 268 465A52 52 0 0 1 273 396A183 183 0 0 0 307 339A117 117 0 0 1 297 297A125 125 0 0 1 354 253A75 75 0 0 1 410 259A294 294 0 0 0 532 307A232 232 0 0 1 541 452A722 722 0 0 0 530 553A242 242 0 0 1 526 450A195 195 0 0 0 518 322A311 311 0 0 1 405 274A62 62 0 0 0 358 270A88 88 0 0 0 316 304A82 82 0 0 0 329 349C343 377 358 402 375 430A781 781 0 0 1 318 358A172 172 0 0 1 288 405A39 39 0 0 0 283 456A230 230 0 0 0 322 519C354 554 383 593 418 627A69 69 0 0 0 470 649C493 652 515 656 539 662C516 660 494 659 472 658H472A154 154 0 0 0 541 717C627 754 682 758 750 701C768 687 783 672 801 659A64 64 0 0 1 781 655A82 82 0 0 0 810 653C813 651 815 650 818 648A75 75 0 0 0 846 625A251 251 0 0 0 869 586C865 587 862 589 858 590A25 25 0 0 1 851 592A24 24 0 0 1 836 588L835 588A107 107 0 0 0 810 580A30 30 0 0 1 826 579L827 580A24 24 0 0 1 827 556A12 12 0 0 1 829 552C826 551 823 550 819 548A160 160 0 0 0 865 549C866 544 867 539 868 534L862 533H862A29 29 0 0 1 835 536C801 528 809 509 793 479C809 500 808 520 835 527A44 44 0 0 0 850 530A34 34 0 0 1 833 512C826 492 830 474 822 454C832 472 833 489 842 507A37 37 0 0 0 864 524H870A149 149 0 0 0 872 492A358 358 0 0 0 864 439A162 162 0 0 1 881 492A153 153 0 0 1 881 551C876 578 903 574 919 586A446 446 0 0 1 950 621C960 631 977 616 981 606A374 374 0 0 0 1003 448A168 168 0 0 0 930 320A220 220 0 0 0 752 326zM673 105C671 85 664 84 646 84C638 84 605 84 597 85A48 48 0 0 0 575 90A273 273 0 0 1 631 178C637 198 644 216 649 234A227 227 0 0 1 657 211A90 90 0 0 0 666 173C667 158 667 142 668 126A26 26 0 0 0 673 106zM120 261A423 423 0 0 1 174 148V147A43 43 0 0 0 167 131C152 110 112 141 100 153A80 80 0 0 0 77 196C75 206 77 206 84 214L114 244L120 261zM98 515A109 109 0 0 1 91 498C85 477 94 457 74 442C84 423 83 415 105 424A70 70 0 0 1 126 438Q122 426 118 414L117 410C101 404 81 400 73 416A152 152 0 0 0 65 441C39 468 77 502 98 515zM110 487C107 490 105 492 101 492A67 67 0 0 0 102 499C102 500 103 502 103 503C108 500 110 494 110 487zM870 585C871 583 872 581 873 579A18 18 0 0 1 870 577A24 24 0 0 1 865 585H870zM138 466zM56 438zM333 148zM562 80zM654 256zM100 434V435V434zM991 361zM11 440A137 137 0 0 0 56 540A84 84 0 0 1 11 440M1 478A94 94 0 0 0 22 523A38 38 0 0 1 1 478M478 764C453 758 449 754 441 730A94 94 0 0 0 478 764M516 767C468 756 454 747 438 691A136 136 0 0 0 516 767M620 563A81 81 0 0 0 670 625C623 613 614 594 620 563M919 562A76 76 0 0 1 967 620A112 112 0 0 0 916 569A53 53 0 0 0 883 566C897 562 905 557 919 562M730 539A31 31 0 0 1 712 556A95 95 0 0 1 731 568C715 561 698 563 685 554C673 546 657 521 645 510A97 97 0 0 1 670 525A31 31 0 0 1 687 498A70 70 0 0 1 676 479A180 180 0 0 0 762 534A90 90 0 0 1 733 529A31 31 0 0 1 730 539M698 339C697 332 695 323 694 316C697 324 700 333 704 341S709 349 717 353C722 356 732 360 738 363C732 362 722 360 716 359C702 357 700 353 698 339M444 604A284 284 0 0 1 404 505A345 345 0 0 0 450 593A57 57 0 0 0 461 601C449 581 450 577 454 551A101 101 0 0 0 482 607A394 394 0 0 1 531 623Q502 619 474 617A34 34 0 0 1 444 604" />
    <glyph glyph-name="hive"
      unicode="&#xE1DD;"
      horiz-adv-x="1024" d="M265 860A255 255 0 0 1 225 825A543 543 0 0 0 163 760A64 64 0 0 0 128 748A110 110 0 0 0 101 748C88 755 76 751 65 737A330 330 0 0 1 29 661A152 152 0 0 1 84 523A250 250 0 0 0 145 447C154 430 161 405 169 388C171 383 171 383 178 381A564 564 0 0 1 236 376A288 288 0 0 1 267 378A353 353 0 0 1 315 389A313 313 0 0 1 354 402C353 397 342 392 337 385A250 250 0 0 1 293 202L293 203L293 201V197A406 406 0 0 1 318 99A276 276 0 0 1 347 43C350 39 353 35 356 30A381 381 0 0 1 563 -91A156 156 0 0 1 622 -87C675 -71 782 -33 782 -33A1113 1113 0 0 0 643 -37A50 50 0 0 0 615 -28C614 -26 610 -18 613 -18A266 266 0 0 0 644 -11C608 -8 609 -8 606 -1A385 385 0 0 1 590 35C605 33 640 31 652 43A196 196 0 0 0 613 43A113 113 0 0 0 593 49A75 75 0 0 0 577 55C574 62 572 65 569 74A144 144 0 0 0 563 114A98 98 0 0 1 610 81A82 82 0 0 1 655 76L658 77A42 42 0 0 0 642 78A97 97 0 0 0 592 115L576 140C581 150 583 150 590 150A111 111 0 0 1 631 149C639 132 641 115 660 103C722 85 736 108 751 130A139 139 0 0 1 919 129A352 352 0 0 1 997 328C989 341 979 355 970 353C938 344 926 328 894 332A90 90 0 0 1 904 333A111 111 0 0 1 903 375C893 396 880 419 871 436A139 139 0 0 1 851 476C846 480 834 491 834 491L833 480S838 479 840 472A346 346 0 0 1 862 418H847L864 413C873 395 882 379 883 378A74 74 0 0 0 889 338L885 336C884 350 868 349 855 349L844 352C848 349 858 349 854 343C850 341 849 333 847 326L841 326C851 322 861 318 872 313L878 313L872 298L864 301L864 307A123 123 0 0 1 823 313A213 213 0 0 1 798 281C809 289 817 301 831 305C832 305 846 303 854 301C849 300 841 300 840 298A448 448 0 0 1 812 253C825 267 829 280 850 293A40 40 0 0 0 872 291A193 193 0 0 0 862 266A270 270 0 0 0 838 230C863 260 856 249 872 268C879 284 886 302 892 320L894 320C896 319 913 321 926 320C948 325 947 335 967 336C980 337 982 312 981 310A294 294 0 0 0 958 222C931 171 902 126 860 119A143 143 0 0 0 754 147L743 138C707 102 664 105 647 152A117 117 0 0 1 643 159A313 313 0 0 1 627 189A70 70 0 0 0 612 295C582 303 542 319 536 340A275 275 0 0 0 541 467A1091 1091 0 0 1 416 435A427 427 0 0 1 355 412C330 405 309 398 277 390A117 117 0 0 0 246 390C223 393 184 390 182 392C166 414 162 453 148 473A260 260 0 0 1 120 503A239 239 0 0 0 49 605A123 123 0 0 0 44 656A168 168 0 0 0 88 730A411 411 0 0 0 153 726A221 221 0 0 0 197 716C242 699 301 671 301 671A635 635 0 0 1 175 734A10 10 0 0 0 166 741C214 769 222 802 254 831A96 96 0 0 0 286 842A684 684 0 0 0 525 749C547 737 568 728 588 716A289 289 0 0 0 673 650A740 740 0 0 0 710 548A265 265 0 0 1 724 499A226 226 0 0 0 719 533A91 91 0 0 1 747 526S718 541 715 554C703 596 691 661 687 665A372 372 0 0 1 617 719C608 724 603 727 603 730A275 275 0 0 0 628 753A95 95 0 0 0 654 771C702 792 730 762 737 768C737 768 727 780 731 778S752 773 753 771A445 445 0 0 0 845 653A49 49 0 0 0 852 616A281 281 0 0 0 843 581A495 495 0 0 1 822 519A134 134 0 0 1 833 459A193 193 0 0 0 833 479L834 491A23 23 0 0 0 834 495C835 503 837 510 837 514A454 454 0 0 0 864 604C867 612 871 616 871 622A110 110 0 0 1 855 660A411 411 0 0 1 829 705A200 200 0 0 1 748 784A196 196 0 0 1 681 791A131 131 0 0 1 637 776C618 764 603 745 586 734A459 459 0 0 0 526 770C503 782 476 796 446 809A464 464 0 0 1 265 860zM658 77H658zM738 736A93 93 0 0 1 749 702A128 128 0 0 0 775 664C783 643 790 621 796 600C794 622 786 646 783 667A247 247 0 0 1 738 736zM451 634A618 618 0 0 0 587 604C588 603 586 601 584 601A60 60 0 0 1 561 602A245 245 0 0 1 528 585A152 152 0 0 0 590 582C615 573 630 527 647 514A314 314 0 0 1 592 624A598 598 0 0 1 451 634zM734 435A123 123 0 0 1 707 432A79 79 0 0 1 697 407A71 71 0 0 0 755 434A194 194 0 0 1 734 435zM418 420A914 914 0 0 1 521 200A109 109 0 0 1 565 159C563 154 560 149 558 143A853 853 0 0 0 436 221A222 222 0 0 0 349 388A15 15 0 0 0 354 393A185 185 0 0 0 418 420zM750 374A96 96 0 0 1 695 355S718 358 717 356A61 61 0 0 1 720 332C720 331 720 331 720 332L708 321A206 206 0 0 0 790 334S767 341 768 341C773 342 767 366 765 366Q772 369 778 370A114 114 0 0 1 750 374zM732 351A10 10 0 0 0 741 348A19 19 0 0 0 742 337A22 22 0 0 1 726 332C723 329 720 346 723 349A13 13 0 0 0 732 351zM854 339C858 339 864 339 866 334A21 21 0 0 0 863 322C861 322 848 322 848 325A18 18 0 0 0 852 339zM972 324L949 313A53 53 0 0 0 897 316A36 36 0 0 1 936 302A68 68 0 0 1 972 324zM303 296A328 328 0 0 1 550 122L549 122A127 127 0 0 1 541 77V76A410 410 0 0 0 300 198A299 299 0 0 0 303 295zM686 219H684A26 26 0 0 1 671 195C691 214 690 214 719 214A292 292 0 0 1 686 218zM698 204A136 136 0 0 0 666 148C663 144 662 139 673 123C676 118 688 118 696 118C688 124 676 130 674 136A54 54 0 0 1 712 125A14 14 0 0 1 720 133A35 35 0 0 0 734 149L743 138L754 147A263 263 0 0 0 698 204zM321 105A486 486 0 0 1 557 33C565 19 575 4 582 -8A350 350 0 0 0 364 30L359 34A300 300 0 0 0 321 106zM600 -35A97 97 0 0 1 611 -51C646 -96 568 -86 552 -83A251 251 0 0 0 468 -52A322 322 0 0 1 600 -35z" />
    <glyph glyph-name="html5"
      unicode="&#xE18A;"
      horiz-adv-x="1024" d="M64 896H960L878 -24L511 -128L146 -24zM364 480L354 596H783L793 708H231L261 366H650L636 220L512 186L386 220L378 310H267L281 132L512 70L741 132L773 480H364z" />
    <glyph glyph-name="instagram"
      unicode="&#xE1DB;"
      horiz-adv-x="1024" d="M512 762C635 762 650 761 698 759C743 757 768 750 784 743C805 735 821 725 837 709C853 693 863 677 871 656C878 640 885 615 887 570C889 522 890 507 890 384S889 246 887 198C885 153 878 128 871 112C863 91 853 75 837 59C821 43 805 33 784 25C768 18 743 11 698 9C650 7 635 6 512 6S374 7 326 9C281 11 256 18 240 25A143 143 0 0 0 187 59A143 143 0 0 0 153 112C146 128 139 153 137 198C135 246 134 261 134 384S135 522 137 570C139 615 146 640 153 656C161 677 171 693 187 709C203 725 219 735 240 743C256 750 281 757 326 759C374 761 389 762 512 762zM512 845C387 845 371 844 322 842C273 840 239 832 210 821A226 226 0 0 1 129 767C103 742 87 716 75 686C64 657 56 623 54 574C52 525 51 509 51 384S52 243 54 194C56 145 64 111 75 82C87 52 103 26 129 1C154 -25 180 -41 210 -53C239 -64 273 -72 322 -74C371 -76 387 -77 512 -77S653 -76 702 -74C751 -72 785 -64 814 -53A226 226 0 0 1 895 1C921 26 937 52 949 82C960 111 968 145 970 194C972 243 973 259 973 384S972 525 970 574C968 623 960 657 949 686A226 226 0 0 1 895 767C870 793 844 809 814 821C785 832 751 840 702 842C653 844 637 845 512 845zM512 620A237 237 0 1 1 512 147A237 237 0 0 1 512 620zM512 230A154 154 0 1 0 512 537A154 154 0 0 0 512 230zM813 630A55 55 0 1 0 703 630A55 55 0 0 0 813 630z" />
    <glyph glyph-name="iu"
      unicode="&#xE209;"
      horiz-adv-x="1024" d="M919 480L748 199H646L869 566L762 752H230L336 568L0 16H443L333 208L553 568H655L434 207L544 16H853L1024 297z" />
    <glyph glyph-name="javascript"
      unicode="&#xE18B;"
      horiz-adv-x="1024" d="M973 896H51A51 51 0 0 1 0 845V-77A51 51 0 0 1 51 -128H973A51 51 0 0 1 1024 -77V845A51 51 0 0 1 973 896zM526 141A220 220 0 0 0 481 -8A164 164 0 0 0 351 -59A186 186 0 0 0 280 -46V56A101 101 0 0 1 343 35Q418 35 418 146V433H526zM925 17A125 125 0 0 0 883 -27A179 179 0 0 0 822 -52A353 353 0 0 0 748 -59A410 410 0 0 0 672 -53A230 230 0 0 0 610 -32V76A207 207 0 0 1 743 26A153 153 0 0 1 779 30A84 84 0 0 1 804 40A46 46 0 0 1 820 56A39 39 0 0 1 825 75A42 42 0 0 1 817 101A87 87 0 0 1 795 121A231 231 0 0 1 761 139C749 145 735 151 720 157A212 212 0 0 0 636 215A126 126 0 0 0 608 297A131 131 0 0 0 623 362A129 129 0 0 0 665 407A185 185 0 0 0 725 433A311 311 0 0 0 798 441A441 441 0 0 0 865 436A264 264 0 0 0 919 422V321A164 164 0 0 1 893 336A214 214 0 0 1 863 347A230 230 0 0 1 833 353A217 217 0 0 1 804 355A148 148 0 0 1 771 352A87 87 0 0 1 745 342A49 49 0 0 1 729 326A36 36 0 0 1 723 306A38 38 0 0 1 729 285A75 75 0 0 1 748 266A199 199 0 0 1 776 249C788 244 800 238 814 232A423 423 0 0 0 867 207A185 185 0 0 0 906 176A123 123 0 0 0 932 137A140 140 0 0 0 940 85A138 138 0 0 0 925 17z" />
    <glyph glyph-name="jest"
      unicode="&#xE195;"
      horiz-adv-x="1024" d="M949 392A133 133 0 0 1 850 520L978 896H346L474 519A133 133 0 0 1 434 283A353 353 0 0 0 388 230A347 347 0 0 0 279 160A89 89 0 0 0 242 264A133 133 0 1 1 109 298C107 294 105 290 103 285A514 514 0 0 1 51 146C34 42 62 -41 130 -88A217 217 0 0 1 256 -128A558 558 0 0 1 490 -51A855 855 0 0 0 656 18C676 23 698 26 720 29A362 362 0 0 1 855 67A191 191 0 0 1 949 199A196 196 0 0 1 930 321A133 133 0 0 1 949 392zM892 392A75 75 0 1 0 771 451V451C773 453 776 454 778 456C778 456 779 456 779 456C780 457 781 458 782 458H783A42 42 0 0 0 788 460C789 461 790 461 792 462C792 462 792 462 793 462C794 463 795 463 796 463C796 463 797 464 797 464C799 464 800 464 801 465H802L806 466A2 2 0 0 1 807 466C809 466 810 466 811 466H812C814 466 815 466 817 466H821A12 12 0 0 0 824 466H825C827 466 830 466 832 465A75 75 0 0 0 892 391zM429 837H895L788 521A120 120 0 0 1 775 517L662 747L549 519A109 109 0 0 1 535 522L429 837zM641 417A131 131 0 0 1 601 489L662 613L724 486A134 134 0 0 1 687 417H641zM492 464C494 465 495 465 496 465H497C498 466 499 466 501 466H502C503 466 504 466 505 466H517C518 466 519 466 520 466A3 3 0 0 0 521 466C522 465 523 465 524 465A2 2 0 0 0 525 465L530 464H530A14 14 0 0 0 533 463C534 463 534 462 535 462A12 12 0 0 0 538 461C538 461 538 461 538 461C540 460 541 460 542 459H543A15 15 0 0 0 547 457H547C548 457 549 456 550 455C551 455 551 455 551 455C552 454 553 453 554 453L555 453C558 450 561 447 565 444V444A75 75 0 1 0 492 464zM200 466A75 75 0 1 0 126 392A75 75 0 0 0 200 466zM890 209A131 131 0 0 0 825 118A316 316 0 0 0 712 88Q676 83 642 75A895 895 0 0 1 463 2A511 511 0 0 0 256 -69A155 155 0 0 0 164 -39C99 6 102 90 110 136A457 457 0 0 0 156 259C157 262 158 264 159 266A110 110 0 0 1 179 261A151 151 0 0 1 263 101L274 95L286 99A404 404 0 0 1 428 188A391 391 0 0 1 490 261A119 119 0 0 1 510 259A133 133 0 0 1 639 359H688A132 132 0 0 1 850 264A134 134 0 0 1 884 278A135 135 0 0 0 890 209z" />
    <glyph glyph-name="jira"
      unicode="&#xE177;"
      horiz-adv-x="1024" d="M996 413L513 896L28 413A41 41 0 0 1 28 355L513 -128L996 355A40 40 0 0 1 996 412zM513 233L361 384L513 535L665 384z" />
    <glyph glyph-name="jquery"
      unicode="&#xE1AD;"
      horiz-adv-x="1024" d="M65 646A430 430 0 0 1 55 207C56 204 58 201 60 197C61 195 62 193 63 191C64 190 64 189 65 188C66 185 68 183 69 181Q72 175 75 170L79 164C82 160 84 156 87 152C88 150 89 148 90 146C94 141 97 136 101 130L101 130C102 129 103 128 103 127C107 123 110 118 114 114C115 112 116 111 117 109C122 104 126 98 130 93S139 83 144 78L144 77Q158 62 172 49C174 47 175 46 177 44C181 40 186 35 191 31L194 29C198 25 203 21 207 18L212 13C216 10 220 8 223 5L229 0C233 -3 237 -6 242 -8C243 -10 245 -11 246 -12L247 -13C251 -15 255 -18 259 -20L264 -24C271 -28 277 -32 283 -35L288 -38C293 -41 298 -43 302 -46C305 -48 308 -49 310 -50S317 -54 320 -55L323 -56L327 -58Q336 -63 346 -67C352 -70 359 -72 365 -75L369 -77C376 -79 382 -82 389 -84S402 -88 409 -91L413 -92A200 200 0 0 1 434 -98C872 -178 999 166 999 166C892 27 702 -10 523 31C516 32 509 34 503 36C494 39 486 41 478 44L476 45C470 47 464 49 459 51L454 53C448 56 441 58 435 61L432 63C425 66 418 69 412 72C408 74 404 76 400 78C397 79 395 81 392 82C387 85 382 87 377 90L372 93Q363 99 353 104C352 106 350 107 348 108A462 462 0 0 0 335 117C334 118 332 119 331 120C326 123 322 126 318 129L312 133C307 137 301 142 296 146S287 154 282 158L280 159C275 164 270 168 265 173L261 177C258 180 254 184 251 187L246 191C242 196 237 200 233 205L232 206C228 211 224 216 219 221L216 225C212 229 209 233 206 237L203 242Q197 249 192 256A462 462 0 0 0 136 735M346 755A315 315 0 0 1 336 435A417 417 0 0 1 365 387A234 234 0 0 1 398 344C403 339 408 334 413 329L417 325C422 320 427 316 432 311L433 311C438 306 444 301 450 296L454 293C460 288 466 284 472 280L473 279C476 277 479 276 481 274C483 273 484 272 485 271C490 268 494 265 499 263L501 262C505 259 509 257 513 255L517 253C520 251 523 250 526 248L527 248C533 245 538 242 544 240C546 239 547 238 548 238C553 236 558 234 563 232L569 230Q575 227 582 225L588 223A144 144 0 0 1 607 218C946 162 1024 422 1024 422A322 322 0 0 0 672 310A422 422 0 0 0 647 318A365 365 0 0 0 627 325A292 292 0 0 0 613 330L609 332C603 335 597 337 591 340L582 345L577 347Q572 350 566 354L563 355A370 370 0 0 0 550 363L546 366A436 436 0 0 0 537 372Q527 378 518 385L514 389A408 408 0 0 0 376 586A306 306 0 0 0 400 831M583 837A197 197 0 0 1 567 647A268 268 0 0 1 721 503C724 502 727 501 730 500L733 499A99 99 0 0 1 746 496C933 460 983 592 996 611C952 547 877 532 786 554A222 222 0 0 0 764 561A266 266 0 0 0 691 600C609 662 558 781 612 877" />
    <glyph glyph-name="jupyter"
      unicode="&#xE245;"
      horiz-adv-x="1024" d="M902 827A69 69 0 1 0 764 827A69 69 0 0 0 902 827zM510 112C687 112 840 178 909 274A415 415 0 0 0 111 274C180 178 332 112 510 112zM510 665C687 665 840 599 909 503A415 415 0 0 1 111 503C180 599 332 665 510 665zM118 688A46 46 0 1 1 118 781A46 46 0 0 1 118 688zM192 -128A74 74 0 1 1 192 20A74 74 0 0 1 192 -128z" />
    <glyph glyph-name="kafka"
      unicode="&#xE1DC;"
      horiz-adv-x="1024" d="M683 335A126 126 0 0 1 591 294L533 329A151 151 0 0 1 536 433L596 469A132 132 0 1 1 562 526L504 491A162 162 0 0 1 413 545V619A126 126 0 1 1 347 619V544A163 163 0 0 1 347 226V151A126 126 0 1 1 413 151V225A163 163 0 0 1 498 272L560 235A126 126 0 1 1 683 334zM683 620A60 60 0 1 0 623 561A60 60 0 0 0 683 620zM320 740A60 60 0 1 0 380 680A60 60 0 0 0 320 740zM440 30A60 60 0 1 0 380 89A60 60 0 0 0 440 30zM381 289A96 96 0 1 0 478 385A96 96 0 0 0 381 289zM683 149A60 60 0 1 0 742 208A60 60 0 0 0 683 149z" />
    <glyph glyph-name="kibana"
      unicode="&#xE1A0;"
      horiz-adv-x="1024" d="M112 -25V896H912zM575 364L184 -87L148 -128H896A800 800 0 0 1 575 364z" />
    <glyph glyph-name="kinnosuke"
      unicode="&#xE1CB;"
      horiz-adv-x="1024" d="M979 166C961 225 1017 273 941 363C879 436 1062 732 758 863A335 335 0 0 1 375 795A564 564 0 0 0 502 549A322 322 0 0 0 774 699V617A240 240 0 1 1 774 137V55A322 322 0 0 0 485 236A568 568 0 0 0 220 -74A193 193 0 0 1 357 -68C426 -41 585 -165 689 -117S885 -116 958 -34C1041 59 994 114 979 166zM435 422A480 480 0 0 1 316 739A388 388 0 0 0 247 677C171 636 30 632 19 442C6 201 123 249 137 70A229 229 0 0 1 158 -14A483 483 0 0 1 435 422z" />
    <glyph glyph-name="knockoutjs"
      unicode="&#xE1A7;"
      horiz-adv-x="1024" d="M238 879Q243 881 249 883A366 366 0 0 0 358 892A233 233 0 0 0 457 866C464 863 470 859 476 855A205 205 0 0 0 564 737A256 256 0 0 0 569 658A352 352 0 0 0 551 576A416 416 0 0 0 519 500C532 515 547 528 560 544C582 570 811 812 861 859A113 113 0 0 0 893 878A101 101 0 0 0 932 885A67 67 0 0 0 995 837A83 83 0 0 0 995 796A301 301 0 0 0 910 688C857 632 689 455 659 423C661 418 664 412 666 407C671 392 792 63 794 58A71 71 0 0 1 853 29H951A102 102 0 0 0 994 18A67 67 0 0 0 1015 -74A92 92 0 0 0 977 -112A182 182 0 0 0 888 -125C857 -125 826 -126 795 -124A163 163 0 0 0 709 -102A139 139 0 0 0 672 -60C667 -50 663 -41 658 -32C655 -24 496 410 489 427A168 168 0 0 0 482 407S357 95 354 90A103 103 0 0 0 241 27A67 67 0 0 0 193 74A83 83 0 0 0 193 113A590 590 0 0 0 225 197L266 299L312 414Q330 459 348 503C352 512 355 520 358 529C361 535 388 603 395 631A103 103 0 0 1 396 695A90 90 0 0 1 339 738A137 137 0 0 1 264 729C259 727 254 724 248 721A184 184 0 0 1 163 608A142 142 0 0 1 162 549A96 96 0 0 1 216 485A213 213 0 0 0 259 465A62 62 0 0 0 271 379A85 85 0 0 0 229 343A165 165 0 0 0 67 388A313 313 0 0 0 24 447C20 456 17 466 12 475A322 322 0 0 0 0 586A359 359 0 0 0 10 640A260 260 0 0 0 26 688A352 352 0 0 0 79 771A347 347 0 0 0 238 879z" />
    <glyph glyph-name="laicon"
      unicode="&#xE145;"
      horiz-adv-x="1024" d="M179 184V595C179 601 182 604 189 604H280C287 604 290 601 290 595V278H481C487 278 489 275 489 269V184C489 178 487 175 481 175H189C182 175 179 178 179 184zM546 244C534 268 528 296 528 327C528 359 534 386 546 409C558 433 575 451 596 464C618 478 643 485 671 485C689 485 707 481 724 474C739 467 753 456 763 443L765 470C765 476 768 479 774 479H847C853 479 856 476 856 470V184C856 178 853 175 847 175H774C768 175 765 178 765 184L763 211C741 183 710 169 671 169C643 169 618 175 596 188C575 202 558 220 546 244zM634 327C634 307 639 291 651 278C663 266 678 259 697 259S731 266 743 278C754 291 760 307 760 327S754 363 743 375C731 388 716 394 697 394S663 388 651 375C639 363 634 347 634 327zM1024 896V-128H0V896H1024zM957 829H67V-61H957V829z" />
    <glyph glyph-name="laicon-alt"
      unicode="&#xE144;"
      horiz-adv-x="1024" d="M1024 896V-128H0V896H1024zM983 855H41V-87H983V855zM678 494C694 494 740 495 772 473C805 452 814 406 814 389V185C807 185 744 184 739 185C736 190 734 211 734 211C723 198 707 191 699 187C691 183 665 176 657 176C625 175 590 179 571 195C556 208 554 216 547 229C539 243 539 285 553 311C566 337 590 346 601 351C620 359 683 367 694 369C703 371 717 374 723 379C728 384 732 394 732 401C732 407 730 414 721 422C712 430 692 433 679 433C665 433 652 428 644 422C637 416 626 401 626 388H553C553 426 565 452 592 472C620 492 663 494 678 494zM295 592V259H498V185H211V592H295zM734 332C729 329 724 325 717 322C710 320 697 317 689 316C681 314 670 313 662 310C653 307 642 303 635 297C627 292 622 279 622 268C622 252 629 235 655 234C669 234 686 235 700 244C715 253 727 266 732 291z" />
    <glyph glyph-name="ldsm-back"
      unicode="&#xE1C0;"
      horiz-adv-x="1024" d="M513 849L567 795L157 384L567 -27L513 -81L48 384z" />
    <glyph glyph-name="ldsm-bag"
      unicode="&#xE1BF;"
      horiz-adv-x="1024" d="M512 876C610 876 689 799 694 702L694 692L694 669L830 669A38 38 0 0 0 867 639L868 634L922 93C933 -16 847 -111 738 -111H286C177 -111 91 -16 102 93L156 634A38 38 0 0 0 194 669L330 669L330 692C330 793 411 876 512 876zM795 592H694V554A38 38 0 0 0 618 549L617 554V592H407L407 554A38 38 0 0 0 330 549L330 554L330 592H229L179 85C172 24 218 -29 278 -33L286 -34H738C802 -34 852 22 845 85L795 592zM512 799C456 799 411 755 407 700L407 692L407 669H617V692C617 751 570 799 512 799z" />
    <glyph glyph-name="ldsm-bell"
      unicode="&#xE1BE;"
      horiz-adv-x="1024" d="M512 851C711 851 873 690 873 491V253C873 196 890 140 922 94C939 68 921 34 890 34L550 34L550 -77H474L474 34L134 34C105 34 87 64 100 89L102 94C134 140 151 196 151 253V491C151 690 313 851 512 851zM512 775C355 775 228 648 228 491V253A360 360 0 0 0 202 118L199 111H825L822 118A359 359 0 0 0 796 238L796 253V491C796 648 669 775 512 775z" />
    <glyph glyph-name="ldsm-burger"
      unicode="&#xE1BD;"
      horiz-adv-x="1024" d="M922 125V48H102V125H922zM922 422V346H102V422H922zM922 720V643H102V720H922z" />
    <glyph glyph-name="ldsm-cart"
      unicode="&#xE1CE;"
      horiz-adv-x="1024" d="M310 77C353 77 387 42 387 0S353 -77 310 -77C268 -77 233 -42 233 0S268 77 310 77zM773 77C816 77 850 42 850 0S816 -77 773 -77S696 -42 696 0S731 77 773 77zM113 883C129 883 144 873 149 857L150 852L182 693H923C953 693 983 677 986 646L987 640L986 632L903 194L903 192C899 164 874 148 846 146L839 146H266C233 146 202 164 202 199L202 194V194L134 538L81 806H-102V883H113zM905 616H197L211 544L233 434L233 434L274 222H830L905 616z" />
    <glyph glyph-name="ldsm-chart"
      unicode="&#xE1BB;"
      horiz-adv-x="1024" d="M874 127V45H361V127H874zM252 127V45H156V127H252zM874 425V343H361V425H874zM252 425V343H156V425H252zM874 722V640H361V722H874zM252 722V640H156V722H252z" />
    <glyph glyph-name="ldsm-close"
      unicode="&#xE1BC;"
      horiz-adv-x="1024" d="M852 763L906 709L574 377L906 44L852 -10L519 322L187 -10L133 44L465 377L133 709L187 763L519 431L852 763z" />
    <glyph glyph-name="ldsm-file"
      unicode="&#xE1BA;"
      horiz-adv-x="1024" d="M321 850L321 776H703L703 850H780L780 776L896 776C930 776 959 750 962 716L963 709V-2C963 -39 933 -69 896 -69H128C91 -69 61 -39 61 -2V709C61 746 91 776 128 776L244 776L244 850H321zM886 522H138L138 8H886L886 522zM808 148V72H741V148H808zM886 699H138L138 599H886L886 699z" />
    <glyph glyph-name="ldsm-heart"
      unicode="&#xE1B9;"
      horiz-adv-x="1024" d="M549 738L512 701L475 738C370 843 201 843 97 738C-7 634 -7 465 97 361L512 -54L927 361C1031 465 1031 634 927 738C823 843 654 843 549 738zM420 684L512 592L604 684C678 758 798 758 872 684C947 610 947 490 872 415L512 55L152 415C77 490 77 610 152 684C226 758 346 758 420 684z" />
    <glyph glyph-name="ldsm-home"
      unicode="&#xE1B8;"
      horiz-adv-x="1024" d="M960 501L512 842L64 501V41C64 -18 114 -66 175 -66H433L433 171H591L591 -66H849C910 -66 960 -18 960 41V501zM512 745L883 463V41L883 37C880 22 867 11 849 11H668L668 248H356L356 11H175L170 11C153 13 141 26 141 41V463L512 745z" />
    <glyph glyph-name="ldsm-magnify"
      unicode="&#xE1B7;"
      horiz-adv-x="1024" d="M413 836C608 836 766 678 766 483C766 400 737 323 688 263L962 -11L908 -65L634 208C574 160 497 131 413 131C219 131 61 289 61 483C61 678 219 836 413 836zM413 759C261 759 138 636 138 483C138 331 261 208 413 208C566 208 689 331 689 483C689 636 566 759 413 759z" />
    <glyph glyph-name="ldsm-search-magnifier"
      unicode="&#xE1D0;"
      horiz-adv-x="1024" d="M219 440A237 237 0 1 0 694 440A237 237 0 0 0 219 440zM456 761A321 321 0 1 1 652 185L819 18L878 77L711 244A321 321 0 0 1 456 761z" />
    <glyph glyph-name="ldsm-search-microphone"
      unicode="&#xE1CF;"
      horiz-adv-x="1024" d="M306 653C306 768 397 866 519 866C634 866 732 774 732 653V433C732 318 641 220 519 220C404 220 306 311 306 433V653zM519 782A128 128 0 0 1 390 653V433A128 128 0 0 1 519 304A128 128 0 0 1 648 433V653A128 128 0 0 1 519 782zM477 61C304 80 170 216 150 389L233 399C250 253 370 142 519 142C668 142 788 253 805 399L888 389C868 216 734 80 561 61V-105H477V61z" />
    <glyph glyph-name="ldsm-setting"
      unicode="&#xE1B6;"
      horiz-adv-x="1024" d="M588 873C616 873 640 852 644 824L658 724L673 717A365 365 0 0 0 720 690L733 681L827 719A57 57 0 0 0 842 723L849 723C869 723 888 712 898 695L972 568C986 543 980 511 957 494L878 432L879 419L880 403L881 388C881 373 880 358 878 344L878 346L958 283C979 267 986 239 976 215L973 210L899 83A57 57 0 0 0 850 54A57 57 0 0 0 829 58L735 96L722 86A362 362 0 0 0 675 59L660 53L646 -48A57 57 0 0 0 596 -97L590 -97H443C415 -97 390 -76 386 -48L372 52L358 58A365 365 0 0 0 311 85L298 95L203 57A57 57 0 0 0 189 53L182 52C162 52 143 63 133 81L59 208C45 233 51 264 73 282L153 344L151 357A373 373 0 0 0 150 373L150 388C150 402 151 417 153 432L153 430L73 492C52 509 45 537 55 560L58 566L132 693A57 57 0 0 0 181 722C188 722 195 720 202 718L296 680L309 689A363 363 0 0 0 356 716L370 723L385 824A57 57 0 0 0 435 873L441 873zM571 796H458L441 670L402 653A286 286 0 0 1 341 618L308 592L189 640L133 542L234 464L229 423A299 299 0 0 1 227 388C227 376 228 364 229 351L235 310L134 232L190 134L309 182L342 157C361 143 382 131 404 122L442 106L460 -20H573L590 106L628 122A284 284 0 0 1 690 158L723 184L841 136L898 233L797 312L802 353A286 286 0 0 1 804 388C804 400 803 412 802 424L796 466L897 544L840 642L722 594L689 618A287 287 0 0 1 627 654L588 670L571 796zM515 550C605 550 677 477 677 388S605 226 515 226C426 226 354 298 354 388C354 477 426 550 515 550zM515 473C468 473 430 435 430 388S468 303 515 303S600 341 600 388S562 473 515 473z" />
    <glyph glyph-name="ldsm-share"
      unicode="&#xE1B4;"
      horiz-adv-x="1024" d="M196 433L196 38H828L828 433H905V25C905 -8 880 -35 848 -38L841 -38H183C150 -38 123 -13 119 19L119 25V433H196zM512 821L725 619L673 563L550 679L550 256L473 256L474 679L351 563L298 619L512 821z" />
    <glyph glyph-name="ldsm-share-aos"
      unicode="&#xE1B5;"
      horiz-adv-x="1024" d="M731 819C809 819 873 756 873 678S809 537 731 537A141 141 0 0 0 633 577L376 428C380 414 383 399 383 384C383 368 380 353 376 339L633 191A141 141 0 0 0 731 231C809 231 873 167 873 89S809 -52 731 -52S590 11 590 89C590 101 592 113 594 124L332 276A141 141 0 0 0 241 242C163 242 100 306 100 384S163 525 241 525C276 525 308 513 332 492L594 643A142 142 0 0 0 590 678C590 756 653 819 731 819zM731 154C696 154 667 125 667 89C667 54 696 25 731 25C767 25 796 54 796 89C796 125 767 154 731 154zM241 448C206 448 177 419 177 384C177 348 206 319 241 319C277 319 306 348 306 384C306 419 277 448 241 448zM731 743C696 743 667 714 667 678C667 643 696 614 731 614C767 614 796 643 796 678C796 714 767 743 731 743z" />
    <glyph glyph-name="ldsm-star"
      unicode="&#xE1B3;"
      horiz-adv-x="1024" d="M346 596L47 565L42 564C14 557 3 522 24 500L242 273L191 -22L190 -27C189 -56 220 -76 246 -62L512 74L778 -62L782 -64C809 -74 838 -51 833 -22L782 273L1000 500L1004 504C1021 527 1007 562 977 565L678 596L546 862C532 890 492 890 478 862L346 596zM512 758L618 543L621 538A38 38 0 0 1 649 521L891 496L713 312L710 308A38 38 0 0 1 703 279L744 41L530 151L524 154A38 38 0 0 1 494 151L280 41L321 279L321 284A38 38 0 0 1 311 312L133 496L375 521A38 38 0 0 1 406 543L512 758z" />
    <glyph glyph-name="ldsm-write"
      unicode="&#xE1B2;"
      horiz-adv-x="1024" d="M926 14V-62H98V14H926zM642 846L853 635L303 85H92V297L642 846zM641 738L168 265V162H271L744 635L641 738z" />
    <glyph glyph-name="linkedin"
      unicode="&#xE1D6;"
      horiz-adv-x="1024" d="M251 749C251 697 212 655 149 655C90 655 50 697 51 749C50 804 90 845 151 845C211 845 250 804 251 749zM56 -27V580H245V-27H56zM396 386C396 462 394 527 391 580H555L564 497H568C593 535 655 594 755 594C880 594 973 512 973 333V-27H784V309C784 388 757 441 688 441C636 441 605 405 593 370C588 358 585 340 585 323V-27H396V386H396z" />
    <glyph glyph-name="linux"
      unicode="&#xE24B;"
      horiz-adv-x="1024" d="M853 182C878 172 885 150 890 126C894 107 901 90 914 75C921 67 927 58 931 48C939 30 935 14 920 2A155 155 0 0 0 895 -14C881 -22 867 -28 853 -36C833 -46 816 -59 802 -76C783 -97 762 -113 735 -122C687 -138 642 -120 625 -74A10 10 0 0 1 618 -69C595 -66 572 -65 550 -62C517 -57 484 -63 452 -69C450 -69 447 -70 445 -70C428 -71 415 -76 403 -92C383 -117 352 -120 322 -115A200 200 0 0 0 266 -99C235 -84 202 -76 169 -73A300 300 0 0 0 126 -66C97 -59 86 -42 90 -13C90 -7 91 -1 93 4C101 23 100 42 97 61C89 108 100 126 145 142C160 147 172 155 181 168C188 178 198 185 202 195C205 205 201 218 202 229C204 276 220 320 241 361C265 407 295 449 327 490C363 534 379 586 377 642C376 678 374 713 375 749C376 767 380 786 385 803C398 847 428 875 472 888A214 214 0 0 0 566 893C617 885 650 855 667 807C680 772 684 736 685 700C685 682 686 665 685 648C682 602 696 562 723 526C747 495 771 466 794 434C822 396 843 354 855 307C865 267 866 228 854 188C854 186 853 185 853 182zM379 46C395 14 413 -2 445 -13C449 -15 453 -16 458 -18C522 -34 579 -17 632 18A10 10 0 0 1 636 24C641 44 646 64 649 84C653 111 655 138 660 165C664 185 676 202 696 212C699 213 701 217 701 220C706 242 719 251 741 249C763 246 783 237 801 225C815 217 827 206 823 187C830 185 832 188 833 193A35 35 0 0 1 818 226A382 382 0 0 1 777 252C772 255 770 257 771 264C773 271 773 279 773 287C772 349 744 399 701 442C700 444 698 444 696 445L695 443C697 440 699 436 702 433C721 414 735 391 745 366C758 336 762 304 753 272C752 269 747 264 746 264C739 266 729 260 727 273A397 397 0 0 1 688 381A1052 1052 0 0 0 608 580C608 581 607 583 606 584C601 579 596 575 590 571C584 567 578 563 572 560C560 554 547 548 536 541C496 518 468 521 434 550C426 557 417 563 409 569C404 546 401 525 395 505C382 459 362 415 341 372C323 333 308 293 303 250C302 241 302 233 301 225L297 224C292 236 286 248 283 260C274 293 281 326 294 356C302 376 312 394 321 413C323 417 324 421 325 425L323 426C320 421 317 416 314 411C293 376 275 340 267 299C258 247 275 207 320 178C324 176 328 173 332 170C349 157 366 143 382 129C395 117 405 103 410 86C416 64 408 51 386 47L379 46zM336 -104C342 -103 349 -103 356 -102C387 -97 406 -77 409 -48C411 -32 405 -18 397 -5C387 11 376 25 365 40C353 56 340 72 329 90C315 112 304 137 290 160A105 105 0 0 1 263 188C244 202 224 199 208 181C201 173 195 165 189 156A69 69 0 0 0 154 131A205 205 0 0 1 130 122C115 115 107 102 108 86C108 76 109 66 111 56C114 39 114 22 107 6C105 0 104 -7 103 -14C100 -35 107 -48 129 -53C141 -56 154 -58 167 -59C204 -63 239 -70 272 -88C292 -98 313 -103 336 -104zM699 198A38 38 0 0 1 678 174C672 157 667 139 666 121A476 476 0 0 0 643 -1A241 241 0 0 1 635 -40C633 -52 634 -65 641 -77C657 -108 687 -122 723 -112C752 -104 775 -87 794 -65C808 -49 824 -36 843 -26C854 -20 865 -15 876 -9C887 -3 898 3 909 10C923 19 925 30 918 46A148 148 0 0 1 898 74A86 86 0 0 0 880 110C877 121 875 133 871 143A55 55 0 0 1 860 162C852 170 841 172 830 173C820 173 813 170 805 164C793 155 779 147 765 142C740 133 720 142 709 166C705 175 702 186 699 198zM488 673C476 673 488 673 488 673A66 66 0 0 1 445 657C431 646 417 634 403 623C392 614 389 604 397 593C402 585 409 579 416 573C426 564 438 557 448 548C462 536 478 531 496 534C507 536 517 541 527 545C542 552 556 560 570 567C576 571 583 574 589 579C616 601 613 624 581 637C579 638 577 639 575 640C559 647 543 655 527 662C514 667 500 673 488 673zM566 651C573 648 579 645 586 643C588 643 593 644 594 646C614 672 609 722 584 743C566 758 544 759 527 743C509 727 503 706 505 683C505 681 507 678 508 677C515 675 523 672 528 671C532 682 534 693 538 703A18 18 0 0 0 555 715C564 714 569 709 572 702C579 685 579 668 566 651zM449 670C454 672 459 674 464 676C465 677 467 679 468 681C473 699 459 732 443 741C433 746 422 746 414 739A57 57 0 0 1 400 720A77 77 0 0 1 404 652C411 639 414 639 424 649C425 649 425 650 425 651A45 45 0 0 0 415 690C417 697 419 706 428 707C438 708 442 700 444 692C447 685 447 678 449 670zM582 617A3 3 0 0 0 582 613A189 189 0 0 0 499 566C477 560 456 565 437 577C427 584 419 592 410 599A1072 1072 0 0 0 405 604A4 4 0 1 0 410 609L411 608C422 598 432 588 444 580C461 568 481 565 502 572A175 175 0 0 1 577 617A3 3 0 0 0 582 617z" />
    <glyph glyph-name="lodash"
      unicode="&#xE1AC;"
      horiz-adv-x="1024" d="M95 217H473V139H0V850H95zM968 221A229 229 0 0 0 799 130A266 266 0 0 0 603 178A268 268 0 0 0 517 351A296 296 0 0 0 560 560A219 219 0 0 0 734 664A241 241 0 0 0 920 616A231 231 0 0 0 1011 443A326 326 0 0 0 968 221zM924 430A218 218 0 0 1 872 551A169 169 0 0 1 746 590A150 150 0 0 1 625 503A305 305 0 0 1 608 338A179 179 0 0 1 673 234A149 149 0 0 1 794 204A151 151 0 0 1 903 286A270 270 0 0 1 924 430zM0 -82H1024V26H0z" />
    <glyph glyph-name="mastodon"
      unicode="&#xE293;"
      horiz-adv-x="1024" d="M945 641C931 740 844 818 741 833C724 835 658 845 505 845H504C351 845 318 836 301 833C200 818 109 748 86 648C76 599 75 544 77 494C79 422 80 350 87 278C91 231 99 183 110 137C131 51 217 -20 301 -50C391 -80 487 -85 579 -64A408 408 0 0 1 610 -56C632 -49 658 -41 678 -27A2 2 0 0 1 679 -25V44A2 2 0 0 1 676 46A779 779 0 0 0 495 25C390 25 362 74 354 95A215 215 0 0 0 342 150A2 2 0 0 0 344 152C403 138 462 131 522 131C537 131 551 131 566 131C626 133 689 136 749 148C750 148 752 148 753 149C846 166 935 222 944 364C945 369 946 422 946 428C946 448 952 567 945 641zM801 288H702V526C702 577 681 602 638 602C591 602 567 572 567 512V381H470V512C470 572 446 602 399 602C356 602 335 577 335 526V288H236V534C236 584 249 624 275 654C302 683 337 698 380 698C431 698 469 679 494 641L519 600L543 641C568 679 606 698 657 698C700 698 735 683 762 654C788 624 801 584 801 534L801 288z" />
    <glyph glyph-name="meteorjs"
      unicode="&#xE1A5;"
      horiz-adv-x="1024" d="M1016 223A29 29 0 0 0 979 220L512 722L1019 257A27 27 0 0 0 1016 223zM964 385L752 613L984 402A12 12 0 0 0 982 386A15 15 0 0 0 964 385zM998 83A41 41 0 0 0 946 79L278 797L1004 132A39 39 0 0 0 998 83zM930 -38A41 41 0 0 0 877 -41L0 884L935 11A39 39 0 0 0 930 -38zM803 -105A41 41 0 0 0 750 -108L83 610L808 -56A39 39 0 0 0 803 -104zM650 -106A29 29 0 0 0 613 -109L147 393L654 -72A27 27 0 0 0 650 -106zM493 -65A15 15 0 0 0 475 -67L264 161L495 -49A12 12 0 0 0 493 -65z" />
    <glyph glyph-name="microsoft"
      unicode="&#xE292;"
      horiz-adv-x="1024" d="M92 804H490V406H92V804zM534 804H932V406H534V804zM92 362H490V-36H92V362zM534 362H932V-36H534" />
    <glyph glyph-name="microsoft-excel"
      unicode="&#xE148;"
      horiz-adv-x="1024" d="M898 832C932 832 960 804 960 770V-2C960 -36 932 -64 898 -64H126C92 -64 64 -36 64 -2V770C64 804 92 832 126 832zM131 3L233 3V596H130L131 3zM893 596H300V3L893 3L893 596zM534 446L608 332H610L685 446H766L652 288V287L765 128H682L605 240H603L526 128H447L558 288V289L448 446H534zM893 663L893 765L300 765V663H893zM233 765L131 765L130 663H233V765z" />
    <glyph glyph-name="microsoft-powerpoint"
      unicode="&#xE149;"
      horiz-adv-x="1024" d="M512 819V384H947C947 144 752 -51 512 -51S77 144 77 384S272 819 512 819zM445 747C274 715 143 565 143 384C143 181 309 15 512 15C693 15 843 146 875 317H445zM914 551V485H612V551H914zM914 668V602H612V668H914zM914 786V719H612V786H914z" />
    <glyph glyph-name="microsoft-word"
      unicode="&#xE14A;"
      horiz-adv-x="1024" d="M930 72V5H100V72H930zM930 210V143H100V210H930zM930 348V282H100V348H930zM930 486V420H584V486H930zM163 755L213 526H214L273 755H329L389 526H390L440 755H509L425 439H362L302 655H300L240 439H178L94 755H163zM930 625V558H584V625H930zM930 763V696H584V763H930z" />
    <glyph glyph-name="miro"
      unicode="&#xE198;"
      horiz-adv-x="1024" d="M1000 775A222 222 0 0 1 903 872C855 896 793 896 669 896H355C231 896 169 896 121 872A222 222 0 0 1 24 775C0 727 0 665 0 541V227C0 103 0 41 24 -7A222 222 0 0 1 121 -104C169 -128 231 -128 355 -128H669C793 -128 855 -128 903 -104A222 222 0 0 1 1000 -7C1024 41 1024 103 1024 227V541C1024 665 1024 727 1000 775zM698 9H588L686 588L480 9H371L468 541L263 9H154L249 505L154 760H263L468 562L371 760H480L686 609L588 760H698L905 645z" />
    <glyph glyph-name="mlflow"
      unicode="&#xE1DF;"
      horiz-adv-x="1024" d="M512 -87A467 467 0 0 0 238 1L201 28L552 287V148A240 240 0 0 1 686 548L660 576L851 712L871 689A471 471 0 0 0 512 -87zM316 30A404 404 0 0 1 839 622L759 565A306 306 0 0 0 519 78L485 77V156zM155 75L136 100A471 471 0 0 0 776 774L815 748L479 500V621A240 240 0 0 1 272 384A237 237 0 0 1 323 236L345 208L317 188C255 144 182 93 182 93zM512 788A405 405 0 0 1 108 384A401 401 0 0 1 171 167C191 181 221 202 251 223A303 303 0 0 0 206 384A307 307 0 0 0 512 690H545V632L697 744A402 402 0 0 1 512 788z" />
    <glyph glyph-name="nextjs"
      unicode="&#xE1A2;"
      horiz-adv-x="1024" d="M478 896C476 896 469 895 463 894A513 513 0 0 1 95 682A506 506 0 0 1 5 458A392 392 0 0 1 0 384A392 392 0 0 1 5 309A514 514 0 0 1 355 -104A542 542 0 0 1 463 -127A950 950 0 0 1 561 -127A516 516 0 0 1 745 -73C754 -68 756 -67 755 -66S716 -15 671 46L589 156L487 308C431 392 384 460 384 460S383 393 383 310A1147 1147 0 0 0 380 157A18 18 0 0 0 372 148C368 146 366 146 351 146H333L329 148A19 19 0 0 0 322 156L320 160V361L320 562L323 566A28 28 0 0 0 331 572C335 574 336 574 354 574C374 574 377 573 383 567C384 566 440 482 506 381S664 143 708 75L789 -48L793 -45A526 526 0 0 1 899 47A510 510 0 0 1 1019 309A392 392 0 0 1 1024 384A392 392 0 0 1 1019 459A514 514 0 0 1 669 872A535 535 0 0 1 563 895C553 896 487 897 479 896zM688 586A20 20 0 0 0 698 574C699 572 699 516 699 391V211L667 259L635 308V439C635 523 636 571 636 573A20 20 0 0 0 646 586C650 588 652 588 668 588C682 588 685 588 688 586z" />
    <glyph glyph-name="nodejs"
      unicode="&#xE192;"
      horiz-adv-x="1024" d="M660 364A2 2 0 0 0 662 362V336A2 2 0 0 0 660 334L637 321A3 3 0 0 0 635 321L611 334A2 2 0 0 0 610 336V362A2 2 0 0 0 611 364L635 377A2 2 0 0 0 635 377A3 3 0 0 0 637 377zM986 616V152A48 48 0 0 0 960 110L538 -121A53 53 0 0 0 487 -121L64 110A48 48 0 0 0 38 152V616A49 49 0 0 0 64 659L486 890A53 53 0 0 0 537 890L960 659A49 49 0 0 0 986 616zM297 389A8 8 0 0 1 293 396L223 434A9 9 0 0 1 219 435H219A9 9 0 0 1 215 434L145 396A8 8 0 0 1 141 389V286A4 4 0 0 1 143 283A4 4 0 0 1 147 283L189 305A8 8 0 0 1 193 312V360A8 8 0 0 0 197 367L215 377A8 8 0 0 0 219 378A9 9 0 0 0 223 377L241 367A8 8 0 0 0 245 360V312A8 8 0 0 1 249 305L290 283A4 4 0 0 1 295 283A4 4 0 0 1 297 286zM505 388A8 8 0 0 1 501 395L432 433A9 9 0 0 1 423 433L354 395A8 8 0 0 1 350 388V312A8 8 0 0 1 354 305L423 267A9 9 0 0 1 432 267L501 305A8 8 0 0 1 505 312zM714 500A8 8 0 0 1 710 507L668 529A4 4 0 0 1 666 530A4 4 0 0 1 664 529A4 4 0 0 1 662 526V425A3 3 0 0 0 661 422A3 3 0 0 0 658 422L640 432A9 9 0 0 1 632 432L562 394A8 8 0 0 1 558 387V310A8 8 0 0 1 562 303L632 265A9 9 0 0 1 640 265L710 303A8 8 0 0 1 714 310zM921 388A8 8 0 0 1 917 395L848 433A9 9 0 0 1 844 434A9 9 0 0 1 840 433L770 395A8 8 0 0 1 766 388V312A8 8 0 0 1 770 305L839 267A9 9 0 0 1 847 267L889 289A4 4 0 0 1 891 293A4 4 0 0 1 889 296L819 334A4 4 0 0 0 817 338V362A4 4 0 0 0 819 365L841 377A4 4 0 0 0 845 377L867 365A4 4 0 0 0 869 362V343A4 4 0 0 1 871 339A4 4 0 0 1 875 339L917 362A8 8 0 0 1 921 369zM858 359L844 366A2 2 0 0 1 844 366A2 2 0 0 1 843 366L829 358A2 2 0 0 1 829 357V343A2 2 0 0 1 829 341L843 334A2 2 0 0 1 844 334L858 341A2 2 0 0 1 859 343V357A2 2 0 0 1 858 358z" />
    <glyph glyph-name="note-com"
      unicode="&#xE1D5;"
      horiz-adv-x="1024" d="M154 734C292 734 481 741 616 738C799 733 867 654 869 458C872 347 869 29 869 29H672C672 307 673 353 672 440C670 517 648 554 589 561C526 568 351 562 351 562V29H154V734z" />
    <glyph glyph-name="npm"
      unicode="&#xE191;"
      horiz-adv-x="1024" d="M0 896V-128H1024V896zM805 91H658V530H512V91H219V677H805z" />
    <glyph glyph-name="nuxtjs"
      unicode="&#xE1A1;"
      horiz-adv-x="1024" d="M1016 95L720 608A61 61 0 0 1 614 608L584 556L482 734A61 61 0 0 1 377 734L8 95A61 61 0 0 1 61 4H963A61 61 0 0 1 1016 95zM319 95A61 61 0 0 1 310 64H61L429 703L549 495zM371 65L585 434L798 65zM859 65A61 61 0 0 1 851 95L620 495L667 577L963 65z" />
    <glyph glyph-name="oasis"
      unicode="&#xE19E;"
      horiz-adv-x="1024" d="M673 655H511V493H673V655zM433 113A271 271 0 1 0 433 655L511 655V816H433A433 433 0 1 1 862 334H699A271 271 0 0 0 433 113zM1024 496H862V334H1024V496zM835 817H673V655H835V817zM433 113A271 271 0 1 0 433 655L511 655V816H433A433 433 0 1 1 862 334H699A271 271 0 0 0 433 113z" />
    <glyph glyph-name="okta"
      unicode="&#xE299;"
      horiz-adv-x="1024" d="M558 839L539 605A238 238 0 0 1 478 604L468 717A6 6 0 0 0 474 724H493L484 838C483 842 486 845 490 845H552C556 845 559 842 558 838V839zM400 827C399 830 395 833 392 831L333 810A6 6 0 0 1 330 802L378 697L359 690A6 6 0 0 1 356 682L405 579A220 220 0 0 0 462 601L400 827H400zM255 762L391 571C374 560 358 546 345 531L264 611A6 6 0 0 0 264 620L279 632L198 714A6 6 0 0 0 199 723L246 763A6 6 0 0 0 255 762H255zM142 651C139 653 135 652 133 649L102 595A6 6 0 0 1 104 587L208 537L199 521C197 518 198 514 201 512L305 465C312 484 322 502 335 518L142 651zM65 504C66 507 69 509 73 509L299 449A224 224 0 0 1 290 389L176 398A6 6 0 0 0 171 405L174 424L59 435C56 436 54 439 54 442L65 504L65 504zM57 351C53 350 51 347 51 343L62 282C63 278 66 276 70 277L181 306L184 287C185 283 188 281 192 282L301 312A222 222 0 0 0 290 372L56 351H57zM93 188A6 6 0 0 0 96 197L307 297C315 278 326 260 339 245L246 179A6 6 0 0 0 237 180L228 197L133 132C130 130 126 131 124 134L93 188H93zM349 232L185 66C182 63 182 59 185 57L233 16C236 14 240 15 242 17L309 111L324 99A6 6 0 0 1 333 100L397 194A230 230 0 0 0 350 232H349zM317 -35A6 6 0 0 0 314 -27L411 186C429 177 449 170 469 166L440 56A6 6 0 0 0 432 52L414 58L384 -53C383 -56 379 -58 376 -57L317 -35L317 -35zM485 163L466 -71C466 -74 469 -77 472 -77H535C538 -77 541 -74 541 -71L531 44H551A6 6 0 0 1 557 51L546 164A210 210 0 0 0 485 163zM711 796A6 6 0 0 1 708 804L649 825C645 827 642 825 641 821L610 710L592 717A6 6 0 0 1 584 713L555 603C576 599 595 592 613 583L711 796zM840 703L675 536A224 224 0 0 1 627 575L692 668A6 6 0 0 0 701 670L716 657L782 751A6 6 0 0 0 791 752L839 712A6 6 0 0 0 840 703H840zM929 571A6 6 0 0 1 931 580L900 634A6 6 0 0 1 891 636L796 571L787 588C785 591 781 592 778 589L685 523C698 507 709 490 717 471L928 571L929 571zM962 486L973 425A6 6 0 0 0 967 417L734 396C733 417 729 437 722 456L832 486A6 6 0 0 0 840 481L843 462L954 491C957 492 961 490 961 486L962 486zM951 260C955 259 958 261 959 264L970 326A6 6 0 0 1 964 333L850 344L853 363A6 6 0 0 1 848 370L734 379A224 224 0 0 0 724 319L951 260L951 260zM891 119A6 6 0 0 0 882 117L689 250C702 266 712 284 719 303L823 256C826 254 827 250 825 247L816 231L920 182C923 180 924 176 922 173L891 119zM633 197L769 6C771 3 775 3 777 5L825 46A6 6 0 0 1 826 54L745 136L760 148C763 151 763 155 760 157L679 237C665 222 650 208 633 197H633zM632 -63C628 -64 625 -62 624 -59L562 167A220 220 0 0 1 619 189L668 86C669 83 668 79 665 78L646 71L694 -33C696 -37 694 -40 691 -41L632 -63H632z" />
    <glyph glyph-name="opensearch"
      unicode="&#xE271;"
      horiz-adv-x="1024" d="M964 513C945 513 930 498 930 479C930 196 700 -34 417 -34A34 34 0 1 1 417 -102C738 -102 998 158 998 479C998 498 983 513 964 513zM756 293C790 347 821 419 815 519C802 728 613 886 435 869C365 862 293 805 300 703C302 659 324 633 359 613C393 594 436 582 485 568C544 551 612 533 665 494C728 447 771 393 756 293zM85 658C52 604 20 532 26 431C39 222 228 64 407 81C477 88 548 145 542 247C539 291 518 317 482 337C449 357 406 369 357 383C298 399 229 418 177 456C114 503 71 557 85 658z" />
    <glyph glyph-name="opera-web"
      unicode="&#xE1EB;"
      horiz-adv-x="1024" d="M512 858A474 474 0 1 1 986 384A474 474 0 0 1 512 858zM105 384A407 407 0 0 0 775 694L687 606A283 283 0 0 1 290 209L202 121A405 405 0 0 0 105 384zM295 384A217 217 0 1 0 512 167A217 217 0 0 0 295 384zM512 -23A405 405 0 0 0 249 74L337 162A283 283 0 0 1 734 559L822 647A407 407 0 0 0 512 -23z" />
    <glyph glyph-name="pinterest"
      unicode="&#xE1D9;"
      horiz-adv-x="1024" d="M515 845C260 845 51 632 51 372C51 177 167 12 329 -59C329 -24 329 12 335 47C347 89 393 307 393 307S376 337 376 384C376 455 416 508 463 508C503 508 526 479 526 437C526 396 497 331 486 272C474 225 509 183 561 183C648 183 706 295 706 437C706 543 637 620 515 620C376 620 289 514 289 396C289 354 300 325 318 301C324 289 329 289 324 278C324 272 318 248 312 242C306 230 300 225 289 230C225 260 196 331 196 414C196 549 306 709 526 709C706 709 822 579 822 437C822 254 723 112 573 112C521 112 474 142 457 171C457 171 428 65 422 41A528 528 0 0 0 376 -59C416 -71 463 -77 509 -77C764 -77 973 136 973 396C978 632 770 845 515 845z" />
    <glyph glyph-name="polymer"
      unicode="&#xE1A4;"
      horiz-adv-x="1024" d="M1024 384L819 29H614L819 384L717 562L410 29H205L0 384L205 739H410L205 384L307 206L614 739H819z" />
    <glyph glyph-name="preactjs"
      unicode="&#xE1A9;"
      horiz-adv-x="1024" d="M594 490A979 979 0 0 1 512 547A967 967 0 0 1 429 490A937 937 0 0 1 315 384A935 935 0 0 1 430 279A979 979 0 0 1 512 221A967 967 0 0 1 595 278A937 937 0 0 1 709 384A935 935 0 0 1 594 490zM512 316A68 68 0 1 0 580 384A68 68 0 0 0 512 316zM512 896L69 640V128L512 -128L955 128V640zM831 264L802 251A485 485 0 0 1 730 360A968 968 0 0 0 614 253C591 235 567 218 543 202A463 463 0 0 1 749 131A72 72 0 0 1 808 153L834 133L832 131A102 102 0 0 0 749 99A509 509 0 0 0 512 183A601 601 0 0 0 318 103L313 135A556 556 0 0 1 482 202C458 218 434 235 410 253A984 984 0 0 0 294 360A316 316 0 0 1 206 187A54 54 0 0 1 216 153L191 133L190 134A84 84 0 0 0 174 187A349 349 0 0 0 272 384A521 521 0 0 0 193 504L222 517A488 488 0 0 1 294 408A964 964 0 0 0 410 515C433 533 457 550 481 566A463 463 0 0 1 275 637A72 72 0 0 1 216 615L190 634L190 635A102 102 0 0 0 275 669A509 509 0 0 0 512 585A603 603 0 0 0 705 665L711 633A555 555 0 0 1 542 566C566 550 590 533 614 515A976 976 0 0 0 730 408A316 316 0 0 1 818 581A54 54 0 0 1 808 615L832 636L834 634A84 84 0 0 0 850 581A349 349 0 0 0 752 384A522 522 0 0 0 831 264z" />
    <glyph glyph-name="reactjs"
      unicode="&#xE1AE;"
      horiz-adv-x="1024" d="M603 384A91 91 0 1 0 512 475A91 91 0 0 0 603 384zM809 213C842 81 830 -23 768 -59A101 101 0 0 0 716 -72A273 273 0 0 0 557 1C542 13 527 27 512 41C497 27 482 13 467 1A273 273 0 0 0 308 -72A101 101 0 0 0 256 -59C194 -23 182 81 215 213C84 250 0 312 0 384S84 518 215 556C210 576 206 596 202 615C185 722 204 798 256 828C318 863 414 821 512 727C610 822 706 864 768 828C820 798 839 722 822 615C819 596 814 576 809 556C940 518 1024 456 1024 384S940 250 809 213zM717 796C674 796 611 761 543 695A1048 1048 0 0 0 630 588A1052 1052 0 0 0 766 567C771 585 775 604 778 622C792 708 780 769 746 789A58 58 0 0 1 717 796zM698 384A1245 1245 0 0 1 605 545C575 548 544 549 512 549S449 548 419 545Q394 508 369 467C353 439 339 411 326 384Q346 343 369 302T419 223C449 221 480 219 512 219S575 221 605 223Q631 261 655 302T698 384zM693 279C683 262 673 245 662 228C695 232 725 238 754 244C745 272 734 301 722 332C713 315 703 297 693 280zM571 176C552 175 532 175 512 175S472 175 452 176Q482 138 512 105Q542 138 572 176zM331 279C321 297 311 314 302 332C289 302 279 272 270 244C299 238 329 233 362 229C351 245 341 262 331 280zM331 489C341 506 351 523 362 540A966 966 0 0 1 270 524Q283 481 302 437C311 454 321 471 331 489zM453 592C472 593 492 593 512 593S552 593 571 592C552 618 532 642 512 664C492 642 472 618 453 592zM722 437Q741 481 754 524A966 966 0 0 1 662 540C673 523 683 506 693 489S713 454 722 437zM258 567A1052 1052 0 0 0 394 588A1055 1055 0 0 0 481 696C413 761 350 796 307 796A58 58 0 0 1 278 789C244 770 232 709 246 622C249 604 253 585 258 567zM227 256A1047 1047 0 0 0 277 384A1052 1052 0 0 0 227 513C113 480 45 431 45 384S113 288 227 256zM481 73A1067 1067 0 0 0 395 181A1051 1051 0 0 0 258 202C230 87 238 3 278 -21C313 -40 371 -20 439 36C453 47 467 60 481 73zM766 202A1051 1051 0 0 0 630 180A1067 1067 0 0 0 543 73C557 59 571 47 585 35C653 -20 712 -40 746 -21C786 3 795 87 766 202zM979 384C979 430 911 480 797 513A1052 1052 0 0 0 747 384A1047 1047 0 0 0 797 255C911 288 979 338 979 384z" />
    <glyph glyph-name="sass"
      unicode="&#xE18F;"
      horiz-adv-x="1024" d="M935 774L940 771C909 891 709 931 520 863A949 949 0 0 1 199 679C95 582 78 497 85 462C109 337 280 255 350 194V194C330 184 178 108 142 29C104 -54 148 -114 177 -121A214 214 0 0 1 407 -28A234 234 0 0 1 429 180A263 263 0 0 0 533 185C652 172 675 97 670 67A81 81 0 0 0 632 14C624 8 621 7 622 3C623 -2 627 -2 634 -1A94 94 0 0 1 698 82C701 155 631 236 507 234A305 305 0 0 1 402 220A20 20 0 0 1 396 226C319 308 178 366 184 475C185 515 200 620 455 747C664 851 831 822 860 759C902 668 771 500 553 475A163 163 0 0 0 416 510C404 522 403 523 398 521C392 517 396 506 398 500A130 130 0 0 1 477 438A417 417 0 0 1 731 463C863 514 965 656 935 774zM374 154L380 157A173 173 0 0 0 378 56L375 46C373 42 372 39 370 36A190 190 0 0 0 339 -10C300 -53 245 -69 221 -56C195 -41 208 20 254 68A461 461 0 0 0 374 154z" />
    <glyph glyph-name="sketch"
      unicode="&#xE175;"
      horiz-adv-x="1024" d="M799 825L1024 528L512 -57L0 529L223 825zM673 494H358L515 101zM286 494H119L428 140zM905 494H745L608 154zM766 759H754V560H916zM276 759H256L107 560H276zM687 759H343V560H688z" />
    <glyph glyph-name="slack"
      unicode="&#xE179;"
      horiz-adv-x="1024" d="M215 249A108 108 0 1 0 108 356H215zM269 249A108 108 0 0 0 484 249V-20A108 108 0 1 0 269 -20zM377 681A108 108 0 1 0 484 788V681zM377 627A108 108 0 0 0 377 412H108A108 108 0 1 0 108 627zM809 519A108 108 0 1 0 916 412H809V519zM755 519A108 108 0 0 0 540 519V788A108 108 0 1 0 755 788zM647 87A108 108 0 1 0 540 -20V87zM647 142A108 108 0 0 0 647 357H916A108 108 0 1 0 916 142z" />
    <glyph glyph-name="spotify"
      unicode="&#xE285;"
      horiz-adv-x="1024" d="M714 533C630 564 542 576 441 577L428 576A1703 1703 0 0 1 377 573A572 572 0 0 1 258 551C236 545 225 524 231 504C237 483 258 472 280 478A500 500 0 0 0 366 496A753 753 0 0 0 536 496C613 487 688 469 756 430C769 422 783 424 796 433A38 38 0 0 1 794 496C769 511 742 523 714 533zM695 382C615 419 531 435 443 435H433A288 288 0 0 1 412 435C368 433 324 426 281 413C263 407 253 390 258 373C263 356 281 347 299 352C314 356 330 360 345 363A544 544 0 0 0 527 366C590 356 651 338 706 304A32 32 0 0 1 750 315A31 31 0 0 1 738 359A558 558 0 0 1 695 382zM448 302C519 302 588 290 652 259C665 253 678 246 690 239C703 231 707 216 700 203C692 191 677 187 664 195C611 227 553 244 491 250C429 255 368 248 307 234C294 232 284 236 278 246A24 24 0 0 0 280 275A31 31 0 0 0 294 283C336 293 379 300 423 301C428 302 434 302 440 302L448 302V302zM512 827A443 443 0 1 1 512 -59A443 443 0 0 1 512 827zM136 384A376 376 0 1 0 888 384A376 376 0 0 0 136 384z" />
    <glyph glyph-name="star-thread"
      unicode="&#xE28E;"
      horiz-adv-x="1024" d="M512 384L862 255L883 133C884 127 878 122 872 125L513 259V384H512zM718 512H718C718 477 728 443 746 416L526 498V623L722 550A213 213 0 0 1 718 512zM901 401A110 110 0 1 1 901 622A110 110 0 0 1 901 401zM901 -70L900 -70A8 8 0 0 0 889 -78L529 56C527 57 522 56 522 56L217 -104C211 -107 205 -102 206 -96L264 244C265 247 262 251 262 251L15 492A8 8 0 0 0 20 505L361 554C364 554 367 558 367 558L520 868A9 9 0 0 0 527 872V620C524 621 521 620 520 617L440 457C439 455 434 452 434 452L257 427A8 8 0 0 1 253 413L381 289C383 287 383 282 383 282L353 106A8 8 0 0 1 364 97L523 181C525 182 530 181 530 181L880 51L901 -70z" />
    <glyph glyph-name="storybook"
      unicode="&#xE19C;"
      horiz-adv-x="1024" d="M923 848A51 51 0 0 1 868 896L812 892L816 774A8 8 0 0 0 809 766A8 8 0 0 0 804 768L765 798L720 764A8 8 0 0 0 710 765A8 8 0 0 0 708 770L713 886L150 851A52 52 0 0 1 102 798L133 -47A52 52 0 0 1 183 -97L870 -128H872A51 51 0 0 1 923 -76V844C923 846 923 847 923 848zM531 66C408 66 302 116 314 288C318 308 474 303 474 288C472 217 489 196 529 196A41 41 0 0 1 575 242C575 346 318 350 318 540C318 649 393 722 527 722S735 650 735 514C717 500 582 490 582 510C585 586 550 590 531 590A43 43 0 0 1 483 543C483 442 743 448 743 244C743 129 650 66 531 66z" />
    <glyph glyph-name="tableau"
      unicode="&#xE19F;"
      horiz-adv-x="1024" d="M497 889V795H413V770H497V676H527V770H611V795H527V889H497zM755 792V654H628V614H754V478H799L799 545L800 613L863 614L925 614V654H799V792H754zM225 790V653H98V614H225V478H267V614H396V653H267V790H225zM485 565V411H344V361H485V207H539V361H681V411H539V565H485zM900 499V404H814V369H900V273H937V369H1024V404H937V498H900zM84 493V400H0V374H84V280H113V374H198V400H111V493H84zM754 300V161H626V122H754V-15H800V122H928V161H800V300H754zM223 300V161H97V122H223V-14H270V122H396V161H270V300H223zM492 105V11H408V-24H492V-121H532L532 -73L533 -24H617V11H532V105H492z" />
    <glyph glyph-name="threads-net"
      unicode="&#xE294;"
      horiz-adv-x="1024" d="M745 420A352 352 0 0 1 732 425C725 564 649 643 522 644H520C444 644 381 611 342 552L412 504C441 548 487 558 520 558H521C563 558 595 545 615 522C630 505 640 481 645 451A534 534 0 0 1 525 456C404 449 327 379 332 281C334 232 359 189 402 161C437 137 483 126 531 129C594 132 644 156 678 200C704 234 721 277 728 331C758 313 781 289 793 261C814 212 815 132 750 66C692 9 623 -16 519 -17C404 -16 316 21 259 94C206 161 179 259 178 384C179 509 206 607 259 674C316 747 404 784 519 785C636 784 725 746 784 674C812 638 834 594 849 541L930 563C913 627 886 683 848 729C773 822 662 869 519 870H519C377 869 267 822 194 728C128 645 95 529 93 384V384C95 239 128 123 194 40C267 -54 377 -101 519 -102H519C646 -102 735 -68 808 5C905 101 902 221 870 295C847 348 804 391 745 420zM526 214C474 211 419 235 416 286C414 324 443 366 530 371C540 371 549 371 559 371C591 371 620 368 647 363C637 237 578 217 526 214z" />
    <glyph glyph-name="tiktok"
      unicode="&#xE286;"
      horiz-adv-x="1024" d="M412 -42C398 -42 326 -41 261 3A309 309 0 0 0 196 65C173 94 159 127 155 137C149 156 136 199 138 240C141 307 163 351 172 367C188 396 210 423 236 445A278 278 0 0 0 436 510L467 508V328L428 334C368 344 311 295 311 234C311 178 356 133 412 133C429 133 446 137 461 145C475 154 488 165 497 179C506 193 511 209 512 226V812H687L690 762C694 740 704 707 733 675A189 189 0 0 1 785 635C817 619 845 616 852 615L883 613V438L847 441C827 443 798 446 774 453C730 464 699 481 689 487V232C689 214 684 170 671 136C659 105 642 77 621 52C618 48 584 9 528 -17C478 -41 434 -42 417 -42H412zM400 443C385 442 370 439 356 435C327 426 301 413 279 394C259 377 242 356 230 333C222 321 207 288 204 237C203 205 214 170 217 161C219 155 230 127 248 105C262 87 279 71 298 58C346 25 403 23 411 23H416C430 24 463 25 500 42C543 62 570 94 570 94C587 114 600 136 609 159C619 186 623 221 623 231V606L697 561L723 544S750 527 792 516C800 514 809 513 817 511V553C797 558 775 565 755 575C748 579 741 583 734 587C716 600 699 614 684 630C647 672 632 715 626 745H579V221C577 193 568 165 553 142C538 119 518 100 494 86C469 72 441 65 412 65A168 168 0 0 0 244 232C244 325 313 394 400 400V442L400 443z" />
    <glyph glyph-name="trino"
      unicode="&#xE193;"
      horiz-adv-x="1024" d="M425 88A3 3 0 0 0 427 92A3 3 0 0 0 431 91S440 73 454 73A29 29 0 0 1 475 84V108C470 111 452 123 452 132S463 151 480 151A23 23 0 0 0 504 133C504 128 490 113 481 109V86A35 35 0 0 1 506 75C520 76 529 92 529 92A3 3 0 0 0 533 92A5 5 0 0 0 535 91A3 3 0 0 0 535 87A41 41 0 0 0 507 67H504A40 40 0 0 0 478 79A34 34 0 0 0 454 67C437 67 425 87 425 88zM332 168A25 25 0 0 0 357 193H357A25 25 0 1 0 332 168zM357 177A7 7 0 0 1 364 170A7 7 0 1 1 357 177zM577 168A25 25 0 0 0 602 193A25 25 0 1 0 577 168zM603 177A7 7 0 0 1 610 170A7 7 0 0 1 616 177A7 7 0 0 1 609 183A7 7 0 0 1 603 176zM764 362V251A42 42 0 0 0 796 212V128A45 45 0 0 0 749 85H732A214 214 0 0 0 673 2L695 -18A13 13 0 0 0 696 -36A273 273 0 0 0 481 -128A276 276 0 0 0 265 -36A13 13 0 0 0 267 -18L288 1A214 214 0 0 0 229 85H214A45 45 0 0 0 167 127V212A45 45 0 0 0 214 254H225A247 247 0 0 0 314 387C306 408 296 438 286 472A513 513 0 0 0 273 526A479 479 0 0 0 263 599C262 616 261 636 261 656A592 592 0 0 0 266 747A406 406 0 0 0 286 846C286 847 286 848 287 849V847C298 876 313 895 335 896C404 899 392 724 381 610A1473 1473 0 0 1 376 421A297 297 0 0 0 481 439A306 306 0 0 0 555 430A826 826 0 0 0 590 550A362 362 0 0 0 629 632L632 636C635 642 639 647 642 652C661 679 680 705 699 729A447 447 0 0 0 765 803C793 828 818 840 839 827C889 798 826 693 783 638S664 502 638 458A322 322 0 0 1 612 409A247 247 0 0 0 738 254H741V362A41 41 0 0 0 709 399A43 43 0 0 0 796 399A40 40 0 0 0 764 362zM575 424A265 265 0 0 0 601 414A1835 1835 0 0 0 702 579C757 652 820 728 800 740S713 692 664 611A1488 1488 0 0 1 575 424zM403 321A292 292 0 0 0 481 332A262 262 0 0 0 560 320V406A300 300 0 0 1 403 406zM332 399A234 234 0 0 0 356 412C356 460 355 546 357 606C359 693 364 801 334 800S285 716 297 597A1423 1423 0 0 1 332 399zM269 146A132 132 0 0 1 273 114A32 32 0 1 0 303 59A248 248 0 0 1 481 -3A249 249 0 0 1 659 59A32 32 0 1 0 690 113A132 132 0 0 1 694 145C694 240 598 317 481 317V317C364 317 269 240 269 146zM191 154H222A146 146 0 0 0 222 171A317 317 0 0 0 228 233H212A21 21 0 0 1 191 212zM230 106A278 278 0 0 0 223 141H190V126A22 22 0 0 1 214 106zM673 -28L651 -8A291 291 0 0 0 481 -57A293 293 0 0 0 310 -8L289 -28A253 253 0 0 1 481 -106A250 250 0 0 1 673 -28zM772 141H739A258 258 0 0 0 732 106H750A22 22 0 0 1 772 127zM748 234H734A306 306 0 0 0 741 171V155H772L772 213A22 22 0 0 1 748 234zM772 399A20 20 0 1 1 752 381A19 19 0 0 1 772 399z" />
    <glyph glyph-name="tumblr"
      unicode="&#xE287;"
      horiz-adv-x="1024" d="M411 806H584V598H746V409H584V216C584 188 591 173 600 164C609 155 626 148 656 148H752V-49H552C514 -46 468 -34 428 -9C373 26 334 87 334 184V409H212V572L237 579C349 610 398 698 408 777L411 806zM686 18V81H656C616 81 580 91 554 116C528 141 517 177 517 216V476H679V531H517V740H469C450 654 393 564 279 523V476H400V184C400 108 430 69 464 48C500 24 548 18 586 18H686z" />
    <glyph glyph-name="twitter"
      unicode="&#xE1DA;"
      horiz-adv-x="1024" d="M467 553A222 222 0 0 0 689 776C746 776 798 754 838 719A349 349 0 0 1 930 757A33 33 0 0 0 979 719C975 707 971 697 966 686A33 33 0 0 0 1000 635A421 421 0 0 0 912 539L912 532V531C912 267 711 -40 340 -40A561 561 0 0 0 33 51A33 33 0 0 0 56 112A347 347 0 0 1 245 142A222 222 0 0 0 123 278A33 33 0 0 0 130 310L130 310A222 222 0 0 0 55 477V479A33 33 0 0 0 81 512A223 223 0 0 0 86 725A33 33 0 0 0 141 729A504 504 0 0 1 467 547A238 238 0 0 0 467 553zM130 428A157 157 0 0 1 247 324A33 33 0 0 0 249 259A221 221 0 0 0 210 252A156 156 0 0 1 332 190A33 33 0 0 0 352 130A414 414 0 0 0 183 52C232 35 285 26 340 26C666 26 845 296 845 531C845 540 845 547 845 554A33 33 0 0 0 859 583A381 381 0 0 1 870 591A33 33 0 0 0 848 653C844 652 839 651 834 650A33 33 0 0 0 803 660A155 155 0 0 1 689 709A156 156 0 0 1 537 518A33 33 0 0 0 504 477A569 569 0 0 0 126 646A156 156 0 0 1 192 483A33 33 0 0 0 173 422A216 216 0 0 0 130 428z" />
    <glyph glyph-name="typescript"
      unicode="&#xE18D;"
      horiz-adv-x="1024" d="M973 896H51A51 51 0 0 1 0 845V-77A51 51 0 0 1 51 -128H973A51 51 0 0 1 1024 -77V845A51 51 0 0 1 973 896zM566 344H428V-51H319V344H182V433H566zM924 17A125 125 0 0 0 882 -27A180 180 0 0 0 821 -52A353 353 0 0 0 747 -59A409 409 0 0 0 671 -53A230 230 0 0 0 609 -32V76A207 207 0 0 1 742 26A153 153 0 0 1 778 30A84 84 0 0 1 803 40A46 46 0 0 1 819 56A39 39 0 0 1 824 75A42 42 0 0 1 816 101A86 86 0 0 1 794 121A227 227 0 0 1 761 139Q741 148 719 157A212 212 0 0 0 635 215A126 126 0 0 0 607 297A131 131 0 0 0 622 362A129 129 0 0 0 664 407A184 184 0 0 0 724 433A310 310 0 0 0 797 441A441 441 0 0 0 864 436A264 264 0 0 0 918 422V321A158 158 0 0 1 892 336A201 201 0 0 1 862 347A232 232 0 0 1 832 353A217 217 0 0 1 803 355A146 146 0 0 1 770 352A85 85 0 0 1 744 342A49 49 0 0 1 728 326A36 36 0 0 1 722 306A38 38 0 0 1 728 285A74 74 0 0 1 747 266A199 199 0 0 1 775 249C787 244 799 238 813 232A423 423 0 0 0 866 207A184 184 0 0 0 905 176A121 121 0 0 0 931 137A157 157 0 0 0 924 17z" />
    <glyph glyph-name="uit"
      unicode="&#xE14B;"
      horiz-adv-x="1024" d="M964 895L880 -27L511 -129L142 -27L60 895H964zM880 819H144L214 33L511 -49L809 33L880 819zM795 704L743 128L512 64L280 128L229 704H347L386 216L512 182L638 216L681 704L795 704z" />
    <glyph glyph-name="uit-inside"
      unicode="&#xE216;"
      horiz-adv-x="1024" d="M732 194L607 319A24 24 0 0 1 600 324A24 24 0 0 1 582 324A24 24 0 0 1 574 319L449 194A23 23 0 0 0 442 189A24 24 0 0 0 433 187A23 23 0 0 0 424 189A23 23 0 0 0 417 194L292 319A24 24 0 0 1 284 324A24 24 0 0 1 275 326A24 24 0 0 1 266 324A24 24 0 0 1 259 319L134 194A23 23 0 0 0 101 194L7 288A24 24 0 0 0 7 321L259 574A23 23 0 0 0 267 579A23 23 0 0 0 285 579A23 23 0 0 0 292 574L417 449A24 24 0 0 1 450 449L575 574A23 23 0 0 0 582 579A23 23 0 0 0 600 579A23 23 0 0 0 607 574L732 449A24 24 0 0 1 765 449L890 574A23 23 0 0 0 897 579A23 23 0 0 0 906 581A23 23 0 0 0 915 579A23 23 0 0 0 923 574L1017 480A24 24 0 0 0 1017 447L765 194A23 23 0 0 0 732 194z" />
    <glyph glyph-name="uitdp"
      unicode="&#xE29E;"
      horiz-adv-x="1024" d="M847 719A470 470 0 0 1 512 858C386 858 267 808 177 719A470 470 0 0 1 38 384C38 258 88 139 177 49A471 471 0 0 1 512 -90C638 -90 757 -40 847 49A471 471 0 0 1 986 384C986 510 936 629 847 719zM869 161C793 115 742 116 673 126A363 363 0 0 0 554 167C777 156 903 273 925 301A419 419 0 0 0 869 161zM535 -37C505 -29 468 11 440 67A490 490 0 0 0 391 245A349 349 0 0 1 464 164C503 133 513 125 595 92C677 59 777 74 804 80A420 420 0 0 0 535 -37zM512 805C724 805 899 649 929 445C929 328 807 270 758 251C638 204 438 192 412 322C388 432 486 488 536 495C599 500 658 461 670 442C688 483 663 538 658 548C605 644 499 702 368 702A375 375 0 0 1 193 659A421 421 0 0 0 512 805V805zM117 532A323 323 0 0 0 368 650C430 650 487 635 533 606C561 588 590 562 607 535C545 551 468 547 392 517A485 485 0 0 1 208 386A432 432 0 0 1 120 229C94 297 74 423 117 532zM157 157C179 310 288 411 391 459A236 236 0 0 1 362 409H362L362 408C345 368 337 322 337 272C338 196 358 113 393 44A375 375 0 0 1 442 -32A422 422 0 0 0 157 157z" />
    <glyph glyph-name="visual-studio-code"
      unicode="&#xE28C;"
      horiz-adv-x="1024" d="M964 766L764 862A58 58 0 0 1 749 867L747 867C746 867 744 867 742 868C741 868 739 868 738 868H735C732 868 730 868 728 867C728 867 727 867 727 867A60 60 0 0 1 694 850L311 501L144 627A40 40 0 0 1 118 635A40 40 0 0 1 92 625L39 576A40 40 0 0 1 26 550A40 40 0 0 1 39 516L183 384L39 252A40 40 0 0 1 26 230A42 42 0 0 1 26 218A41 41 0 0 1 39 192L92 144A41 41 0 0 1 144 141L311 268L694 -82C700 -88 707 -92 715 -95C721 -98 728 -99 735 -99H737C740 -99 742 -99 744 -99L749 -98C750 -98 751 -98 752 -97C754 -97 756 -97 757 -96C757 -96 757 -96 758 -96C760 -95 762 -94 764 -94L964 3C985 13 998 34 998 58V711C998 734 985 755 964 766H964zM755 605V164L464 384L755 605V605z" />
    <glyph glyph-name="vuejs"
      unicode="&#xE1AF;"
      horiz-adv-x="1024" d="M819 827H630L512 623L394 827H0L512 -59L1024 827zM115 761H243L512 295L781 761H909L512 74z" />
    <glyph glyph-name="webpack"
      unicode="&#xE197;"
      horiz-adv-x="1024" d="M235 197L494 55V-128L79 107zM202 536L50 623V133L202 220zM221 569L494 719V896L68 655L219 568zM805 568L956 655L530 896V719L803 569zM822 536V220L974 133V623zM239 237L494 96V367L239 515zM530 96L786 237V515L530 367zM530 55V-128L945 107L789 197zM512 688L256 547L512 399L768 547z" />
    <glyph glyph-name="wechat"
      unicode="&#xE1D8;"
      horiz-adv-x="1024" d="M142 167L180 272A332 332 0 0 0 148 297A272 272 0 0 0 51 503A272 272 0 0 0 148 708A354 354 0 0 0 383 794A360 360 0 0 0 598 724A285 285 0 0 0 710 551A357 357 0 0 1 690 551C525 551 391 435 391 292C391 265 396 238 405 212A371 371 0 0 0 262 231L142 167V167zM504 648A48 48 0 1 1 504 551A48 48 0 0 1 504 648zM261 648A48 48 0 1 1 261 551A48 48 0 0 1 261 648zM899 10L796 68A323 323 0 0 0 690 50A306 306 0 0 0 490 121A225 225 0 0 0 407 292A225 225 0 0 0 490 464A306 306 0 0 0 690 535A306 306 0 0 0 890 464A225 225 0 0 0 973 292C973 253 962 215 942 182A259 259 0 0 0 859 98L899 10V10zM787 406A40 40 0 1 1 787 325A40 40 0 0 1 787 406zM609 406A40 40 0 1 1 609 325A40 40 0 0 1 609 406z" />
    <glyph glyph-name="whatsapp"
      unicode="&#xE1D7;"
      horiz-adv-x="1024" d="M723 293C712 298 655 326 645 330C634 333 627 335 619 324C611 313 589 287 583 279C576 272 569 271 558 276C546 282 509 294 466 333C432 363 409 401 402 412C395 423 401 430 407 435C412 440 418 449 424 455C430 462 432 467 436 474C439 482 437 489 435 494C432 500 409 556 399 579C390 601 380 598 373 599A461 461 0 0 1 351 599A42 42 0 0 1 321 585C310 573 281 546 281 490S322 379 328 372C333 364 408 249 523 199C551 187 572 180 589 175C616 167 641 168 661 171C683 174 729 198 738 225C748 252 748 274 745 279C742 284 735 287 723 293zM514 8H514A382 382 0 0 0 320 61L306 69L161 32L200 172L191 186A377 377 0 0 0 133 388C133 597 304 768 514 768C616 768 712 728 784 656A376 376 0 0 0 895 388C895 179 724 8 514 8zM839 711A457 457 0 0 1 514 845C261 845 55 640 55 388C55 308 76 229 116 160L51 -77L294 -13A460 460 0 0 1 514 -69H514C767 -69 973 136 973 388C973 510 925 625 839 711z" />
    <glyph glyph-name="words"
      unicode="&#xE291;"
      horiz-adv-x="1024" d="M335 794H272A12 12 0 0 1 260 782V196C260 189 265 184 272 184H335A12 12 0 0 1 348 196V782A12 12 0 0 1 335 794zM752 794H689A12 12 0 0 1 676 782V196C676 189 682 184 689 184H752A12 12 0 0 1 764 196V782A12 12 0 0 1 752 794zM960 794H897A12 12 0 0 1 885 782V184C885 107 811 44 720 44C630 44 556 107 556 184V782A12 12 0 0 1 544 794H480A12 12 0 0 1 468 782V184C468 107 394 44 304 44C213 44 139 107 139 184V782A12 12 0 0 1 127 794H63A12 12 0 0 1 51 782V184C51 60 164 -41 304 -41C390 -41 467 -2 512 57C557 -2 634 -41 720 -41C860 -41 973 60 973 184V782A12 12 0 0 1 961 794H960z" />
    </font>
</defs>
</svg>
