<svg width="40" height="40" viewBox="0 0 40 40" fill="none" xmlns="http://www.w3.org/2000/svg">
<mask id="mask0_818_20775" style="mask-type:alpha" maskUnits="userSpaceOnUse" x="0" y="0" width="40" height="40">
<rect width="40" height="40" fill="white"/>
</mask>
<g mask="url(#mask0_818_20775)">
<g clip-path="url(#clip0_818_20775)">
<path d="M35.7478 31.5H4.25219C3.83752 31.5 3.5 31.1625 3.5 30.7479V9.75214C3.5 9.3375 3.83752 9 4.25219 9H35.7462C36.1625 9 36.4984 9.3375 36.4984 9.75214V30.7479C36.5 31.1625 36.1625 31.5 35.7478 31.5Z" fill="black"/>
<path d="M22.8608 12.7495H19.0002C18.1725 12.7495 17.5006 13.4213 17.5006 14.249V17.2495H14.8889C14.8117 17.2495 14.749 17.3122 14.749 17.3893V18.8599C14.749 18.937 14.8117 18.9997 14.8889 18.9997H17.499V26.0004H15.6394C15.5623 26.0004 15.4996 26.0631 15.4996 26.1402V27.6108C15.4996 27.6879 15.5623 27.7506 15.6394 27.7506H22.1102C22.1874 27.7506 22.25 27.6879 22.25 27.6108V26.1402C22.25 26.0631 22.1874 26.0004 22.1102 26.0004H19.6254V18.9997H22.8608C22.9379 18.9997 23.0006 18.937 23.0006 18.8599V17.3893C23.0006 17.3122 22.9379 17.2495 22.8608 17.2495H19.6254V14.4997H22.8608C22.9379 14.4997 23.0006 14.437 23.0006 14.3599V12.8893C22.999 12.8122 22.9379 12.7495 22.8608 12.7495Z" fill="white"/>
<path d="M32.3597 12.7495H28.4991C27.6713 12.7495 26.9995 13.4213 26.9995 14.249V17.2495H24.3893C24.3122 17.2495 24.2495 17.3122 24.2495 17.3893V18.8599C24.2495 18.937 24.3122 18.9997 24.3893 18.9997H26.9995V26.0004H25.1399C25.0628 26.0004 25.0001 26.0631 25.0001 26.1402V27.6108C25.0001 27.6879 25.0628 27.7506 25.1399 27.7506H31.6107C31.6878 27.7506 31.7505 27.6879 31.7505 27.6108V26.1402C31.7505 26.0631 31.6878 26.0004 31.6107 26.0004H29.1259V18.9997H32.3613C32.4384 18.9997 32.5011 18.937 32.5011 18.8599V17.3893C32.5011 17.3122 32.4384 17.2495 32.3613 17.2495H29.1259V14.4997H32.3613C32.4384 14.4997 32.5011 14.437 32.5011 14.3599V12.8893C32.4995 12.8122 32.4368 12.7495 32.3597 12.7495Z" fill="white"/>
<path d="M14.0837 12.7495H12.6114C12.47 12.7495 12.343 12.8395 12.2964 12.9761L7.25929 27.5256C7.22071 27.6349 7.30107 27.7506 7.4168 27.7506H8.88903C9.03047 27.7506 9.15744 27.6606 9.20405 27.524L14.2412 12.9745C14.2781 12.8652 14.1978 12.7495 14.0837 12.7495Z" fill="white"/>
</g>
</g>
<defs>
<clipPath id="clip0_818_20775">
<rect width="33" height="22.5" fill="white" transform="translate(3.5 9)"/>
</clipPath>
</defs>
</svg>
