<svg width="40" height="40" viewBox="0 0 40 40" fill="none" xmlns="http://www.w3.org/2000/svg">
<g opacity="0.5">
<path fill-rule="evenodd" clip-rule="evenodd" d="M10.2905 6.75C8.33637 6.75 6.75 8.33637 6.75 10.2905V13.4355H5.25V10.2905C5.25 7.50795 7.50795 5.25 10.2905 5.25H13.4355V6.75H10.2905Z" fill="white"/>
<path fill-rule="evenodd" clip-rule="evenodd" d="M6.75 26.5601V29.705C6.75 31.6592 8.33637 33.2456 10.2905 33.2456H13.4355V34.7456H10.2905C7.50795 34.7456 5.25 32.4876 5.25 29.705V26.5601H6.75Z" fill="white"/>
<path fill-rule="evenodd" clip-rule="evenodd" d="M33.2456 29.7094V26.5645H34.7456V29.7094C34.7456 32.492 32.4876 34.7499 29.705 34.7499H26.5601V33.2499H29.705C31.6592 33.2499 33.2456 31.6636 33.2456 29.7094Z" fill="white"/>
<path fill-rule="evenodd" clip-rule="evenodd" d="M29.7094 6.75H26.5645V5.25H29.7094C32.492 5.25 34.7499 7.50794 34.7499 10.2905V13.4355H33.2499V10.2905C33.2499 8.33637 31.6636 6.75 29.7094 6.75Z" fill="white"/>
<path fill-rule="evenodd" clip-rule="evenodd" d="M15.6665 15.5513C15.7544 13.0095 17.5829 11.1621 20.0001 11.1621C22.4175 11.1621 24.2461 13.0098 24.3337 15.552C24.4807 15.8211 24.6211 16.2305 24.5434 16.7504C24.4606 17.3128 24.2754 17.7253 24.0561 18.0228C23.9303 18.1934 23.8018 18.3146 23.6938 18.3993C23.2927 19.1384 23.0056 19.6092 22.7462 20.0212C22.6712 20.141 22.6153 20.3351 22.6255 20.519C22.6349 20.687 22.6907 20.7684 22.7452 20.8096L26.9804 23.5732C27.7398 24.0715 28.1985 24.9159 28.1985 25.8263V28.0831H26.6985V25.8263C26.6985 25.4241 26.4967 25.0502 26.1582 24.8277C26.1579 24.8276 26.1577 24.8274 26.1574 24.8272L21.9114 22.0566C21.9045 22.0521 21.8977 22.0475 21.8909 22.0427C21.3596 21.6704 21.1557 21.1014 21.1279 20.6025C21.1006 20.113 21.2333 19.6102 21.4757 19.2237L21.4765 19.2224C21.7392 18.8054 22.0305 18.3271 22.4585 17.5298C22.5246 17.4068 22.6236 17.3047 22.7445 17.2349C22.7503 17.2316 22.7596 17.2262 22.7745 17.2138C22.7903 17.2007 22.8172 17.1755 22.8487 17.1327C22.9092 17.0507 23.0092 16.8736 23.0595 16.5313L23.0598 16.529C23.0834 16.3721 23.0231 16.2717 22.987 16.2236C22.8896 16.0938 22.837 15.9359 22.837 15.7736V15.7437C22.837 13.8618 21.5812 12.6621 20.0001 12.6621C18.419 12.6621 17.1632 13.8617 17.1632 15.7436V15.7735C17.1632 15.9397 17.108 16.1013 17.0063 16.2327C16.9855 16.2595 16.9182 16.3651 16.9412 16.5341C16.9918 16.8761 17.091 17.0525 17.1507 17.1338C17.1819 17.1763 17.2081 17.2007 17.223 17.213C17.2372 17.2248 17.2449 17.2288 17.2451 17.2289C17.3708 17.2987 17.4737 17.4032 17.5417 17.5298C17.9698 18.3271 18.261 18.8054 18.5237 19.2224L17.8892 19.6222L18.523 19.2213C18.7674 19.6076 18.8996 20.1116 18.8724 20.6008C18.8447 21.0993 18.6413 21.6699 18.1093 22.0427C18.1026 22.0475 18.0957 22.0521 18.0888 22.0566L13.8412 24.8283L13.8394 24.8295C13.5058 25.0458 13.3018 25.4212 13.3018 25.8263V28.0831H11.8018V25.8263C11.8018 24.9189 12.2581 24.0675 13.0224 23.5715C13.0227 23.5713 13.023 23.5711 13.0233 23.5709L17.255 20.8096C17.3089 20.7688 17.3653 20.6869 17.3747 20.5175C17.385 20.332 17.3285 20.1388 17.2553 20.0231L17.2546 20.022C16.9952 19.6102 16.7083 19.1396 16.3074 18.4009C16.0003 18.1615 15.5933 17.6793 15.4567 16.7493L15.4559 16.7443C15.3845 16.2342 15.5175 15.8259 15.6665 15.5513Z" fill="white"/>
</g>
</svg>
