<svg width="40" height="40" viewBox="0 0 40 40" fill="none" xmlns="http://www.w3.org/2000/svg">
<path fill-rule="evenodd" clip-rule="evenodd" d="M10.2905 6.75C8.33637 6.75 6.75 8.33637 6.75 10.2905V13.4355H5.25V10.2905C5.25 7.50795 7.50795 5.25 10.2905 5.25H13.4355V6.75H10.2905Z" fill="#1F1F1F"/>
<path fill-rule="evenodd" clip-rule="evenodd" d="M6.75 26.5603V29.7053C6.75 31.6594 8.33637 33.2458 10.2905 33.2458H13.4355V34.7458H10.2905C7.50795 34.7458 5.25 32.4879 5.25 29.7053V26.5603H6.75Z" fill="#1F1F1F"/>
<path fill-rule="evenodd" clip-rule="evenodd" d="M33.2456 29.7094V26.5645H34.7456V29.7094C34.7456 32.492 32.4876 34.7499 29.705 34.7499H26.5601V33.2499H29.705C31.6592 33.2499 33.2456 31.6636 33.2456 29.7094Z" fill="#1F1F1F"/>
<path fill-rule="evenodd" clip-rule="evenodd" d="M29.7094 6.75H26.5645V5.25H29.7094C32.492 5.25 34.7499 7.50794 34.7499 10.2905V13.4355H33.2499V10.2905C33.2499 8.33637 31.6636 6.75 29.7094 6.75Z" fill="#1F1F1F"/>
<path fill-rule="evenodd" clip-rule="evenodd" d="M15.6665 15.5516C15.7544 13.0097 17.5829 11.1624 20.0001 11.1624C22.4175 11.1624 24.2461 13.0101 24.3337 15.5523C24.4807 15.8214 24.6211 16.2307 24.5434 16.7507C24.4606 17.313 24.2754 17.7256 24.0561 18.0231C23.9303 18.1937 23.8018 18.3149 23.6938 18.3995C23.2927 19.1386 23.0056 19.6095 22.7462 20.0214C22.6712 20.1412 22.6153 20.3354 22.6255 20.5193C22.6349 20.6872 22.6907 20.7686 22.7452 20.8098L26.9804 23.5734C27.7398 24.0718 28.1985 24.9162 28.1985 25.8266V28.0834H26.6985V25.8266C26.6985 25.4243 26.4967 25.0505 26.1582 24.828C26.1579 24.8278 26.1577 24.8276 26.1574 24.8275L21.9114 22.0569C21.9045 22.0523 21.8977 22.0477 21.8909 22.043C21.3596 21.6707 21.1557 21.1017 21.1279 20.6027C21.1006 20.1133 21.2333 19.6105 21.4757 19.224L21.4765 19.2227C21.7392 18.8056 22.0305 18.3274 22.4585 17.53C22.5246 17.407 22.6236 17.3049 22.7445 17.2351C22.7503 17.2318 22.7596 17.2264 22.7745 17.2141C22.7903 17.2009 22.8172 17.1758 22.8487 17.1329C22.9092 17.0509 23.0092 16.8739 23.0595 16.5315L23.0598 16.5293C23.0834 16.3723 23.0231 16.2719 22.987 16.2238C22.8896 16.094 22.837 15.9361 22.837 15.7738V15.7439C22.837 13.8621 21.5812 12.6624 20.0001 12.6624C18.419 12.6624 17.1632 13.862 17.1632 15.7438V15.7737C17.1632 15.9399 17.108 16.1015 17.0063 16.233C16.9855 16.2597 16.9182 16.3654 16.9412 16.5344C16.9918 16.8763 17.091 17.0528 17.1507 17.134C17.1819 17.1765 17.2081 17.201 17.223 17.2133C17.2372 17.2251 17.2449 17.229 17.2451 17.2292C17.3708 17.299 17.4737 17.4034 17.5417 17.53C17.9698 18.3274 18.261 18.8056 18.5237 19.2227L17.8892 19.6224L18.523 19.2215C18.7674 19.6079 18.8996 20.1118 18.8724 20.6011C18.8447 21.0995 18.6413 21.6702 18.1093 22.043C18.1026 22.0477 18.0957 22.0523 18.0888 22.0569L13.8412 24.8285L13.8394 24.8297C13.5058 25.046 13.3018 25.4215 13.3018 25.8266V28.0834H11.8018V25.8266C11.8018 24.9191 12.2581 24.0677 13.0224 23.5717C13.0227 23.5715 13.023 23.5714 13.0233 23.5712L17.255 20.8098C17.3089 20.769 17.3653 20.6872 17.3747 20.5177C17.385 20.3322 17.3285 20.139 17.2553 20.0233L17.2546 20.0222C16.9952 19.6104 16.7083 19.1398 16.3074 18.4012C16.0003 18.1618 15.5933 17.6795 15.4567 16.7495L15.4559 16.7445C15.3845 16.2344 15.5175 15.8261 15.6665 15.5516Z" fill="#06C755"/>
</svg>
