<svg width="40" height="14" viewBox="0 0 40 14" fill="none" xmlns="http://www.w3.org/2000/svg">
<path d="M39.4379 14.0005C39.7487 14.0005 40.0001 13.7486 40.0001 13.4373V11.345C40.0001 11.0357 39.7467 10.7818 39.4379 10.7818H33.8152V8.60983H39.4379C39.7487 8.60983 40.0001 8.35798 40.0001 8.04669V5.95429C40.0001 5.64502 39.7467 5.39115 39.4379 5.39115H33.8152V3.21917H39.4379C39.7487 3.21917 40.0001 2.96732 40.0001 2.65603V0.563631C40.0001 0.254356 39.7467 0.000488281 39.4379 0.000488281H31.1763H31.1652C30.8545 0.000488281 30.603 0.252341 30.603 0.563631V0.57572V0.576728V13.4273V13.4283V13.4373C30.603 13.7486 30.8545 14.0005 31.1652 14.0005H31.1763H31.1773H39.4379Z" fill="black"/>
<path d="M8.83492 14.0005C9.14567 14.0005 9.3971 13.7486 9.3971 13.4373V11.345C9.3971 11.0357 9.14366 10.7818 8.83492 10.7818H3.21316V0.563631C3.21316 0.254356 2.95972 0.000488281 2.65098 0.000488281H0.562176C0.251421 0.000488281 0 0.252341 0 0.563631V13.4273V13.4283V13.4373C0 13.7486 0.251421 14.0005 0.562176 14.0005H0.573239H8.83492Z" fill="black"/>
<path d="M13.816 0.000488281H11.7272C11.4165 0.000488281 11.165 0.252341 11.165 0.563631V13.4373C11.165 13.7486 11.4165 14.0005 11.7272 14.0005H13.816C14.1268 14.0005 14.3782 13.7486 14.3782 13.4373V0.563631C14.3782 0.252341 14.1268 0.000488281 13.816 0.000488281Z" fill="black"/>
<path d="M28.0326 0.00051913H25.9438C25.633 0.00051913 25.3816 0.252372 25.3816 0.563662V8.20992L19.5024 0.255394C19.4883 0.235246 19.4732 0.216105 19.4571 0.196964C19.4561 0.195957 19.4551 0.193942 19.4531 0.192935C19.442 0.180846 19.431 0.168757 19.4189 0.157675C19.4149 0.154653 19.4119 0.151631 19.4078 0.147601C19.3978 0.138535 19.3877 0.130475 19.3777 0.121409C19.3726 0.117379 19.3676 0.113349 19.3626 0.110327C19.3525 0.103275 19.3435 0.0962232 19.3324 0.0901788C19.3264 0.0861491 19.3214 0.0831269 19.3153 0.0801046C19.3053 0.0740602 19.2952 0.0680157 19.2841 0.0629786C19.2781 0.0599564 19.2721 0.0569342 19.266 0.0539119C19.255 0.0488749 19.2439 0.0438378 19.2329 0.0398082C19.2268 0.0377934 19.2208 0.0347711 19.2148 0.0327563C19.2037 0.0287267 19.1926 0.024697 19.1806 0.0216748C19.1735 0.01966 19.1675 0.0186525 19.1604 0.0166377C19.1494 0.0136155 19.1383 0.0116007 19.1273 0.00958584C19.1192 0.00857842 19.1112 0.0065636 19.1031 0.00555619C19.0931 0.00454878 19.083 0.00253395 19.073 0.00152654C19.0629 0.00051913 19.0528 0.00051913 19.0428 0.00051913C19.0367 0.00051913 19.0297 -0.000488281 19.0237 -0.000488281H16.9469C16.6362 -0.000488281 16.3848 0.251365 16.3848 0.562655V13.4364C16.3848 13.7477 16.6362 13.9995 16.9469 13.9995H19.0357C19.3465 13.9995 19.5979 13.7477 19.5979 13.4364V5.79314L25.4852 13.7577C25.5254 13.8152 25.5757 13.8625 25.63 13.8998C25.632 13.9008 25.634 13.9028 25.637 13.9038C25.6481 13.9119 25.6602 13.9189 25.6722 13.925C25.6773 13.928 25.6833 13.931 25.6883 13.934C25.6974 13.9391 25.7064 13.9431 25.7155 13.9471C25.7245 13.9512 25.7336 13.9552 25.7426 13.9592C25.7487 13.9612 25.7547 13.9632 25.7607 13.9663C25.7738 13.9713 25.7859 13.9753 25.8 13.9784C25.803 13.9794 25.805 13.9794 25.808 13.9804C25.8553 13.9925 25.9045 14.0005 25.9548 14.0005H28.0316C28.3423 14.0005 28.5937 13.7487 28.5937 13.4374V0.563662C28.5958 0.252372 28.3433 0.00051913 28.0326 0.00051913Z" fill="black"/>
</svg>
