<svg width="40" height="14" viewBox="0 0 40 14" fill="none" xmlns="http://www.w3.org/2000/svg">
<path d="M39.4377 14.0005C39.7485 14.0005 39.9999 13.7486 39.9999 13.4373V11.345C39.9999 11.0357 39.7464 10.7818 39.4377 10.7818H33.8149V8.60983H39.4377C39.7485 8.60983 39.9999 8.35798 39.9999 8.04669V5.95429C39.9999 5.64502 39.7464 5.39115 39.4377 5.39115H33.8149V3.21917H39.4377C39.7485 3.21917 39.9999 2.96732 39.9999 2.65603V0.563631C39.9999 0.254356 39.7464 0.000488281 39.4377 0.000488281H31.176H31.165C30.8542 0.000488281 30.6028 0.252341 30.6028 0.563631V0.57572V0.576728V13.4273V13.4283V13.4373C30.6028 13.7486 30.8542 14.0005 31.165 14.0005H31.176H31.177H39.4377Z" fill="white"/>
<path d="M8.83492 14.0005C9.14567 14.0005 9.3971 13.7486 9.3971 13.4373V11.345C9.3971 11.0357 9.14366 10.7818 8.83492 10.7818H3.21316V0.563631C3.21316 0.254356 2.95972 0.000488281 2.65098 0.000488281H0.562176C0.251421 0.000488281 0 0.252341 0 0.563631V13.4273V13.4283V13.4373C0 13.7486 0.251421 14.0005 0.562176 14.0005H0.573239H8.83492Z" fill="white"/>
<path d="M13.816 0.000488281H11.7272C11.4165 0.000488281 11.165 0.252341 11.165 0.563631V13.4373C11.165 13.7486 11.4165 14.0005 11.7272 14.0005H13.816C14.1268 14.0005 14.3782 13.7486 14.3782 13.4373V0.563631C14.3782 0.252341 14.1268 0.000488281 13.816 0.000488281Z" fill="white"/>
<path d="M28.0323 0.00051913H25.9435C25.6328 0.00051913 25.3814 0.252372 25.3814 0.563662V8.20992L19.5021 0.255394C19.4881 0.235246 19.473 0.216105 19.4569 0.196964C19.4559 0.195957 19.4549 0.193942 19.4529 0.192935C19.4418 0.180846 19.4307 0.168757 19.4187 0.157675C19.4146 0.154653 19.4116 0.151631 19.4076 0.147601C19.3975 0.138535 19.3875 0.130475 19.3774 0.121409C19.3724 0.117379 19.3674 0.113349 19.3623 0.110327C19.3523 0.103275 19.3432 0.0962232 19.3322 0.0901788C19.3261 0.0861491 19.3211 0.0831269 19.3151 0.0801046C19.305 0.0740602 19.295 0.0680157 19.2839 0.0629786C19.2779 0.0599564 19.2718 0.0569342 19.2658 0.0539119C19.2547 0.0488749 19.2437 0.0438378 19.2326 0.0398082C19.2266 0.0377934 19.2205 0.0347711 19.2145 0.0327563C19.2034 0.0287267 19.1924 0.024697 19.1803 0.0216748C19.1733 0.01966 19.1672 0.0186525 19.1602 0.0166377C19.1491 0.0136155 19.1381 0.0116007 19.127 0.00958584C19.119 0.00857842 19.1109 0.0065636 19.1029 0.00555619C19.0928 0.00454878 19.0828 0.00253395 19.0727 0.00152654C19.0627 0.00051913 19.0526 0.00051913 19.0425 0.00051913C19.0365 0.00051913 19.0295 -0.000488281 19.0234 -0.000488281H16.9467C16.6359 -0.000488281 16.3845 0.251365 16.3845 0.562655V13.4364C16.3845 13.7477 16.6359 13.9995 16.9467 13.9995H19.0355C19.3463 13.9995 19.5977 13.7477 19.5977 13.4364V5.79314L25.4849 13.7577C25.5252 13.8152 25.5754 13.8625 25.6298 13.8998C25.6318 13.9008 25.6338 13.9028 25.6368 13.9038C25.6479 13.9119 25.6599 13.9189 25.672 13.925C25.677 13.928 25.6831 13.931 25.6881 13.934C25.6971 13.9391 25.7062 13.9431 25.7152 13.9471C25.7243 13.9512 25.7333 13.9552 25.7424 13.9592C25.7484 13.9612 25.7545 13.9632 25.7605 13.9663C25.7736 13.9713 25.7856 13.9753 25.7997 13.9784C25.8027 13.9794 25.8047 13.9794 25.8078 13.9804C25.855 13.9925 25.9043 14.0005 25.9546 14.0005H28.0313C28.3421 14.0005 28.5935 13.7487 28.5935 13.4374V0.563662C28.5955 0.252372 28.3431 0.00051913 28.0323 0.00051913Z" fill="white"/>
</svg>
