<svg xmlns="http://www.w3.org/2000/svg" data-laicon-version="17.3" viewBox="0 0 20 20" fill="#06c755"><g transform="translate(-2 -2)">
  <path d="M20.25 8.501v6.647c0 2.011-1.606 3.68-3.617 3.7a3.657 3.657 0 0 1-3.688-3.653v-2.879L8.11 7.482a1.402 1.402 0 0 0-1.571-.313c-.557.23-.89.73-.89 1.332v6.694c0 .982.81 1.778 1.797 1.754.958-.023 1.712-.829 1.712-1.787v-3.48c0-.175.211-.263.335-.139l1.448 1.448a.392.392 0 0 1 .114.277v1.88c0 2.011-1.605 3.68-3.616 3.7a3.657 3.657 0 0 1-3.689-3.653V8.5a3.29 3.29 0 0 1 2.062-3.086 3.287 3.287 0 0 1 3.64.724l5.118 5.119c.174.174.272.41.272.656v3.248c0 .958.754 1.764 1.711 1.787a1.757 1.757 0 0 0 1.797-1.754V8.5c0-.603-.332-1.101-.89-1.332a1.402 1.402 0 0 0-1.57.313L14.82 8.55a.195.195 0 0 1-.277 0l-1.065-1.064a.197.197 0 0 1 0-.278l1.07-1.069a3.287 3.287 0 0 1 3.638-.724 3.288 3.288 0 0 1 2.062 3.086h.002Z"/>
</g></svg>