<svg width="40" height="40" viewBox="0 0 40 40" fill="none" xmlns="http://www.w3.org/2000/svg">
<g opacity="0.5">
<path d="M3.25 10.358C3.25 8.6368 4.65021 7.25 6.36611 7.25H24.6339C26.3547 7.25 27.75 8.6417 27.75 10.358V17H26.25V10.358C26.25 9.47355 25.5297 8.75 24.6339 8.75H6.36611C5.47233 8.75 4.75 9.47152 4.75 10.358V27.1937L6.38995 25.5594C6.53052 25.4193 6.7209 25.3407 6.91936 25.3407H20.25V26.8407H7.22927L4.52942 29.5312C4.31472 29.7452 3.99233 29.8089 3.71239 29.6927C3.43245 29.5764 3.25 29.3031 3.25 29V10.358Z" fill="white"/>
<path fill-rule="evenodd" clip-rule="evenodd" d="M22 14.75H9V13.25H22V14.75Z" fill="white"/>
<path fill-rule="evenodd" clip-rule="evenodd" d="M16 18.25H9V16.75H16V18.25Z" fill="white"/>
<path fill-rule="evenodd" clip-rule="evenodd" d="M16 21.75H9V20.25H16V21.75Z" fill="white"/>
<path d="M22.4396 17H32.5604C33.9058 17 35 18.0263 35 19.2956V31L32.3954 28.5491H22.4396C21.0942 28.5491 20 27.5228 20 26.2534V19.2956C20 18.0297 21.0906 17 22.4396 17Z" fill="#0E60FF"/>
<path fill-rule="evenodd" clip-rule="evenodd" d="M22.4396 17.75C21.462 17.75 20.75 18.4855 20.75 19.2956V26.2534C20.75 27.0656 21.4641 27.7991 22.4396 27.7991H32.3954C32.5864 27.7991 32.7702 27.872 32.9093 28.0029L34.25 29.2644V19.2956C34.25 18.4835 33.5359 17.75 32.5604 17.75H22.4396ZM22.4396 16.25C20.7193 16.25 19.25 17.5738 19.25 19.2956V26.2534C19.25 27.98 20.7244 29.2991 22.4396 29.2991H32.098L34.486 31.5462C34.7039 31.7512 35.0229 31.8072 35.2975 31.6885C35.5722 31.5698 35.75 31.2992 35.75 31V19.2956C35.75 17.5691 34.2756 16.25 32.5604 16.25H22.4396Z" fill="white"/>
<path d="M32.3738 21.7601C32.449 21.7601 32.5064 21.7 32.5064 21.6292V21.1377C32.5064 21.0634 32.4454 21.0068 32.3738 21.0068H30.4065C30.3313 21.0068 30.2739 21.067 30.2739 21.1377V24.1506C30.2739 24.2249 30.3348 24.285 30.4065 24.285H32.3738C32.449 24.285 32.5064 24.2249 32.5064 24.1541V23.6626C32.5064 23.5883 32.4454 23.5318 32.3738 23.5318H31.0372V23.0225H32.3738C32.449 23.0225 32.5064 22.9624 32.5064 22.8917V22.4001C32.5064 22.3259 32.4454 22.2693 32.3738 22.2693H31.0372V21.7601H32.3738Z" fill="white"/>
<path d="M25.0998 23.5318H23.7633V21.1377C23.7633 21.0634 23.7023 21.0068 23.6307 21.0068H23.1326C23.0573 21.0068 23 21.067 23 21.1377V24.1506C23 24.2249 23.0609 24.285 23.1326 24.285H25.0998C25.1751 24.285 25.2324 24.2249 25.2324 24.1541V23.6626C25.2324 23.5883 25.1715 23.5318 25.0998 23.5318Z" fill="white"/>
<path d="M26.2859 21.0068H25.7879C25.7146 21.0068 25.6553 21.0654 25.6553 21.1377V24.1541C25.6553 24.2264 25.7146 24.285 25.7879 24.285H26.2859C26.3592 24.285 26.4185 24.2264 26.4185 24.1541V21.1377C26.4185 21.0654 26.3592 21.0068 26.2859 21.0068Z" fill="white"/>
<path d="M29.6649 21.0071H29.1669C29.0916 21.0071 29.0343 21.0672 29.0343 21.1379V22.9273L27.6368 21.0637C27.6368 21.0637 27.6296 21.053 27.626 21.0495L27.6189 21.0389L27.6117 21.0318H27.6081L27.6009 21.0248H27.5973L27.5902 21.0177H27.5866L27.5794 21.0106H27.5687V21.0035H27.0383C26.9631 21 26.9058 21.0601 26.9058 21.1308V24.1438C26.9058 24.218 26.9667 24.2746 27.0383 24.2746H27.5364C27.6117 24.2746 27.669 24.2145 27.669 24.1438V22.3544L29.0665 24.218C29.0665 24.218 29.088 24.2428 29.1024 24.2499L29.1095 24.2569H29.1203L29.1274 24.264H29.1418C29.1418 24.264 29.1633 24.2746 29.1776 24.2746H29.6721C29.7474 24.2746 29.8047 24.2145 29.8047 24.1438V21.1308C29.8047 21.0566 29.7438 21 29.6721 21L29.6649 21.0071Z" fill="white"/>
</g>
</svg>
