<svg width="40" height="40" viewBox="0 0 40 40" fill="none" xmlns="http://www.w3.org/2000/svg">
<g opacity="0.5">
<path d="M29.716 6H10.284C7.918 6 6 7.918 6 10.284V29.716C6 32.082 7.918 34 10.284 34H29.716C32.082 34 34 32.082 34 29.716V10.284C34 7.918 32.082 6 29.716 6Z" stroke="white" stroke-width="1.5"/>
<path d="M15.4282 18.4365C17.0796 18.4365 18.4184 17.0977 18.4184 15.4463C18.4184 13.7948 17.0796 12.4561 15.4282 12.4561C13.7767 12.4561 12.438 13.7948 12.438 15.4463C12.438 17.0977 13.7767 18.4365 15.4282 18.4365Z" stroke="white" stroke-width="1.5"/>
<path d="M27.4576 12.7432H21.9912V18.2095H27.4576V12.7432Z" stroke="white" stroke-width="1.5"/>
<path d="M24.7237 21.5767L28.0523 27.3472H21.395L24.7237 21.5767Z" stroke="white" stroke-width="1.5"/>
<path d="M15.4275 28.1414L18.8384 24.7305L15.4275 21.3196L12.0166 24.7305L15.4275 28.1414Z" stroke="white" stroke-width="1.5"/>
</g>
</svg>
