<svg width="40" height="40" viewBox="0 0 40 40" fill="none" xmlns="http://www.w3.org/2000/svg">
<mask id="mask0_818_20772" style="mask-type:alpha" maskUnits="userSpaceOnUse" x="0" y="0" width="40" height="40">
<rect width="40" height="40" fill="white"/>
</mask>
<g mask="url(#mask0_818_20772)">
<path fill-rule="evenodd" clip-rule="evenodd" d="M10.284 6.75C8.33221 6.75 6.75 8.33221 6.75 10.284V29.716C6.75 31.6678 8.33221 33.25 10.284 33.25H29.716C31.6678 33.25 33.25 31.6678 33.25 29.716V10.284C33.25 8.33221 31.6678 6.75 29.716 6.75H10.284ZM5.25 10.284C5.25 7.50378 7.50378 5.25 10.284 5.25H29.716C32.4962 5.25 34.75 7.50378 34.75 10.284V29.716C34.75 32.4962 32.4962 34.75 29.716 34.75H10.284C7.50378 34.75 5.25 32.4962 5.25 29.716V10.284Z" fill="#1F1F1F"/>
<path d="M15.4225 18.3846C17.0581 18.3846 18.384 17.0587 18.384 15.4231C18.384 13.7875 17.0581 12.4615 15.4225 12.4615C13.7869 12.4615 12.4609 13.7875 12.4609 15.4231C12.4609 17.0587 13.7869 18.3846 15.4225 18.3846Z" fill="#06C755"/>
<path fill-rule="evenodd" clip-rule="evenodd" d="M15.4225 13.0865C14.132 13.0865 13.0859 14.1327 13.0859 15.4231C13.0859 16.7135 14.132 17.7596 15.4225 17.7596C16.7129 17.7596 17.759 16.7135 17.759 15.4231C17.759 14.1327 16.7129 13.0865 15.4225 13.0865ZM11.8359 15.4231C11.8359 13.4423 13.4417 11.8365 15.4225 11.8365C17.4033 11.8365 19.009 13.4423 19.009 15.4231C19.009 17.4039 17.4033 19.0096 15.4225 19.0096C13.4417 19.0096 11.8359 17.4039 11.8359 15.4231Z" fill="#1F1F1F"/>
<path fill-rule="evenodd" clip-rule="evenodd" d="M21.5288 12.4615C21.5288 12.1164 21.8086 11.8365 22.1538 11.8365H27.5384C27.8836 11.8365 28.1634 12.1164 28.1634 12.4615V17.8462C28.1634 18.1913 27.8836 18.4712 27.5384 18.4712H22.1538C21.8086 18.4712 21.5288 18.1913 21.5288 17.8462V12.4615ZM22.7788 13.0865V17.2212H26.9134V13.0865H22.7788Z" fill="#1F1F1F"/>
<path fill-rule="evenodd" clip-rule="evenodd" d="M24.846 21.5288C25.0655 21.5288 25.269 21.644 25.3819 21.8322L28.6127 27.2169C28.7286 27.4099 28.7316 27.6504 28.6206 27.8464C28.5097 28.0423 28.3019 28.1634 28.0768 28.1634H21.6152C21.3901 28.1634 21.1823 28.0423 21.0714 27.8464C20.9604 27.6504 20.9635 27.4099 21.0793 27.2169L24.3101 21.8322C24.423 21.644 24.6265 21.5288 24.846 21.5288ZM22.7191 26.9134H26.9729L24.846 23.3686L22.7191 26.9134Z" fill="#1F1F1F"/>
<path fill-rule="evenodd" clip-rule="evenodd" d="M14.7117 21.1734C14.9558 20.9293 15.3515 20.9293 15.5956 21.1734L18.8263 24.4042C19.0704 24.6483 19.0704 25.044 18.8263 25.2881L15.5956 28.5188C15.3515 28.7629 14.9558 28.7629 14.7117 28.5188L11.4809 25.2881C11.2368 25.044 11.2368 24.6483 11.4809 24.4042L14.7117 21.1734ZM12.8067 24.8461L15.1536 27.193L17.5005 24.8461L15.1536 22.4992L12.8067 24.8461Z" fill="#1F1F1F"/>
</g>
</svg>
