<svg width="40" height="40" viewBox="0 0 40 40" fill="none" xmlns="http://www.w3.org/2000/svg">
<path d="M24.2549 20.777C24.2921 20.777 24.3284 20.7878 24.3593 20.8081C24.3902 20.8284 24.4143 20.8572 24.4284 20.8909L25.5089 23.4687L26.5537 20.8926C26.5676 20.8584 26.5916 20.8291 26.6227 20.8085C26.6538 20.7878 26.6905 20.7768 26.7281 20.7768H27.8874C27.9058 20.7768 27.9239 20.7813 27.9401 20.7897C27.9563 20.7981 27.9702 20.8103 27.9805 20.8251C27.9908 20.84 27.9973 20.8571 27.9993 20.875C28.0013 20.8928 27.9989 20.9109 27.9921 20.9276L25.5759 26.8842C25.5621 26.9184 25.5381 26.9477 25.507 26.9684C25.4759 26.989 25.4391 27.0001 25.4015 27H24.2423C24.2239 27 24.2058 26.9956 24.1896 26.9872C24.1733 26.9788 24.1595 26.9667 24.1491 26.9518C24.1388 26.9369 24.1324 26.9198 24.1304 26.902C24.1284 26.8841 24.1309 26.866 24.1377 26.8493L24.7947 25.2298L22.9919 20.9291C22.9848 20.9123 22.9821 20.8941 22.984 20.8761C22.9858 20.8581 22.9921 20.8408 23.0024 20.8258C23.0127 20.8108 23.0267 20.7984 23.043 20.7899C23.0593 20.7814 23.0775 20.777 23.096 20.777H24.2549ZM19.3084 20.6524C19.9165 20.6524 20.3615 20.8569 20.661 21.1944V20.8871C20.661 20.8262 20.7114 20.7768 20.7735 20.7768H21.9099C21.9247 20.7768 21.9394 20.7797 21.953 20.7852C21.9667 20.7908 21.9791 20.7989 21.9896 20.8091C22 20.8194 22.0083 20.8315 22.014 20.8449C22.0196 20.8583 22.0225 20.8726 22.0225 20.8871V25.1085C22.0225 25.123 22.0196 25.1373 22.014 25.1507C22.0083 25.1641 22 25.1762 21.9896 25.1865C21.9791 25.1967 21.9667 25.2048 21.953 25.2104C21.9394 25.2159 21.9247 25.2188 21.9099 25.2188H20.7734C20.7586 25.2188 20.744 25.2159 20.7303 25.2104C20.7166 25.2048 20.7042 25.1967 20.6938 25.1865C20.6833 25.1762 20.675 25.1641 20.6694 25.1507C20.6637 25.1373 20.6608 25.123 20.6609 25.1085V24.8012C20.3613 25.1387 19.9165 25.3431 19.3084 25.3431C18.1192 25.3431 17.1388 24.3216 17.1388 22.9977C17.1388 21.674 18.1192 20.6524 19.3084 20.6524ZM14.4056 19C15.6583 19 16.6297 19.9505 16.6297 21.132C16.6297 22.3136 15.6585 23.2642 14.4058 23.2642H13.4526V25.0093C13.4526 25.0368 13.447 25.064 13.4363 25.0894C13.4255 25.1148 13.4098 25.1378 13.3899 25.1573C13.37 25.1767 13.3465 25.1921 13.3205 25.2026C13.2946 25.2131 13.2667 25.2185 13.2387 25.2185H12.2139C12.1858 25.2185 12.158 25.2131 12.1321 25.2026C12.1061 25.1921 12.0825 25.1767 12.0627 25.1573C12.0428 25.1378 12.027 25.1148 12.0163 25.0894C12.0055 25.064 12 25.0368 12 25.0093V19.2093C12 19.1538 12.0226 19.1006 12.0627 19.0614C12.1028 19.0221 12.1572 19 12.2139 19H14.4056ZM19.5808 21.914C18.9545 21.914 18.5006 22.3316 18.5006 22.9977C18.5006 23.6639 18.9545 24.0815 19.5808 24.0815C20.2071 24.0815 20.661 23.6639 20.661 22.9977C20.661 22.3316 20.2071 21.914 19.5808 21.914ZM14.4056 20.3326H13.4524V21.9317H14.4056C14.8504 21.9317 15.1772 21.5853 15.1772 21.1322C15.1772 20.679 14.8504 20.3326 14.4056 20.3326Z" fill="#06C755"/>
<path fill-rule="evenodd" clip-rule="evenodd" d="M32 10H8C7.17157 10 6.5 10.6716 6.5 11.5V28.5C6.5 29.3284 7.17157 30 8 30H32C32.8284 30 33.5 29.3284 33.5 28.5V11.5C33.5 10.6716 32.8284 10 32 10ZM8 8.5C6.34315 8.5 5 9.84315 5 11.5V28.5C5 30.1569 6.34315 31.5 8 31.5H32C33.6569 31.5 35 30.1569 35 28.5V11.5C35 9.84315 33.6569 8.5 32 8.5H8Z" fill="#1F1F1F"/>
<rect x="6.5" y="13.5" width="27.5" height="1.5" fill="#1F1F1F"/>
</svg>
