<svg width="40" height="40" viewBox="0 0 40 40" fill="none" xmlns="http://www.w3.org/2000/svg">
<mask id="mask0_818_20760" style="mask-type:alpha" maskUnits="userSpaceOnUse" x="0" y="0" width="40" height="40">
<rect width="40" height="40" fill="white"/>
</mask>
<g mask="url(#mask0_818_20760)">
<path fill-rule="evenodd" clip-rule="evenodd" d="M13.4165 14.1666C13.4165 13.7524 13.7523 13.4166 14.1665 13.4166H25.8332C26.2474 13.4166 26.5832 13.7524 26.5832 14.1666V25.8333C26.5832 26.2475 26.2474 26.5833 25.8332 26.5833H14.1665C13.7523 26.5833 13.4165 26.2475 13.4165 25.8333V14.1666ZM14.9165 14.9166V25.0833H25.0832V14.9166H14.9165Z" fill="#06C755"/>
<path fill-rule="evenodd" clip-rule="evenodd" d="M20.752 6V8.75H25.0833V6H26.5833V8.75H29.0829C30.2798 8.75 31.25 9.72024 31.25 10.9171V13.4167H34V14.9167H31.25V19.25H34V20.75H31.25V25.0833H34V26.5833H31.25V29.0829C31.25 30.2798 30.2798 31.25 29.0829 31.25H26.5833V34H25.0833V31.25H20.752V34H19.252V31.25H14.9167V34H13.4167V31.25H10.9171C9.72024 31.25 8.75 30.2798 8.75 29.0829V26.5833H6V25.0833H8.75V20.75H6V19.25H8.75V14.9167H6V13.4167H8.75V10.9171C8.75 9.72024 9.72024 8.75 10.9171 8.75H13.4167V6H14.9167V8.75H19.252V6H20.752ZM10.9171 10.25C10.5487 10.25 10.25 10.5487 10.25 10.9171V29.0829C10.25 29.4513 10.5487 29.75 10.9171 29.75H29.0829C29.4513 29.75 29.75 29.4513 29.75 29.0829V10.9171C29.75 10.5487 29.4513 10.25 29.0829 10.25H10.9171Z" fill="#1F1F1F"/>
</g>
</svg>
