<svg width="40" height="40" viewBox="0 0 40 40" fill="none" xmlns="http://www.w3.org/2000/svg">
<mask id="mask0_818_20754" style="mask-type:alpha" maskUnits="userSpaceOnUse" x="0" y="0" width="40" height="40">
<rect width="40" height="40" fill="white"/>
</mask>
<g mask="url(#mask0_818_20754)">
<path fill-rule="evenodd" clip-rule="evenodd" d="M30.0386 4.75H33.5828C34.5057 4.75 35.2501 5.49441 35.2501 6.41732V9.96154H33.7501V6.41732C33.7501 6.32284 33.6773 6.25 33.5828 6.25H30.0386V4.75ZM6.25 6.41733C6.25 6.32285 6.32284 6.25 6.41733 6.25H9.96154V4.75H6.41733C5.49442 4.75 4.75 5.49441 4.75 6.41733V9.96154H6.25V6.41733ZM4.75 30.0385V33.5827C4.75 34.5056 5.49442 35.25 6.41733 35.25H9.96154V33.75H6.41733C6.32284 33.75 6.25 33.6772 6.25 33.5827V30.0385H4.75ZM33.7501 30.0385V33.5827C33.7501 33.6772 33.6773 33.75 33.5828 33.75H30.0386V35.25H33.5828C34.5057 35.25 35.2501 34.5056 35.2501 33.5827V30.0385H33.7501Z" fill="#1F1F1F"/>
<path d="M20 31.3929V19.6548L30.3571 13.7858V25.5239L20 31.3929Z" fill="#06C755"/>
<path fill-rule="evenodd" clip-rule="evenodd" d="M19.622 7.64062C19.8555 7.5044 20.1443 7.5044 20.3778 7.64062L30.4163 13.4964C30.6467 13.6308 30.7883 13.8775 30.7883 14.1442V25.8558C30.7883 26.1225 30.6467 26.3692 30.4163 26.5036L20.3778 32.3594C20.1443 32.4956 19.8555 32.4956 19.622 32.3594L9.58352 26.5036C9.35311 26.3692 9.21143 26.1225 9.21143 25.8558V14.1442C9.21143 13.8775 9.35311 13.6308 9.58352 13.4964L19.622 7.64062ZM19.9999 9.15673L11.2323 14.2712L19.9998 19.142L28.7674 14.2711L19.9999 9.15673ZM10.7114 25.425V15.6977L19.2515 20.4422V30.4067L10.7114 25.425ZM20.7515 30.4048L29.2883 25.425V15.6977L20.7515 20.4404V30.4048Z" fill="#1F1F1F"/>
</g>
</svg>
