<svg width="40" height="40" viewBox="0 0 40 40" fill="none" xmlns="http://www.w3.org/2000/svg">
<g opacity="0.5">
<path fill-rule="evenodd" clip-rule="evenodd" d="M30.0386 4.75H33.5828C34.5057 4.75 35.2501 5.49441 35.2501 6.41732V9.96154H33.7501V6.41732C33.7501 6.32284 33.6773 6.25 33.5828 6.25H30.0386V4.75ZM6.25 6.41733C6.25 6.32285 6.32284 6.25 6.41733 6.25H9.96154V4.75H6.41733C5.49442 4.75 4.75 5.49441 4.75 6.41733V9.96154H6.25V6.41733ZM4.75 30.0385V33.5827C4.75 34.5056 5.49442 35.25 6.41733 35.25H9.96154V33.75H6.41733C6.32284 33.75 6.25 33.6772 6.25 33.5827V30.0385H4.75ZM33.7501 30.0385V33.5827C33.7501 33.6772 33.6773 33.75 33.5828 33.75H30.0386V35.25H33.5828C34.5057 35.25 35.2501 34.5056 35.2501 33.5827V30.0385H33.7501Z" fill="white"/>
<path fill-rule="evenodd" clip-rule="evenodd" d="M19.622 7.64074C19.8555 7.50452 20.1443 7.50452 20.3778 7.64074L30.4163 13.4965C30.6467 13.6309 30.7883 13.8776 30.7883 14.1443V25.8559C30.7883 26.1226 30.6467 26.3693 30.4163 26.5037L20.3778 32.3595C20.1443 32.4957 19.8555 32.4957 19.622 32.3595L9.58352 26.5037C9.35311 26.3693 9.21143 26.1226 9.21143 25.8559V14.1443C9.21143 13.8776 9.35311 13.6309 9.58352 13.4965L19.622 7.64074ZM19.9999 9.15685L11.2323 14.2713L19.9998 19.1421L28.7674 14.2713L19.9999 9.15685ZM10.7114 25.4251V15.6978L19.2515 20.4423V30.4068L10.7114 25.4251ZM20.7515 30.4049L29.2883 25.4251V15.6978L20.7515 20.4405V30.4049Z" fill="white"/>
</g>
</svg>
